<svg width="75" height="15" viewBox="0 0 75 15" fill="none" xmlns="http://www.w3.org/2000/svg">
<path d="M4.92003 5.89C5.5267 6.02067 6.0167 6.31 6.39003 6.758C6.7727 7.206 6.96403 7.73333 6.96403 8.34C6.96403 9.14267 6.6887 9.78667 6.13803 10.272C5.5967 10.7573 4.80803 11 3.77203 11H0.104031V1.13H3.71603C4.70536 1.13 5.4567 1.34933 5.97003 1.788C6.48337 2.22667 6.74003 2.82867 6.74003 3.594C6.74003 4.22867 6.56737 4.742 6.22203 5.134C5.88603 5.526 5.45203 5.778 4.92003 5.89ZM1.37803 5.456H3.50603C4.13136 5.456 4.60736 5.31133 4.93403 5.022C5.27003 4.73267 5.43803 4.32667 5.43803 3.804C5.43803 3.3 5.2747 2.90333 4.94803 2.614C4.62136 2.32467 4.12203 2.18 3.45003 2.18H1.37803V5.456ZM3.53403 9.936C4.20603 9.936 4.72403 9.782 5.08803 9.474C5.46136 9.166 5.64803 8.732 5.64803 8.172C5.64803 7.62133 5.4567 7.192 5.07403 6.884C4.7007 6.56667 4.17803 6.408 3.50603 6.408H1.37803V9.936H3.53403ZM15.3853 3.314V11H14.1113V9.194C13.9153 9.81933 13.5653 10.3 13.0613 10.636C12.5666 10.9627 11.9879 11.126 11.3253 11.126C10.4386 11.126 9.71992 10.8413 9.16925 10.272C8.61858 9.69333 8.34325 8.86733 8.34325 7.794V3.314H9.61725V7.668C9.61725 8.43333 9.81325 9.026 10.2053 9.446C10.5973 9.85667 11.1293 10.062 11.8013 10.062C12.5013 10.062 13.0613 9.838 13.4813 9.39C13.9013 8.93267 14.1113 8.27 14.1113 7.402V3.314H15.3853ZM17.9583 3.314L20.4503 9.362L22.7603 3.314H24.1743L19.6103 14.64H18.1683L19.7643 10.874L16.5303 3.314H17.9583ZM35.0453 8.438C35.0453 8.90467 34.9333 9.33867 34.7093 9.74C34.4853 10.1413 34.1446 10.468 33.6873 10.72C33.23 10.972 32.6653 11.098 31.9933 11.098C31.34 11.098 30.7566 10.9813 30.2433 10.748C29.7393 10.5053 29.3333 10.1787 29.0253 9.768C28.7266 9.348 28.554 8.872 28.5073 8.34H29.8653C29.8933 8.62 29.9866 8.89533 30.1453 9.166C30.3133 9.42733 30.5466 9.64667 30.8453 9.824C31.1533 9.992 31.522 10.076 31.9513 10.076C32.5113 10.076 32.9406 9.92667 33.2393 9.628C33.538 9.32933 33.6873 8.94667 33.6873 8.48C33.6873 8.07867 33.58 7.752 33.3653 7.5C33.16 7.248 32.9033 7.052 32.5953 6.912C32.2873 6.76267 31.8673 6.604 31.3353 6.436C30.71 6.23067 30.206 6.03933 29.8233 5.862C29.45 5.67533 29.128 5.4 28.8573 5.036C28.596 4.672 28.4653 4.19133 28.4653 3.594C28.4653 3.08067 28.5866 2.628 28.8293 2.236C29.0813 1.844 29.436 1.54067 29.8933 1.326C30.36 1.11133 30.906 1.004 31.5313 1.004C32.502 1.004 33.272 1.242 33.8413 1.718C34.4106 2.18467 34.742 2.782 34.8353 3.51H33.4633C33.3886 3.118 33.188 2.77267 32.8613 2.474C32.5346 2.17533 32.0913 2.026 31.5313 2.026C31.018 2.026 30.6073 2.16133 30.2993 2.432C29.9913 2.69333 29.8373 3.06667 29.8373 3.552C29.8373 3.93467 29.9353 4.24733 30.1313 4.49C30.3366 4.72333 30.5886 4.91 30.8873 5.05C31.186 5.18067 31.5966 5.33 32.1193 5.498C32.754 5.70333 33.2626 5.89933 33.6453 6.086C34.0373 6.27267 34.3686 6.55733 34.6393 6.94C34.91 7.31333 35.0453 7.81267 35.0453 8.438ZM40.2443 3.216C40.9817 3.216 41.6397 3.37467 42.2183 3.692C42.8063 4.00933 43.2637 4.46667 43.5903 5.064C43.9263 5.66133 44.0943 6.36133 44.0943 7.164C44.0943 7.96667 43.9263 8.66667 43.5903 9.264C43.2637 9.852 42.8063 10.3047 42.2183 10.622C41.6397 10.9393 40.9817 11.098 40.2443 11.098C39.507 11.098 38.8443 10.9393 38.2563 10.622C37.6777 10.3047 37.2203 9.852 36.8843 9.264C36.5483 8.66667 36.3803 7.96667 36.3803 7.164C36.3803 6.36133 36.5483 5.66133 36.8843 5.064C37.2203 4.46667 37.6777 4.00933 38.2563 3.692C38.8443 3.37467 39.507 3.216 40.2443 3.216ZM40.2443 4.336C39.787 4.336 39.3623 4.43867 38.9703 4.644C38.5877 4.84933 38.275 5.16667 38.0323 5.596C37.799 6.016 37.6823 6.53867 37.6823 7.164C37.6823 7.78 37.799 8.30267 38.0323 8.732C38.275 9.152 38.5877 9.46467 38.9703 9.67C39.3623 9.87533 39.787 9.978 40.2443 9.978C40.7017 9.978 41.1217 9.87533 41.5043 9.67C41.8963 9.46467 42.209 9.152 42.4423 8.732C42.685 8.30267 42.8063 7.78 42.8063 7.164C42.8063 6.53867 42.685 6.016 42.4423 5.596C42.209 5.16667 41.8963 4.84933 41.5043 4.644C41.1217 4.43867 40.7017 4.336 40.2443 4.336ZM47.0284 0.64V11H45.7544V0.64H47.0284ZM52.2267 3.216C52.9734 3.216 53.6034 3.40267 54.1167 3.776C54.6394 4.14933 55.0034 4.64867 55.2087 5.274V3.314H56.4827V11H55.2087V9.04C55.0034 9.66533 54.6394 10.1647 54.1167 10.538C53.6034 10.9113 52.9734 11.098 52.2267 11.098C51.5454 11.098 50.9387 10.9393 50.4067 10.622C49.8747 10.3047 49.4547 9.852 49.1467 9.264C48.848 8.66667 48.6987 7.96667 48.6987 7.164C48.6987 6.36133 48.848 5.66133 49.1467 5.064C49.4547 4.46667 49.8747 4.00933 50.4067 3.692C50.9387 3.37467 51.5454 3.216 52.2267 3.216ZM52.5907 4.35C51.8067 4.35 51.1767 4.602 50.7007 5.106C50.234 5.60067 50.0007 6.28667 50.0007 7.164C50.0007 8.04133 50.234 8.732 50.7007 9.236C51.1767 9.73067 51.8067 9.978 52.5907 9.978C53.0947 9.978 53.5427 9.86133 53.9347 9.628C54.336 9.39467 54.6487 9.068 54.8727 8.648C55.0967 8.21867 55.2087 7.724 55.2087 7.164C55.2087 6.604 55.0967 6.10933 54.8727 5.68C54.6487 5.25067 54.336 4.924 53.9347 4.7C53.5427 4.46667 53.0947 4.35 52.5907 4.35ZM62.5563 3.188C63.4523 3.188 64.1756 3.47733 64.7263 4.056C65.2769 4.62533 65.5523 5.45133 65.5523 6.534V11H64.2783V6.646C64.2783 5.88067 64.0823 5.29267 63.6903 4.882C63.2983 4.47133 62.7663 4.266 62.0943 4.266C61.3943 4.266 60.8343 4.49467 60.4143 4.952C59.9943 5.4 59.7843 6.058 59.7843 6.926V11H58.5103V3.314H59.7843V5.134C59.9803 4.50867 60.3256 4.028 60.8203 3.692C61.3243 3.356 61.9029 3.188 62.5563 3.188ZM70.6564 3.216C71.403 3.216 72.033 3.40267 72.5464 3.776C73.069 4.14933 73.433 4.64867 73.6384 5.274V3.314H74.9124V11H73.6384V9.04C73.433 9.66533 73.069 10.1647 72.5464 10.538C72.033 10.9113 71.403 11.098 70.6564 11.098C69.975 11.098 69.3684 10.9393 68.8364 10.622C68.3044 10.3047 67.8844 9.852 67.5764 9.264C67.2777 8.66667 67.1284 7.96667 67.1284 7.164C67.1284 6.36133 67.2777 5.66133 67.5764 5.064C67.8844 4.46667 68.3044 4.00933 68.8364 3.692C69.3684 3.37467 69.975 3.216 70.6564 3.216ZM71.0204 4.35C70.2364 4.35 69.6064 4.602 69.1304 5.106C68.6637 5.60067 68.4304 6.28667 68.4304 7.164C68.4304 8.04133 68.6637 8.732 69.1304 9.236C69.6064 9.73067 70.2364 9.978 71.0204 9.978C71.5244 9.978 71.9724 9.86133 72.3644 9.628C72.7657 9.39467 73.0784 9.068 73.3024 8.648C73.5264 8.21867 73.6384 7.724 73.6384 7.164C73.6384 6.604 73.5264 6.10933 73.3024 5.68C73.0784 5.25067 72.7657 4.924 72.3644 4.7C71.9724 4.46667 71.5244 4.35 71.0204 4.35Z" fill="url(#paint0_linear_2136_4222)"/>
<defs>
<linearGradient id="paint0_linear_2136_4222" x1="61.7159" y1="-50.5601" x2="-18.9031" y2="23.5731" gradientUnits="userSpaceOnUse">
<stop stop-color="#00FFA3"/>
<stop offset="1" stop-color="#DC1FFF"/>
</linearGradient>
</defs>
</svg>
