<svg width="17" height="10" viewBox="0 0 17 10" fill="none" xmlns="http://www.w3.org/2000/svg">
<g clip-path="url(#clip0_2128_6950)">
<path d="M16.9673 0H0.00244141V10H16.9673V0Z" fill="white"/>
<path d="M16.9657 5.29224C16.9534 5.28965 16.9411 5.28965 16.9288 5.28879C16.9104 5.28879 16.8919 5.28879 16.8735 5.28879C16.2075 5.28879 15.5406 5.28879 14.8746 5.28793C14.111 5.28793 13.3466 5.28793 12.5831 5.28793C11.2194 5.28793 9.85575 5.28793 8.49209 5.28793C8.33481 5.28793 8.17666 5.28793 8.01938 5.28793C7.18906 5.28793 6.35874 5.28879 5.52843 5.28965C5.51612 5.28965 5.50734 5.28879 5.50119 5.28534C5.4924 5.28017 5.48889 5.27069 5.48889 5.25345C5.48889 5.24914 5.48889 5.24397 5.48889 5.23965C5.48889 5.04741 5.48889 4.85431 5.48889 4.66207C5.48889 4.65603 5.48889 4.65 5.48889 4.64397C5.48977 4.63534 5.49416 4.62845 5.50119 4.62414C5.5047 4.62241 5.50822 4.62069 5.51261 4.61983C5.517 4.61983 5.5214 4.61983 5.52667 4.61983C5.59608 4.61983 5.66549 4.61724 5.73491 4.61724C6.84639 4.61724 7.95788 4.61724 9.07024 4.61724C9.87244 4.61724 10.6755 4.61724 11.4777 4.61724C13.1937 4.61724 14.9106 4.61724 16.6266 4.61724C16.7303 4.61724 16.8339 4.61724 16.9376 4.61638C16.9912 4.61638 17 4.60603 17 4.55517C17 4.38534 17 4.21552 17 4.04569C17 4.0319 17 4.0181 17 4.00431C16.9991 3.96983 16.9851 3.95517 16.9499 3.95172C16.9394 3.95086 16.9279 3.95172 16.9174 3.95172C16.8629 3.95172 16.8093 3.95259 16.7549 3.95259C16.305 3.95259 15.8551 3.95259 15.4053 3.95172C14.9246 3.95172 14.4431 3.95172 13.9625 3.95172C11.5427 3.95172 9.12296 3.95172 6.70317 3.95172C6.41849 3.95172 6.13381 3.95172 5.85001 3.95172C5.74194 3.95172 5.63386 3.95259 5.52579 3.95345C5.5214 3.95345 5.51613 3.95345 5.51173 3.95345C5.50822 3.95345 5.5047 3.95172 5.50207 3.95C5.49592 3.94655 5.49152 3.94052 5.48977 3.93276C5.48889 3.92672 5.48889 3.92069 5.48977 3.91465C5.48977 3.7431 5.49152 3.57155 5.49152 3.40086C5.49152 3.38103 5.48889 3.36121 5.48977 3.34224C5.48977 3.33017 5.49416 3.32241 5.50295 3.3181C5.50734 3.31552 5.51261 3.31466 5.51964 3.31466C5.57675 3.31466 5.63386 3.31466 5.69097 3.31466C7.29099 3.31466 8.89187 3.31466 10.4919 3.31466C11.5032 3.31466 12.5145 3.31466 13.5258 3.31466C14.6593 3.31466 15.7927 3.31466 16.9262 3.31466C16.9403 3.31466 16.9543 3.31466 16.9675 3.31293C16.9903 3.30948 17 3.29914 17.0018 3.27672C17.0018 3.26638 17.0018 3.25517 17.0018 3.24483C17.0018 3.06465 17.0018 2.88362 17.0035 2.70345C17.0035 2.67069 16.9895 2.65603 16.9596 2.65086C16.9473 2.64914 16.935 2.64914 16.9227 2.64914C16.8937 2.64914 16.8638 2.64914 16.8348 2.64914C16.3305 2.64914 15.827 2.64914 15.3227 2.64914C14.5108 2.64914 13.6989 2.64914 12.8879 2.64914C10.4541 2.64914 8.02114 2.64914 5.5873 2.64914C5.56533 2.64914 5.54424 2.65086 5.52228 2.65086C5.51525 2.65086 5.50997 2.64914 5.5047 2.64655C5.4968 2.64224 5.49328 2.63448 5.49152 2.62241C5.49152 2.61466 5.49152 2.6069 5.49152 2.6C5.49152 2.57845 5.49328 2.55776 5.49328 2.53621C5.49328 2.37414 5.49328 2.21121 5.49328 2.04914C5.49328 2.03362 5.49328 2.01897 5.49416 2.00345C5.49416 1.99483 5.49855 1.98879 5.5047 1.98448C5.50822 1.9819 5.51261 1.98017 5.51788 1.97931C5.52579 1.97845 5.5337 1.97845 5.54073 1.97845C5.5829 1.97845 5.6242 1.97672 5.66637 1.97672C6.30778 1.97672 6.94919 1.97672 7.59148 1.97672C8.10285 1.97672 8.6151 1.975 9.12647 1.975C9.46651 1.975 9.80654 1.97672 10.1466 1.97759C10.7344 1.97759 11.3213 1.97759 11.9091 1.97759C13.4802 1.97759 15.0512 1.97759 16.6222 1.97672C16.7259 1.97672 16.8295 1.97672 16.9332 1.97759C16.9473 1.97759 16.9613 1.97759 16.9745 1.975C16.9903 1.97241 16.9991 1.96293 17.0009 1.94741C17.0018 1.93362 17.0018 1.91983 17.0018 1.9069C17.0018 1.72931 17.0018 1.55172 17.0018 1.37414C17.0018 1.3681 17.0018 1.36207 17.0018 1.35603C17 1.3319 16.9868 1.31724 16.9613 1.31379C16.949 1.31207 16.9367 1.31293 16.9244 1.31293C16.059 1.31293 15.1926 1.31293 14.3272 1.31293C13.4828 1.31293 12.6384 1.31293 11.7949 1.31293C9.97173 1.31293 8.14942 1.31293 6.32623 1.31293C6.06528 1.31293 5.80344 1.31293 5.54248 1.31293C5.52403 1.31293 5.51173 1.31293 5.5047 1.30776C5.49416 1.30172 5.4924 1.28966 5.4924 1.26293C5.4924 1.10517 5.4924 0.947414 5.4924 0.789655C5.4924 0.763793 5.49064 0.737931 5.49064 0.712069C5.49064 0.692241 5.49328 0.681897 5.5047 0.676724C5.50997 0.674138 5.51788 0.673276 5.52843 0.673276C5.58554 0.673276 5.64265 0.673276 5.69976 0.673276C6.8297 0.673276 7.96051 0.673276 9.09045 0.673276C9.63609 0.673276 10.1817 0.673276 10.7282 0.673276C12.4477 0.673276 14.1673 0.673276 15.8859 0.673276C16.2356 0.673276 16.5844 0.673276 16.9341 0.673276C16.9438 0.673276 16.9526 0.673276 16.9622 0.673276C16.993 0.67069 17.0035 0.660345 17.0035 0.630172C17.0035 0.606034 17.0018 0.581896 17.0018 0.557759C17.0018 0.403448 17.0018 0.248276 17.0026 0.0939655C17.0026 0.0741379 17.0026 0.0543103 17.0026 0.0344828C17.0018 0.0137931 16.993 0.00517241 16.971 0.00258621C16.9561 0.000862069 16.9403 0.000862069 16.9244 0.00172414C16.4139 0.00172414 15.9043 0.00344828 15.3938 0.00344828C14.712 0.00344828 14.0302 0.00344828 13.3484 0.00344828H8.50615C7.86474 0.00431034 7.22245 0.00517241 6.58104 0.00431034C6.22255 0.00431034 5.86319 0.00258621 5.5047 0.00172414C5.46165 0.00172414 5.4186 0.00172414 5.37554 0.00172414C4.91338 0.00172414 4.45121 0.00172414 3.98904 0.00172414C3.03659 0.00172414 2.08414 0.00172414 1.13169 0.00172414C1.05877 0.00172414 0.986717 0.00172414 0.913789 0.00172414C0.630866 0.00172414 0.347943 0.00172414 0.0650196 0C0 0.00172414 0 0.0198276 0 0.062931C0 0.450862 0 0.839655 0 1.22759C0.000878644 2.64914 0.00263593 4.07069 0.00351457 5.49138C0.00351457 5.63362 0.00351457 5.77672 0.00351457 5.91897C0.00351457 5.92845 0.00351457 5.93707 0.00351457 5.94655C0.00615051 5.96897 0.0140583 5.98017 0.0377817 5.98362C0.0588691 5.98707 0.0808352 5.98707 0.102801 5.98793C0.137068 5.98793 0.170457 5.98621 0.204724 5.98621C1.16332 5.98621 2.12192 5.98621 3.08052 5.98621C3.88712 5.98621 4.69371 5.98621 5.50031 5.98621C7.00191 5.98621 8.50439 5.98621 10.006 5.98621C10.317 5.98621 10.6272 5.98621 10.9382 5.98621C11.331 5.98621 11.7237 5.98534 12.1165 5.98448C12.2509 5.98448 12.3854 5.98621 12.5198 5.98621C13.8773 5.98621 15.2348 5.98621 16.5923 5.98621C16.7065 5.98621 16.8208 5.98621 16.9359 5.98621C16.9438 5.98621 16.9517 5.98621 16.9587 5.98534C16.9851 5.9819 16.9965 5.96897 16.9974 5.9431C16.9974 5.91897 16.9974 5.89483 16.9974 5.87069C16.9974 5.69138 16.9991 5.51293 17 5.33362C17 5.30862 16.9912 5.29741 16.9657 5.2931V5.29224ZM4.60321 1.53707C4.63924 1.53793 4.66296 1.52414 4.67438 1.49138C4.68141 1.47155 4.68844 1.45172 4.69547 1.43103C4.70689 1.39655 4.71832 1.36207 4.72974 1.32759C4.73501 1.31207 4.74028 1.29569 4.74555 1.28017C4.74731 1.27414 4.74995 1.26897 4.75258 1.26379C4.75873 1.25259 4.77806 1.25172 4.78334 1.26379C4.79388 1.28707 4.80354 1.31121 4.81145 1.33621C4.82551 1.38103 4.83869 1.42586 4.85187 1.47069C4.85363 1.47759 4.85626 1.48534 4.85978 1.49224C4.87384 1.52241 4.8958 1.53966 4.93183 1.53879C5.00475 1.53707 5.0768 1.53707 5.14973 1.53621C5.15764 1.53621 5.16555 1.53448 5.17258 1.53621C5.17785 1.53707 5.18488 1.54052 5.18663 1.54569C5.18839 1.55 5.18663 1.55776 5.18312 1.56207C5.17785 1.56897 5.16994 1.575 5.16291 1.58017C5.10668 1.62241 5.05044 1.66466 4.99245 1.70517C4.96346 1.725 4.95731 1.74914 4.96697 1.78017C4.98015 1.82069 4.99421 1.86034 5.00563 1.90172C5.0153 1.93707 5.02145 1.97241 5.03551 2.00603C5.03726 2.01034 5.03551 2.01466 5.03551 2.01983C5.03551 2.02759 5.02584 2.03448 5.01969 2.0319C5.01003 2.02759 4.99948 2.02328 4.9907 2.0181C4.94149 1.98362 4.89317 1.94914 4.84396 1.91465C4.8299 1.90517 4.81585 1.89569 4.80179 1.88621C4.7807 1.87241 4.75873 1.87155 4.73677 1.88621C4.7315 1.88965 4.72622 1.8931 4.72183 1.89655C4.66648 1.93534 4.612 1.975 4.55665 2.01379C4.54698 2.02069 4.53644 2.02759 4.52501 2.03276C4.52062 2.03534 4.51096 2.03534 4.50832 2.03276C4.50393 2.02759 4.50041 2.01897 4.50217 2.01293C4.51008 1.9819 4.52062 1.95172 4.52941 1.92155C4.54171 1.88276 4.55313 1.8431 4.56455 1.80431C4.56895 1.78966 4.57246 1.775 4.57334 1.75948C4.5751 1.73879 4.56807 1.72069 4.5505 1.70776C4.51447 1.6819 4.47845 1.65603 4.44154 1.63017C4.41694 1.61207 4.39146 1.59397 4.36686 1.57586C4.36071 1.57155 4.35544 1.56552 4.35104 1.55948C4.34489 1.55172 4.35104 1.53966 4.35983 1.53879C4.36422 1.53879 4.36862 1.53793 4.37389 1.53793C4.41255 1.53793 4.45121 1.53793 4.48987 1.53793V1.53966C4.52677 1.53966 4.56368 1.53879 4.60146 1.53966L4.60321 1.53707ZM4.16829 2.81034C4.1841 2.86465 4.20343 2.91724 4.21485 2.97241C4.21749 2.98707 4.2254 3.00086 4.22979 3.01552C4.23067 3.01983 4.22803 3.02845 4.22452 3.03103C4.221 3.03362 4.2131 3.0319 4.20695 3.0319C4.20519 3.0319 4.20431 3.03103 4.20255 3.03017C4.17971 3.01466 4.15598 3 4.13402 2.98362C4.09272 2.95431 4.0523 2.92414 4.01101 2.89483C3.97586 2.86983 3.9495 2.87069 3.91348 2.89655C3.85373 2.93965 3.7931 2.9819 3.73336 3.02414C3.72721 3.02845 3.72018 3.03103 3.71315 3.03362C3.70612 3.03621 3.69645 3.02845 3.69645 3.02155C3.69645 3.01293 3.69821 3.00345 3.70085 2.99483C3.71578 2.94224 3.73072 2.88965 3.74566 2.83793C3.74917 2.825 3.75444 2.81207 3.75796 2.79914C3.76147 2.78793 3.76587 2.77586 3.7685 2.76465C3.7729 2.74397 3.76762 2.72586 3.74917 2.71207C3.74214 2.7069 3.73511 2.7 3.72809 2.69483C3.678 2.65862 3.62792 2.62328 3.57872 2.58707C3.56905 2.58017 3.55851 2.57241 3.5506 2.56379C3.54621 2.55862 3.54181 2.54914 3.54357 2.54397C3.54533 2.53879 3.55411 2.53362 3.56114 2.53276C3.5752 2.53103 3.58926 2.53276 3.60244 2.53276C3.63143 2.53276 3.66131 2.53276 3.6903 2.53276V2.53448C3.72545 2.53448 3.76147 2.53448 3.79662 2.53448C3.80716 2.53448 3.81859 2.53448 3.82913 2.53276C3.84846 2.52845 3.86164 2.51724 3.86779 2.49828C3.89151 2.42586 3.91612 2.35431 3.93984 2.28276C3.9416 2.27672 3.94335 2.27155 3.94687 2.26638C3.95302 2.25517 3.97147 2.25603 3.97762 2.26638C3.98113 2.27155 3.98289 2.27759 3.98553 2.28276C4.01013 2.35345 4.03385 2.42328 4.05758 2.49397C4.069 2.52672 4.07954 2.53534 4.11469 2.53534C4.19201 2.53534 4.26933 2.53448 4.34665 2.53362C4.35983 2.53362 4.3774 2.52759 4.3818 2.54569C4.38531 2.55948 4.37213 2.56724 4.36247 2.57414C4.3115 2.61121 4.26054 2.64828 4.20958 2.68534C4.14544 2.7319 4.14544 2.73621 4.16741 2.81121L4.16829 2.81034ZM3.54357 0.543965C3.54533 0.538793 3.55324 0.531897 3.55939 0.531034C3.57257 0.52931 3.58662 0.530172 3.60068 0.530172C3.63143 0.530172 3.66219 0.530172 3.69294 0.530172C3.72809 0.531034 3.76411 0.531034 3.79926 0.531034C3.84319 0.531034 3.85549 0.522414 3.86955 0.481034C3.89063 0.416379 3.9126 0.351724 3.93369 0.287069C3.93632 0.278448 3.93896 0.268965 3.94511 0.262069C3.9495 0.256897 3.95829 0.251724 3.96356 0.252586C3.96971 0.252586 3.97762 0.259483 3.98026 0.265517C3.98992 0.290517 3.99871 0.317241 4.00662 0.343103C4.02507 0.397414 4.04352 0.451724 4.06109 0.506897C4.06636 0.521552 4.07603 0.52931 4.09097 0.531034C4.10151 0.531897 4.11293 0.531897 4.12348 0.531897C4.19464 0.531897 4.26582 0.531897 4.33699 0.531897C4.34577 0.531897 4.35544 0.531897 4.36422 0.533621C4.3774 0.536207 4.38267 0.553448 4.37301 0.562069C4.3651 0.568965 4.35544 0.574138 4.34665 0.580172C4.2913 0.621552 4.23682 0.662931 4.18147 0.70431C4.1595 0.72069 4.14983 0.740517 4.15598 0.767241C4.15774 0.775 4.15862 0.781896 4.16126 0.789655C4.17444 0.831896 4.18762 0.873276 4.2008 0.915517C4.21046 0.947414 4.22013 0.97931 4.22803 1.01121C4.22891 1.01638 4.22803 1.02328 4.22364 1.02759C4.21837 1.03448 4.20958 1.03276 4.20255 1.03017C4.19816 1.02845 4.19377 1.02586 4.19025 1.02328C4.15423 0.997414 4.11732 0.972414 4.0813 0.946552C4.05143 0.925 4.02155 0.90431 3.99168 0.882759C3.97147 0.868103 3.95214 0.867241 3.93193 0.880172C3.92314 0.886207 3.91348 0.891379 3.90557 0.898276C3.85197 0.937069 3.79926 0.975862 3.74566 1.01379C3.73599 1.02069 3.72457 1.02672 3.71403 1.0319C3.70524 1.03621 3.69382 1.02759 3.6947 1.01897C3.69558 1.00862 3.69909 0.998276 3.70173 0.987931C3.70612 0.97069 3.71139 0.953448 3.71666 0.935345C3.72896 0.893103 3.74214 0.850862 3.75444 0.809483C3.7562 0.803448 3.75972 0.798276 3.76147 0.793103C3.77641 0.75 3.77114 0.731034 3.73511 0.701724C3.71139 0.682759 3.68679 0.663793 3.66131 0.647414C3.62353 0.621552 3.59102 0.587931 3.5506 0.565517C3.54533 0.562931 3.54181 0.551724 3.54357 0.54569V0.543965ZM2.79848 1.53448C2.85296 1.53448 2.90655 1.53534 2.96015 1.53621C2.97245 1.53621 2.98475 1.53621 2.99705 1.53621C3.0322 1.53448 3.05504 1.51638 3.06383 1.48362C3.08404 1.40862 3.11128 1.33621 3.13764 1.26379C3.13939 1.25948 3.14203 1.25603 3.14467 1.25172C3.14818 1.24655 3.16136 1.24569 3.16487 1.25172C3.17015 1.26034 3.17542 1.26983 3.17805 1.28017C3.20178 1.35086 3.2255 1.42069 3.2501 1.49138C3.25274 1.5 3.25625 1.50862 3.26065 1.51638C3.26592 1.52672 3.27471 1.53276 3.28613 1.53362C3.29667 1.53448 3.30809 1.53448 3.31864 1.53448C3.39156 1.53448 3.46361 1.53448 3.53654 1.53448C3.54533 1.53448 3.55499 1.53448 3.56378 1.53621C3.57081 1.53621 3.57608 1.54828 3.57081 1.55431C3.56202 1.56466 3.55236 1.575 3.54181 1.58276C3.52512 1.59569 3.50579 1.6069 3.48909 1.61897C3.45571 1.6431 3.42232 1.6681 3.38981 1.6931C3.38102 1.69914 3.37223 1.70603 3.36521 1.71379C3.35203 1.72759 3.34588 1.74483 3.35027 1.76379C3.35466 1.78448 3.35993 1.80517 3.36521 1.82586C3.37751 1.8681 3.39156 1.90948 3.40387 1.95172C3.41002 1.97069 3.41529 1.98966 3.41968 2.00862C3.42144 2.01465 3.41968 2.025 3.41617 2.02845C3.41177 2.0319 3.40123 2.03103 3.39508 2.02845C3.38454 2.02328 3.37487 2.01466 3.36521 2.00776C3.30634 1.96638 3.24659 1.925 3.18772 1.88448C3.16487 1.8681 3.14115 1.87069 3.11831 1.88448C3.1104 1.88879 3.10425 1.89569 3.09634 1.90086C3.03747 1.94224 2.9786 1.98362 2.91973 2.025C2.91885 2.025 2.9171 2.02672 2.91534 2.02672C2.90831 2.02672 2.9004 2.02931 2.89425 2.02672C2.89074 2.025 2.88986 2.01638 2.8881 2.01293C2.88986 2.00517 2.89074 1.99914 2.89249 1.9931C2.91358 1.92328 2.93467 1.85431 2.95751 1.78534C2.96806 1.75431 2.96367 1.72845 2.93818 1.70776C2.92852 1.7 2.91885 1.69224 2.90919 1.68534C2.85735 1.64741 2.80463 1.61034 2.75279 1.57241C2.74752 1.56897 2.744 1.56379 2.73961 1.55948C2.7317 1.55 2.7361 1.53621 2.7484 1.53534C2.76509 1.53448 2.78266 1.53448 2.79936 1.53448H2.79848ZM2.53928 2.76638C2.5551 2.81724 2.57003 2.8681 2.58497 2.91897C2.59288 2.94655 2.60166 2.97414 2.60957 3.00172C2.61133 3.00776 2.61309 3.01379 2.61309 3.01983C2.61397 3.02845 2.60254 3.03793 2.59463 3.03362C2.58321 3.02845 2.57355 3.02155 2.563 3.01466C2.50677 2.975 2.44966 2.93534 2.39343 2.89569C2.38991 2.8931 2.38552 2.89052 2.382 2.88793C2.35828 2.86897 2.33456 2.87069 2.30995 2.88793C2.25196 2.93017 2.19222 2.97155 2.13335 3.01293C2.12544 3.0181 2.11929 3.025 2.1105 3.02845C2.10435 3.03103 2.09381 3.03276 2.08941 3.02931C2.08502 3.02672 2.08151 3.01638 2.08239 3.01034C2.0859 2.99138 2.09205 2.97241 2.09732 2.95345C2.10962 2.90948 2.1228 2.86638 2.1351 2.82241C2.1395 2.80603 2.14301 2.78965 2.15004 2.775C2.16058 2.75172 2.15531 2.73362 2.13686 2.7181C2.12632 2.70948 2.11577 2.7 2.10523 2.69138C2.05339 2.65259 2.00155 2.61466 1.94971 2.57586C1.94092 2.56983 1.93302 2.56207 1.92687 2.55431C1.92072 2.54741 1.92687 2.53448 1.93565 2.53276C1.94356 2.5319 1.95059 2.53103 1.9585 2.53103C1.99364 2.53103 2.02967 2.53103 2.06481 2.53103V2.53276C2.09996 2.53276 2.13598 2.53276 2.17113 2.53276C2.22385 2.53103 2.24581 2.51293 2.26075 2.46379C2.27217 2.42586 2.28623 2.38966 2.29941 2.35172C2.30644 2.33017 2.31171 2.30776 2.31962 2.28621C2.32401 2.27241 2.32753 2.25345 2.34686 2.25431C2.36355 2.25431 2.36619 2.27241 2.37058 2.28448C2.38903 2.33448 2.40661 2.38448 2.4233 2.43448C2.42769 2.44741 2.42857 2.46121 2.43209 2.47414C2.44263 2.51724 2.46635 2.53448 2.51204 2.53362C2.56652 2.53276 2.62012 2.53276 2.67459 2.5319C2.6948 2.5319 2.71501 2.53017 2.73434 2.52931C2.74664 2.52931 2.7607 2.52672 2.76597 2.54138C2.77036 2.55603 2.75806 2.56293 2.7484 2.57069C2.71413 2.59655 2.67898 2.62155 2.64472 2.64741C2.61836 2.66638 2.59288 2.68534 2.5674 2.70517C2.55861 2.71207 2.5507 2.71897 2.54367 2.72672C2.53401 2.73793 2.53225 2.75 2.53664 2.76465L2.53928 2.76638ZM1.9295 0.542241C1.93126 0.537931 1.93741 0.533621 1.94268 0.531897C1.94971 0.530172 1.95762 0.531034 1.96553 0.531034C2.0367 0.531034 2.10787 0.531034 2.17816 0.531897C2.23088 0.531897 2.24669 0.518965 2.25987 0.47069C2.27217 0.428448 2.28711 0.387069 2.30029 0.34569C2.3082 0.322414 2.31435 0.299138 2.32226 0.276724C2.32665 0.264655 2.32928 0.247414 2.34686 0.248276C2.36179 0.248276 2.36443 0.263793 2.36794 0.275C2.38903 0.337931 2.41012 0.401724 2.43033 0.464655C2.43209 0.47069 2.43296 0.476724 2.4356 0.481897C2.45054 0.52069 2.46547 0.531034 2.50853 0.531897C2.5797 0.531897 2.65087 0.531897 2.72116 0.531897C2.7317 0.531897 2.74313 0.531897 2.75367 0.533621C2.76246 0.534483 2.76861 0.547414 2.76246 0.555172C2.75806 0.561207 2.75279 0.567241 2.74664 0.571552C2.68689 0.614655 2.62714 0.657759 2.56828 0.700862C2.55949 0.706896 2.55158 0.714655 2.54455 0.722414C2.53489 0.731897 2.53225 0.743103 2.53664 0.756034C2.54719 0.790517 2.55861 0.825 2.56915 0.860345C2.58321 0.908621 2.59639 0.956896 2.60957 1.00431C2.61133 1.01034 2.61221 1.01724 2.61045 1.02241C2.60869 1.02672 2.60166 1.0319 2.59815 1.03103C2.58936 1.02931 2.58058 1.025 2.57355 1.01983C2.51556 0.97931 2.45845 0.938793 2.40045 0.898276C2.35037 0.862931 2.34071 0.862931 2.28975 0.898276C2.23615 0.936207 2.18255 0.974138 2.12807 1.01207C2.11929 1.0181 2.1105 1.02414 2.10084 1.02931C2.09644 1.0319 2.08941 1.03017 2.08239 1.03103C2.07799 1.00517 2.0859 0.983621 2.09293 0.962931C2.11226 0.89569 2.13247 0.82931 2.15356 0.762931C2.15883 0.744828 2.15619 0.730172 2.14125 0.718103C2.13423 0.712069 2.12807 0.706034 2.12017 0.7C2.06569 0.660345 2.01122 0.62069 1.95674 0.581034C1.94795 0.575 1.93917 0.568103 1.93214 0.560345C1.92862 0.556034 1.92599 0.548276 1.92774 0.543965L1.9295 0.542241ZM1.38211 1.53621C1.39177 1.53621 1.40056 1.53621 1.41022 1.53621C1.42165 1.53534 1.43043 1.52845 1.43483 1.5181C1.44098 1.50431 1.44713 1.49052 1.4524 1.47586C1.47349 1.41121 1.49457 1.34569 1.51478 1.28103C1.51742 1.27414 1.52005 1.26724 1.52445 1.26034C1.53148 1.24828 1.54817 1.24914 1.55432 1.26207C1.56135 1.27672 1.56838 1.29224 1.57365 1.30862C1.59386 1.36897 1.61319 1.42931 1.63252 1.49052C1.64306 1.52414 1.65888 1.53621 1.69666 1.53707C1.76959 1.53707 1.84164 1.53707 1.91456 1.53707C1.92072 1.53707 1.92687 1.53707 1.93302 1.53707C1.94356 1.53707 1.95674 1.53534 1.96025 1.54828C1.96289 1.56034 1.95235 1.56724 1.94444 1.57328C1.8926 1.61121 1.83988 1.64828 1.78804 1.68621C1.77486 1.69655 1.76168 1.7069 1.74938 1.7181C1.73181 1.73448 1.72829 1.75345 1.7362 1.77586C1.74499 1.80172 1.75289 1.82759 1.7608 1.85431C1.77398 1.89741 1.78804 1.94138 1.80122 1.98448C1.80473 1.99569 1.80561 2.00862 1.80649 2.01983C1.80649 2.02931 1.79595 2.03534 1.78628 2.03103C1.78189 2.02931 1.7775 2.02759 1.77398 2.025C1.7116 1.98017 1.64921 1.93621 1.58683 1.89138C1.55696 1.86983 1.53235 1.8681 1.50248 1.88965C1.44098 1.93276 1.38035 1.97672 1.31884 2.01983C1.31357 2.02328 1.30918 2.02759 1.30303 2.02931C1.296 2.03103 1.28633 2.03362 1.28194 2.02931C1.27755 2.02586 1.27491 2.01552 1.27667 2.00948C1.29336 1.95 1.31182 1.89052 1.32851 1.83017C1.33554 1.8069 1.34169 1.78362 1.34872 1.76034C1.35311 1.74569 1.34872 1.73276 1.33905 1.72241C1.32675 1.71034 1.31445 1.7 1.30039 1.68966C1.26876 1.66552 1.23801 1.64052 1.2055 1.61724C1.18793 1.60431 1.16947 1.59397 1.1519 1.5819C1.13872 1.57241 1.12379 1.56293 1.12027 1.53707C1.13784 1.53707 1.1519 1.53534 1.16508 1.53534C1.23801 1.53534 1.31006 1.53534 1.38299 1.53621H1.38211ZM0.323341 0.534483C0.332127 0.532759 0.341792 0.531034 0.350579 0.531034C0.385725 0.531034 0.421749 0.531034 0.456895 0.531034C0.49204 0.531034 0.528065 0.531034 0.563211 0.531034C0.599235 0.531034 0.625594 0.516379 0.638774 0.482759C0.644046 0.468965 0.650196 0.45431 0.655468 0.440517C0.669527 0.4 0.682706 0.360345 0.696764 0.319828C0.701158 0.305172 0.704672 0.290517 0.709944 0.275862C0.71258 0.268966 0.716095 0.262069 0.719609 0.256034C0.724881 0.248276 0.738939 0.248276 0.744211 0.256034C0.746847 0.259483 0.749483 0.263793 0.75124 0.268103C0.776721 0.341379 0.802202 0.413793 0.826804 0.487069C0.838226 0.521552 0.847891 0.531034 0.886551 0.531897C0.957722 0.531897 1.02889 0.531897 1.10006 0.531897C1.11236 0.531897 1.12466 0.531896 1.13696 0.532759C1.15102 0.534483 1.1563 0.55 1.14751 0.560345C1.14312 0.564655 1.13872 0.568965 1.13345 0.572414C1.0781 0.612931 1.02274 0.65431 0.966508 0.694828C0.961236 0.698276 0.956843 0.701724 0.951571 0.706034C0.928726 0.724138 0.920819 0.747414 0.929605 0.775C0.941027 0.812931 0.954207 0.85 0.965629 0.887069C0.97793 0.925862 0.988474 0.965517 0.999897 1.00431C1.00078 1.00862 1.00078 1.01293 0.999897 1.0181C0.999897 1.02759 0.988474 1.03534 0.980566 1.03103C0.962115 1.02069 0.943663 1.00948 0.92609 0.997414C0.876886 0.962931 0.828561 0.928448 0.780236 0.893103C0.774085 0.888793 0.767935 0.884483 0.761784 0.880172C0.741575 0.866379 0.722245 0.866379 0.702036 0.881034C0.671284 0.903448 0.639653 0.925862 0.608021 0.947414C0.574633 0.971552 0.541245 0.99569 0.506977 1.01983C0.500827 1.02414 0.493798 1.02759 0.486769 1.03103C0.476225 1.03534 0.463924 1.02586 0.464803 1.01552C0.464803 1.01379 0.464803 1.01207 0.464803 1.01121C0.475346 0.975 0.486769 0.938793 0.497312 0.902586C0.509613 0.858621 0.521914 0.815517 0.534215 0.771552C0.543002 0.741379 0.532458 0.718965 0.506977 0.700862C0.446351 0.656897 0.385725 0.612931 0.325098 0.568103C0.321584 0.565517 0.318069 0.562069 0.315433 0.558621C0.310161 0.551724 0.313676 0.537931 0.322462 0.536207L0.323341 0.534483ZM0.313676 2.5431C0.313676 2.5431 0.322462 2.53448 0.327734 2.53362C0.340035 2.5319 0.352336 2.53362 0.364637 2.53362C0.383089 2.53362 0.40154 2.53362 0.419992 2.53362C0.419992 2.53276 0.419992 2.5319 0.419992 2.53103C0.464803 2.53448 0.508735 2.53793 0.553546 2.54224C0.597478 2.54655 0.619444 2.53534 0.640531 2.49741C0.645803 2.48793 0.651075 2.47845 0.652832 2.4681C0.662497 2.41552 0.681827 2.36638 0.701158 2.31724C0.704672 2.30776 0.705551 2.29655 0.708187 2.28621C0.709944 2.27931 0.711701 2.27069 0.716095 2.26552C0.720488 2.26034 0.728396 2.2569 0.734546 2.25603C0.738939 2.25603 0.74509 2.26207 0.746847 2.26724C0.755634 2.28965 0.76442 2.31293 0.772328 2.33534C0.790779 2.38966 0.808352 2.44483 0.826804 2.49914C0.83559 2.525 0.853163 2.53707 0.883037 2.53707C0.92609 2.53707 0.969144 2.53534 1.01308 2.53448C1.04822 2.53448 1.08425 2.53448 1.11939 2.53448C1.12554 2.53448 1.13169 2.53534 1.13784 2.53707C1.14575 2.53879 1.1519 2.55259 1.14663 2.55948C1.14048 2.5681 1.13257 2.57586 1.12466 2.5819C1.07458 2.61983 1.02362 2.6569 0.972659 2.69397C0.967387 2.69741 0.962115 2.70086 0.957722 2.70431C0.92609 2.72759 0.91994 2.74483 0.929605 2.78276C0.937513 2.81034 0.946299 2.83793 0.955086 2.86552C0.968265 2.90776 0.981445 2.94914 0.993746 2.99138C0.996382 3.00172 0.998139 3.01207 0.999018 3.02241C0.999018 3.03103 0.987596 3.03793 0.978809 3.03448C0.973537 3.0319 0.967387 3.02931 0.962994 3.02586C0.90061 2.9819 0.837347 2.93793 0.775842 2.89224C0.750362 2.87414 0.72576 2.87069 0.698522 2.88793C0.690614 2.8931 0.683585 2.89828 0.675677 2.90345C0.616808 2.94483 0.557939 2.98621 0.498191 3.02759C0.493798 3.03103 0.486769 3.03276 0.481497 3.03448C0.474468 3.03621 0.465681 3.02845 0.465681 3.02155C0.465681 3.01897 0.465681 3.01552 0.465681 3.01293C0.485011 2.94914 0.504341 2.88534 0.523672 2.82155C0.528943 2.80259 0.534215 2.78362 0.538609 2.76465C0.542123 2.74741 0.53773 2.7319 0.523672 2.71897C0.515764 2.71207 0.507856 2.70431 0.49907 2.69828C0.448108 2.66121 0.397147 2.625 0.346186 2.58793C0.336521 2.58103 0.325098 2.57414 0.31719 2.56552C0.312797 2.56121 0.31104 2.55172 0.312797 2.54569L0.313676 2.5431ZM1.13169 4.57931C1.12379 4.58448 1.115 4.58793 1.10797 4.59397C1.05877 4.63103 1.01044 4.6681 0.961236 4.70517C0.955086 4.70948 0.948935 4.71465 0.943663 4.71983C0.930484 4.7319 0.924333 4.74741 0.926969 4.76466C0.927848 4.77241 0.928726 4.78017 0.930484 4.78707C0.941906 4.825 0.954207 4.86207 0.965629 4.9C0.977052 4.93621 0.988474 4.97241 0.999018 5.00862C0.999897 5.01293 1.00078 5.01724 1.00078 5.02241C1.00078 5.03534 0.99111 5.0431 0.979688 5.03793C0.970901 5.03448 0.962994 5.02931 0.955964 5.02414C0.905882 4.98879 0.856678 4.95259 0.806595 4.91638C0.790779 4.90517 0.774085 4.89397 0.756512 4.88362C0.738939 4.87328 0.720488 4.87414 0.704672 4.88621C0.674798 4.90776 0.644924 4.92931 0.615051 4.95086C0.579026 4.97672 0.542123 5.00172 0.50522 5.02759C0.49907 5.0319 0.491162 5.03362 0.484133 5.03534C0.477104 5.03707 0.468317 5.02845 0.468317 5.02241C0.468317 5.01897 0.468317 5.01638 0.468317 5.01379C0.477982 4.97845 0.487647 4.94396 0.498191 4.90862C0.508735 4.87414 0.520157 4.83965 0.530701 4.80431C0.534215 4.79138 0.535973 4.77759 0.535973 4.76379C0.535973 4.73793 0.525429 4.7181 0.502584 4.70259C0.444594 4.66207 0.387482 4.62069 0.33037 4.57931C0.325098 4.57586 0.319826 4.57155 0.31719 4.56724C0.314554 4.56293 0.311918 4.55517 0.313676 4.55086C0.315433 4.54655 0.322462 4.54224 0.327734 4.54052C0.333006 4.53879 0.340035 4.53965 0.346186 4.53965C0.384846 4.53965 0.423506 4.53965 0.462167 4.53965V4.54138C0.496434 4.54138 0.529822 4.54138 0.564089 4.54138C0.57639 4.54138 0.588691 4.54138 0.600992 4.53965C0.614172 4.53793 0.623837 4.5319 0.629109 4.51897C0.639653 4.49052 0.650196 4.46207 0.659861 4.43362C0.669527 4.40517 0.679192 4.37586 0.688857 4.34741C0.696764 4.32414 0.703794 4.30172 0.711701 4.27845C0.713459 4.27328 0.716973 4.26724 0.720488 4.26293C0.72576 4.25603 0.739818 4.25603 0.744211 4.26466C0.747726 4.27155 0.75124 4.27845 0.753876 4.28534C0.7776 4.35259 0.800444 4.41983 0.824168 4.48707C0.826804 4.49569 0.82944 4.50431 0.832954 4.51293C0.841741 4.53103 0.855799 4.54138 0.876008 4.54138C0.883916 4.54138 0.891823 4.54138 0.898852 4.54138C0.97178 4.54138 1.04383 4.54138 1.11676 4.54138C1.12906 4.54138 1.14224 4.53879 1.15014 4.55086C1.15542 4.55862 1.14751 4.57069 1.12994 4.5819L1.13169 4.57931ZM1.80034 4.03103C1.78453 4.0431 1.77222 4.02759 1.75992 4.01897C1.71248 3.98534 1.66503 3.95172 1.6167 3.9181C1.6088 3.91293 1.60177 3.90776 1.59386 3.90259C1.54114 3.86897 1.52884 3.87069 1.47876 3.9069C1.42252 3.94741 1.36541 3.98621 1.30918 4.02586C1.30039 4.0319 1.29161 4.04052 1.28018 4.03362C1.26788 4.02586 1.27491 4.01465 1.27755 4.00517C1.29864 3.93103 1.31972 3.8569 1.34081 3.7819C1.34257 3.775 1.34608 3.76724 1.34696 3.76034C1.3496 3.74741 1.34696 3.73621 1.33817 3.72672C1.33115 3.71897 1.32324 3.71121 1.31445 3.70517C1.25558 3.66121 1.19583 3.6181 1.13696 3.57414C1.13169 3.57069 1.1273 3.56638 1.12291 3.56207C1.115 3.55345 1.11851 3.53879 1.13081 3.53707C1.14136 3.53534 1.1519 3.53448 1.16332 3.53448C1.19847 3.53448 1.23449 3.53448 1.26964 3.53448C1.30654 3.53534 1.34345 3.53448 1.38123 3.53621C1.41286 3.53621 1.4357 3.52672 1.44625 3.49569C1.44888 3.48707 1.45503 3.47931 1.45679 3.47069C1.46821 3.41983 1.48667 3.37241 1.506 3.32414C1.51039 3.31293 1.51127 3.30086 1.51478 3.28879C1.51654 3.2819 1.5183 3.27328 1.52269 3.2681C1.52708 3.26293 1.53411 3.25776 1.54026 3.2569C1.54378 3.2569 1.55168 3.26207 1.55344 3.26724C1.56135 3.28362 1.56926 3.3 1.57541 3.31724C1.59122 3.36034 1.60528 3.40259 1.62022 3.44569C1.62461 3.45862 1.62725 3.47241 1.63076 3.48534C1.64043 3.52155 1.658 3.53621 1.69666 3.53621C1.77047 3.53621 1.84515 3.53621 1.91896 3.53621C1.9295 3.53621 1.94005 3.53621 1.95147 3.53793C1.96025 3.53965 1.96553 3.55345 1.95938 3.56034C1.95235 3.5681 1.94444 3.57586 1.93565 3.5819C1.88293 3.62069 1.82934 3.65948 1.77574 3.69828C1.76695 3.70431 1.75904 3.71121 1.75114 3.7181C1.73181 3.73534 1.72829 3.7569 1.7362 3.78017C1.73971 3.79138 1.74586 3.80259 1.74938 3.81379C1.76695 3.87328 1.78453 3.93276 1.8021 3.9931C1.80561 4.00603 1.8144 4.02155 1.8021 4.03103H1.80034ZM2.76773 4.55776C2.7607 4.56552 2.75455 4.57414 2.74576 4.58103C2.69568 4.6181 2.64384 4.65517 2.59376 4.69224C2.58058 4.70259 2.5674 4.71293 2.5551 4.72414C2.54192 4.73707 2.53752 4.75259 2.54279 4.76983C2.54982 4.79483 2.55597 4.81983 2.56388 4.84397C2.57618 4.88276 2.58936 4.92155 2.60079 4.96121C2.60606 4.98017 2.61045 4.99914 2.61309 5.01897C2.61309 5.02328 2.61045 5.0319 2.60606 5.03362C2.60166 5.03621 2.59463 5.03362 2.58848 5.03362C2.58585 5.03362 2.58321 5.03103 2.58058 5.02931C2.52171 4.98793 2.46284 4.94655 2.40397 4.90431C2.39782 4.9 2.39167 4.89483 2.38552 4.89052C2.3574 4.87155 2.33719 4.87155 2.30908 4.89138C2.27305 4.91724 2.23703 4.94396 2.201 4.96897C2.17113 4.99052 2.14038 5.01034 2.10962 5.03103C2.10611 5.03362 2.10084 5.03621 2.09644 5.03534C2.09117 5.03362 2.08414 5.03017 2.08326 5.02586C2.08151 5.01897 2.08326 5.01034 2.08502 5.00345C2.09908 4.95517 2.11314 4.90776 2.1272 4.85948C2.13686 4.82759 2.14653 4.79569 2.15619 4.76379C2.16058 4.74914 2.15619 4.73621 2.14565 4.72672C2.13071 4.71379 2.11577 4.7 2.09996 4.68793C2.07184 4.66638 2.04373 4.64569 2.01473 4.62586C1.99716 4.61293 1.97958 4.60172 1.96113 4.58965C1.95235 4.58362 1.94356 4.57759 1.93477 4.57069C1.92774 4.56465 1.92072 4.55776 1.92335 4.54741C1.92687 4.53707 1.93653 4.53621 1.9462 4.53621C1.98046 4.53621 2.01385 4.53707 2.04812 4.53793C2.05778 4.53793 2.06657 4.53793 2.07624 4.53793C2.11665 4.53793 2.15619 4.53793 2.19661 4.53793C2.22209 4.53793 2.23791 4.52759 2.24757 4.50603C2.25196 4.49655 2.25548 4.48621 2.25899 4.47672C2.27393 4.43362 2.28887 4.39052 2.30293 4.34741C2.30995 4.32586 2.3161 4.30345 2.32313 4.2819C2.32665 4.27069 2.33016 4.2569 2.34598 4.25603C2.36179 4.25603 2.36531 4.26897 2.3697 4.28017C2.38112 4.31207 2.39167 4.3431 2.40133 4.375C2.41276 4.40948 2.4233 4.44396 2.43384 4.47931C2.4356 4.48534 2.43912 4.49052 2.44087 4.49569C2.45142 4.52759 2.47338 4.53879 2.50765 4.53793C2.58321 4.53534 2.65878 4.53621 2.73434 4.53621C2.74225 4.53621 2.75015 4.53621 2.75718 4.53793C2.76421 4.53879 2.77036 4.55 2.76509 4.55603L2.76773 4.55776ZM3.41792 4.0319C3.41265 4.03879 3.40299 4.03793 3.39684 4.03362C3.37136 4.01638 3.34588 3.99914 3.32039 3.9819C3.28437 3.95603 3.24922 3.92845 3.21232 3.90431C3.14642 3.86034 3.15521 3.86638 3.10337 3.90172C3.04801 3.93965 2.99354 3.98017 2.93818 4.01897C2.925 4.02845 2.91183 4.04655 2.89425 4.0319C2.88019 4.02069 2.89074 4.00345 2.89425 3.98965C2.90919 3.93707 2.925 3.88534 2.94082 3.83276C2.94609 3.81552 2.95312 3.79828 2.95927 3.78103C2.96894 3.75345 2.96279 3.73017 2.93994 3.71207C2.93379 3.70776 2.92764 3.70259 2.92149 3.69828L2.76158 3.5819C2.76158 3.5819 2.75367 3.57672 2.75015 3.57414C2.74137 3.56724 2.73258 3.55948 2.7361 3.54741C2.73961 3.53448 2.75191 3.53448 2.76246 3.53448C2.80287 3.53448 2.84241 3.53448 2.88283 3.53448C2.91534 3.53448 2.94785 3.53448 2.98036 3.53448C2.99002 3.53448 2.99881 3.53534 3.00848 3.53448C3.03659 3.53362 3.05153 3.52241 3.06032 3.49655C3.08052 3.43448 3.09985 3.37241 3.12094 3.31034C3.12709 3.2931 3.135 3.27672 3.14291 3.26034C3.14554 3.25603 3.15257 3.25 3.15697 3.25086C3.16312 3.25172 3.16927 3.25776 3.17542 3.26207C3.17718 3.26379 3.17893 3.26724 3.17893 3.27069C3.18157 3.30948 3.20002 3.3431 3.21232 3.37931C3.22638 3.42241 3.23604 3.46724 3.25889 3.50776C3.2668 3.52241 3.27822 3.53103 3.29491 3.53276C3.30721 3.53362 3.31952 3.53448 3.33182 3.53448C3.39859 3.53448 3.46449 3.53448 3.53127 3.53448C3.53566 3.53448 3.54093 3.53448 3.54533 3.53448C3.55763 3.53448 3.57257 3.5319 3.57784 3.54569C3.58399 3.56293 3.56817 3.5681 3.55675 3.57586C3.497 3.61897 3.43813 3.66293 3.37926 3.7069C3.35466 3.72586 3.34675 3.74914 3.35554 3.77931C3.37048 3.82845 3.38366 3.87845 3.39859 3.92845C3.40738 3.95776 3.41617 3.98621 3.42407 4.01552C3.42583 4.02069 3.42407 4.02759 3.41968 4.0319H3.41792ZM4.3818 4.56034C4.37828 4.56465 4.37389 4.56983 4.36862 4.57328C4.31326 4.61466 4.25791 4.65517 4.20167 4.69569C4.19464 4.70086 4.18674 4.70603 4.17971 4.71207C4.16214 4.72672 4.15335 4.74569 4.15774 4.76897C4.15862 4.77672 4.16038 4.78362 4.16214 4.79138C4.17268 4.82759 4.18234 4.86465 4.19377 4.90086C4.20519 4.93879 4.21749 4.97586 4.22891 5.01379C4.22979 5.01638 4.22979 5.01983 4.22979 5.02241C4.23067 5.03448 4.21925 5.04397 4.2087 5.03879C4.1964 5.03276 4.18498 5.025 4.17356 5.01724C4.12611 4.98362 4.07866 4.94914 4.03122 4.91552C4.02155 4.90862 4.01013 4.90259 4.00046 4.89483C3.97498 4.87586 3.9495 4.87672 3.92314 4.8931C3.90909 4.90259 3.89503 4.91207 3.88097 4.92155C3.83089 4.95776 3.78168 4.9931 3.7316 5.02931C3.72633 5.03276 3.72106 5.03534 3.71578 5.03793C3.7026 5.04396 3.6903 5.03448 3.69294 5.01983C3.69382 5.01379 3.6947 5.00776 3.69733 5.00259C3.71842 4.9569 3.72369 4.90603 3.74039 4.85862C3.74654 4.84138 3.75093 4.82414 3.7562 4.8069C3.75884 4.79828 3.76147 4.78965 3.76411 4.78103C3.77202 4.75345 3.76499 4.73103 3.74127 4.71293C3.72281 4.69914 3.70524 4.68362 3.68679 4.67069C3.64461 4.63966 3.60156 4.61034 3.55939 4.57931C3.55411 4.57586 3.54884 4.57241 3.54533 4.5681C3.54181 4.56379 3.53918 4.5569 3.54006 4.55172C3.54093 4.54741 3.54796 4.54224 3.55324 4.54052C3.56378 4.53879 3.57432 4.53879 3.58575 4.53879C3.62001 4.53879 3.6534 4.53879 3.68767 4.53879C3.72193 4.53966 3.75532 4.53965 3.78959 4.53965C3.7975 4.53965 3.80541 4.53965 3.81243 4.53965C3.83879 4.53965 3.85637 4.52672 3.86427 4.50172C3.88185 4.45 3.89854 4.39828 3.91611 4.34655C3.9249 4.32069 3.93369 4.29483 3.94335 4.26983C3.94599 4.26465 3.95478 4.25776 3.96005 4.25776C3.96532 4.25776 3.97498 4.26379 3.97674 4.26983C3.98553 4.29224 3.99256 4.31552 4.00046 4.33879C4.01013 4.36724 4.01979 4.39655 4.02946 4.425C4.03825 4.44914 4.04703 4.47328 4.05582 4.49741C4.06636 4.52672 4.08745 4.53966 4.11996 4.53879C4.16829 4.53793 4.21573 4.53793 4.26406 4.53707C4.29217 4.53707 4.31941 4.53707 4.34753 4.53707C4.35544 4.53707 4.36334 4.53707 4.37037 4.53965C4.37916 4.54138 4.38443 4.55431 4.37916 4.56121L4.3818 4.56034ZM5.18839 3.55776C5.18224 3.56552 5.17433 3.57328 5.16555 3.58017C5.11458 3.61724 5.06362 3.65431 5.01266 3.69052C5.00739 3.69397 5.00212 3.69741 4.99773 3.70086C4.95906 3.73103 4.95467 3.74914 4.96961 3.79569C4.9863 3.84741 5.00036 3.9 5.01618 3.95259C5.02057 3.96552 5.02584 3.97845 5.03024 3.99138C5.03287 4 5.03551 4.00862 5.03639 4.01724C5.03814 4.03017 5.02408 4.03966 5.0109 4.03362C5.00388 4.03017 4.99773 4.02586 4.99157 4.02155C4.92656 3.97586 4.86154 3.92931 4.79652 3.88362C4.7807 3.87241 4.76576 3.87069 4.74907 3.88103C4.74028 3.88621 4.72974 3.89138 4.72183 3.89741C4.66208 3.93965 4.60146 3.9819 4.54171 4.025C4.53819 4.02759 4.53468 4.0319 4.53029 4.0319C4.52326 4.03362 4.51359 4.03534 4.5092 4.0319C4.50481 4.02845 4.50129 4.0181 4.50305 4.01207C4.52238 3.94569 4.54347 3.87845 4.5628 3.81207C4.56631 3.80172 4.56719 3.79138 4.5707 3.78103C4.58213 3.74741 4.5707 3.72241 4.54259 3.70172C4.52677 3.69052 4.51008 3.67845 4.49426 3.66638C4.44945 3.63362 4.40552 3.60086 4.36071 3.5681C4.35719 3.56552 4.35368 3.56207 4.35104 3.55862C4.34577 3.55172 4.34929 3.53793 4.35807 3.53534C4.36686 3.53362 4.37652 3.5319 4.38531 3.5319C4.42221 3.5319 4.45912 3.5319 4.49602 3.5319C4.49602 3.5319 4.49602 3.5319 4.49602 3.53276C4.53029 3.53276 4.56368 3.53276 4.59794 3.53276C4.60849 3.53276 4.61991 3.53276 4.63045 3.53276C4.65066 3.5319 4.66472 3.52241 4.67087 3.50172C4.68756 3.45172 4.70426 3.40086 4.72095 3.35086C4.72974 3.325 4.73853 3.29914 4.74731 3.27328C4.74731 3.27155 4.74819 3.26983 4.74907 3.26897C4.75522 3.26465 4.76137 3.25776 4.76752 3.25776C4.77367 3.25776 4.78334 3.26293 4.78509 3.26897C4.80267 3.31465 4.81848 3.36034 4.8343 3.40603C4.84308 3.4319 4.85099 3.45776 4.8589 3.48448C4.86944 3.51724 4.89229 3.53448 4.92743 3.53534C4.93798 3.53534 4.9494 3.53534 4.95994 3.53534C5.02672 3.53534 5.09262 3.53448 5.1594 3.53362C5.16555 3.53362 5.1717 3.53362 5.17785 3.53534C5.18663 3.53707 5.19278 3.55 5.18751 3.5569L5.18839 3.55776Z" fill="#C11238"/>
<path d="M5.50031 0.00429519V5.98619C4.69371 5.98619 3.88712 5.98619 3.08053 5.98619C2.12192 5.98619 1.16332 5.98619 0.204724 5.98619C0.170457 5.98619 0.137068 5.98792 0.102801 5.98792C0.0808352 5.98792 0.0597478 5.98792 0.0377817 5.98361C0.0149369 5.98016 0.00615051 5.96895 0.00351458 5.94654C0.00263593 5.93792 0.00351458 5.92843 0.00351458 5.91895C0.00351458 5.77671 0.00351458 5.63361 0.00351458 5.49136C0.00351458 4.07154 0.00175729 2.64998 0 1.22843C0 0.83964 0 0.451709 0 0.0629159C0 0.0198124 0 0.00170898 0.0606264 0.00170898C0.34355 0.00257105 0.626473 0.00343312 0.909396 0.00343312C0.982324 0.00343312 1.05437 0.00343312 1.1273 0.00343312C2.07975 0.00343312 3.0322 0.00343312 3.98465 0.00343312C4.44682 0.00343312 4.90898 0.00343312 5.37115 0.00343312C5.4142 0.00343312 5.45726 0.00343312 5.50031 0.00343312V0.00429519Z" fill="#022869"/>
<path d="M8.50439 8.68803C7.4096 8.68803 6.31481 8.68803 5.2209 8.68803C4.33787 8.68803 3.45571 8.68803 2.57267 8.68803C1.7731 8.68803 0.974417 8.68803 0.174851 8.68803C0.146735 8.68803 0.119497 8.68803 0.0913803 8.68803C0.0790792 8.68803 0.0667782 8.68803 0.0544772 8.68631C0.0175742 8.68114 0.00439453 8.66648 0.00439453 8.62855C0.00439453 8.53717 0.00439453 8.44665 0.00439453 8.35528C0.00439453 8.257 0.00439453 8.15786 0.00439453 8.05959C0.00439453 8.05183 0.00439453 8.04407 0.00439453 8.03717C0.00615182 8.007 0.0184528 7.99321 0.0492054 7.9889C0.0615064 7.98717 0.0738074 7.98803 0.0861084 7.98803C0.271502 7.98803 0.456896 7.98803 0.64229 7.98803C0.748606 7.98803 0.8558 7.98803 0.962116 7.98803C2.29326 7.98803 3.62441 7.98803 4.95555 7.98803C5.79993 7.98803 6.64343 7.98803 7.4878 7.98803C7.55897 7.98803 7.63014 7.99148 7.70131 7.99148C7.74788 7.99148 7.79357 7.99062 7.84014 7.98976C7.8911 7.98976 7.94206 7.98803 7.99302 7.98803C9.3145 7.98803 10.6369 7.98803 11.9583 7.98803C12.8106 7.98803 13.662 7.98803 14.5143 7.98803C14.5758 7.98803 14.6382 7.99062 14.6997 7.99062C14.7445 7.99062 14.7893 7.9889 14.8341 7.9889C15.4852 7.9889 16.1363 7.9889 16.7865 7.9889C16.8295 7.9889 16.8735 7.98717 16.9165 7.98803C16.935 7.98803 16.9534 7.99148 16.971 7.99579C16.9886 8.00097 16.9982 8.01476 16.9982 8.03372C16.9982 8.04148 16.9982 8.04924 16.9982 8.05614C16.9982 8.24752 16.9982 8.43803 16.9982 8.62941C16.9982 8.63545 16.9982 8.64148 16.9982 8.64752C16.9956 8.66734 16.9842 8.68114 16.9631 8.68459C16.9482 8.68717 16.9323 8.68717 16.9165 8.68717C16.7355 8.68717 16.5545 8.68545 16.3735 8.68545C14.9607 8.68545 13.5469 8.68631 12.1341 8.68717C11.2994 8.68717 10.4646 8.68717 9.62906 8.68717C9.253 8.68717 8.87782 8.68717 8.50176 8.68717L8.50439 8.68803Z" fill="#C11238"/>
<path d="M8.49893 6.62417C10.1473 6.62417 11.7956 6.62417 13.4431 6.62417C13.5344 6.62417 13.6258 6.62675 13.7163 6.62675C13.7831 6.62675 13.849 6.62417 13.9158 6.62417C14.616 6.62417 15.3163 6.62417 16.0166 6.62417C16.3136 6.62417 16.6106 6.62417 16.9067 6.62417C16.9251 6.62417 16.9436 6.62417 16.962 6.62675C16.9849 6.6302 16.9937 6.64055 16.9963 6.66296C16.9972 6.67158 16.9963 6.68107 16.9963 6.69055C16.9963 6.88193 16.9963 7.07244 16.9963 7.26382C16.9963 7.26813 16.9963 7.27331 16.9963 7.27762C16.9954 7.3052 16.9893 7.3121 16.962 7.31727C16.9471 7.31986 16.9313 7.32072 16.9163 7.32072C15.7811 7.32072 14.6468 7.32072 13.5116 7.32072C12.6593 7.32072 11.8079 7.32072 10.9556 7.32072C10.4003 7.32072 9.84589 7.32072 9.29058 7.32072C7.56844 7.32072 5.8463 7.32072 4.12328 7.32072C3.271 7.32072 2.41959 7.32072 1.56731 7.32072C1.08845 7.32072 0.608706 7.32072 0.129845 7.32072C0.109636 7.32072 0.0894271 7.32158 0.0692183 7.32072C0.0542814 7.32072 0.0384658 7.31813 0.0235289 7.31469C0.0121065 7.3121 0.00507734 7.30348 0.00332005 7.29227C0.00244141 7.28365 0.00244141 7.27417 0.00244141 7.26469C0.00244141 7.069 0.00244141 6.87331 0.00244141 6.67762C0.00244141 6.67158 0.00244141 6.66555 0.00244141 6.65951C0.00419869 6.63796 0.0112278 6.62934 0.0331939 6.62675C0.0534027 6.62417 0.0736116 6.62417 0.0929417 6.62331C0.153568 6.62331 0.213316 6.62331 0.273942 6.62331C1.58488 6.62331 2.89582 6.62331 4.20763 6.62331C4.97732 6.62331 5.74789 6.62331 6.51759 6.62331C6.60281 6.62331 6.68804 6.62589 6.77239 6.62589C7.3479 6.62503 7.92254 6.62331 8.49805 6.62158C8.49805 6.62158 8.49805 6.62244 8.49805 6.62331L8.49893 6.62417Z" fill="#C11238"/>
<path d="M8.49822 9.99834C6.8903 9.99834 5.28238 9.99834 3.67447 9.99834C2.83975 9.99834 2.00504 9.99834 1.17033 9.99834C0.836446 9.99834 0.502561 9.99834 0.168676 9.99834C0.128259 9.99834 0.0887199 9.99834 0.0483022 9.99834C0.0421517 9.99834 0.0360012 9.99834 0.0298507 9.99834C0.0157924 9.99662 0.00700598 9.98972 0.0052487 9.97593C0.00349141 9.96731 0.00437005 9.95782 0.00437005 9.94834C0.00437005 9.75869 0.00437005 9.56903 0.00437005 9.37938C0.00437005 9.37334 0.00437005 9.36731 0.00437005 9.36127C0.00612734 9.34317 0.0140351 9.33282 0.031608 9.32938C0.046545 9.32679 0.0623605 9.32593 0.0772975 9.32593C0.118594 9.32593 0.160769 9.32593 0.202944 9.32593C2.1465 9.32593 4.08919 9.32593 6.03275 9.32593C8.355 9.32593 10.6773 9.32593 12.9986 9.32593C13.8044 9.32593 14.6092 9.32593 15.4149 9.32679C15.5168 9.32679 15.6187 9.32938 15.7207 9.33024C15.7637 9.33024 15.8068 9.32679 15.8507 9.32679C16.2066 9.32679 16.5615 9.32679 16.9174 9.32679C16.9341 9.32679 16.9517 9.32679 16.9683 9.32851C16.9894 9.3311 16.9982 9.34144 16.9991 9.36127C16.9991 9.36903 16.9991 9.37679 16.9991 9.38369C16.9991 9.56731 16.9991 9.75093 16.9991 9.93455C16.9991 9.99748 16.9991 9.99748 16.935 9.99748C16.5967 9.99748 16.2575 9.99748 15.9192 9.99748C14.8868 9.99748 13.8536 9.99748 12.8211 9.99748C12.0541 9.99748 11.2879 9.99748 10.5209 9.99748C9.84694 9.99748 9.17302 9.99748 8.4991 9.99748L8.49822 9.99834Z" fill="#C11238"/>
<path d="M2.88298 3.5337C2.91549 3.5337 2.948 3.5337 2.98051 3.5337C2.99017 3.5337 2.99896 3.53457 3.00862 3.5337C3.03674 3.53284 3.05168 3.52163 3.06046 3.49577C3.08067 3.4337 3.1 3.37163 3.12109 3.30957C3.12724 3.29232 3.13515 3.27595 3.14306 3.25957C3.14569 3.25526 3.15272 3.24922 3.15711 3.25008C3.16326 3.25095 3.16941 3.25698 3.17556 3.26129C3.17732 3.26301 3.17908 3.26646 3.17908 3.26991C3.18172 3.3087 3.20017 3.34232 3.21247 3.37853C3.22653 3.42163 3.23619 3.46646 3.25816 3.50612C3.26607 3.52077 3.27749 3.52939 3.29418 3.53112C3.30648 3.53198 3.31878 3.53284 3.33108 3.53284C3.39786 3.53284 3.46376 3.53284 3.53054 3.53284C3.53493 3.53284 3.5402 3.53284 3.5446 3.53284C3.5569 3.53284 3.57183 3.53026 3.57711 3.54405C3.58326 3.56129 3.56744 3.56646 3.55602 3.57422C3.49627 3.61732 3.4374 3.66129 3.37853 3.70526C3.35393 3.72336 3.34602 3.7475 3.35481 3.77767C3.36975 3.82681 3.38292 3.87681 3.39786 3.92595C3.40665 3.95526 3.41543 3.9837 3.42334 4.01301C3.4251 4.01819 3.42334 4.02508 3.41895 4.02939C3.41368 4.03629 3.40401 4.03543 3.39786 4.03112C3.37238 4.01388 3.3469 3.99663 3.32142 3.97939C3.2854 3.95353 3.25025 3.92594 3.21335 3.90181C3.14833 3.8587 3.15623 3.86388 3.10439 3.89922C3.04904 3.93715 2.99456 3.97767 2.93921 4.01646C2.92603 4.02595 2.91285 4.04405 2.89528 4.02939C2.88122 4.01819 2.89176 4.00095 2.89528 3.98715C2.91021 3.93457 2.92603 3.88284 2.94185 3.83026C2.94712 3.81301 2.95415 3.79577 2.9603 3.77853C2.96996 3.75095 2.96381 3.72767 2.94097 3.70957C2.93482 3.70439 2.92867 3.70008 2.92252 3.69577C2.86892 3.65698 2.81532 3.61819 2.7626 3.57939C2.75909 3.57681 2.75469 3.57422 2.75118 3.57163C2.74239 3.56474 2.73361 3.55698 2.73712 3.54491C2.74064 3.53198 2.75294 3.53198 2.76348 3.53198C2.8039 3.53198 2.84344 3.53198 2.88386 3.53198L2.88298 3.5337Z" fill="white"/>
<path d="M3.68933 4.53873C3.7236 4.53873 3.75699 4.53873 3.79126 4.53873C3.79917 4.53873 3.80707 4.53873 3.8141 4.53873C3.84046 4.53873 3.85803 4.5258 3.86594 4.5008C3.88351 4.44908 3.90021 4.39735 3.91778 4.34563C3.92657 4.31977 3.93535 4.2939 3.94502 4.2689C3.94766 4.26287 3.95644 4.25684 3.96171 4.25684C3.96786 4.25684 3.97665 4.26287 3.97841 4.2689C3.98719 4.29132 3.99422 4.31459 4.00213 4.33787C4.0118 4.36632 4.02146 4.39563 4.03113 4.42408C4.03991 4.44822 4.0487 4.47235 4.05749 4.49649C4.06803 4.5258 4.08912 4.53873 4.12163 4.53787C4.16907 4.53701 4.2174 4.53701 4.26572 4.53615C4.29384 4.53615 4.32108 4.53615 4.3492 4.53615C4.3571 4.53615 4.36501 4.53615 4.37204 4.53873C4.38083 4.54046 4.3861 4.55339 4.38083 4.56028C4.37731 4.56459 4.37292 4.56977 4.36765 4.57322C4.31229 4.61459 4.25694 4.65511 4.20071 4.69563C4.19368 4.7008 4.18577 4.70597 4.17874 4.71201C4.16117 4.72666 4.15238 4.74563 4.15677 4.7689C4.15765 4.77666 4.15941 4.78356 4.16117 4.79132C4.17171 4.82753 4.18138 4.86459 4.1928 4.9008C4.20422 4.93873 4.21652 4.9758 4.22882 5.01373C4.2297 5.01632 4.2297 5.01977 4.2297 5.02235C4.23058 5.03442 4.21916 5.0439 4.20861 5.03873C4.19631 5.0327 4.18489 5.02494 4.17347 5.01718C4.12602 4.98356 4.07857 4.94908 4.03113 4.91546C4.02146 4.90856 4.01004 4.90253 4.00037 4.89477C3.97489 4.8758 3.94941 4.87666 3.92305 4.89304C3.909 4.90253 3.89494 4.91201 3.88088 4.92149C3.8308 4.9577 3.78159 4.99304 3.73151 5.02925C3.72624 5.0327 3.72097 5.03528 3.71569 5.03787C3.70251 5.0439 3.69109 5.03442 3.69285 5.01977C3.69285 5.01373 3.69461 5.0077 3.69724 5.00253C3.71833 4.95684 3.7236 4.90597 3.7403 4.85856C3.74645 4.84132 3.75084 4.82408 3.75611 4.80684C3.75875 4.79821 3.76138 4.78959 3.76402 4.78097C3.77193 4.75339 3.7649 4.73097 3.74117 4.71287C3.72272 4.69908 3.70515 4.68356 3.6867 4.67063C3.64452 4.63959 3.60235 4.61028 3.5593 4.58011C3.55402 4.57666 3.54875 4.57322 3.54524 4.5689C3.54172 4.56459 3.53909 4.5577 3.53997 4.55253C3.54084 4.54822 3.54787 4.54304 3.55314 4.54132C3.56369 4.53959 3.57423 4.53959 3.58565 4.53959C3.61992 4.53959 3.65331 4.53959 3.68758 4.53959L3.68933 4.53873Z" fill="white"/>
<path d="M2.07806 4.53873C2.11848 4.53873 2.15802 4.53873 2.19843 4.53873C2.22391 4.53873 2.23973 4.52839 2.2494 4.50684C2.25379 4.49735 2.2573 4.48701 2.26082 4.47753C2.27575 4.43442 2.29069 4.39132 2.30475 4.34822C2.31178 4.32666 2.31793 4.30425 2.32496 4.2827C2.32847 4.27149 2.33199 4.2577 2.3478 4.25684C2.36362 4.25684 2.36713 4.26977 2.37153 4.28097C2.38295 4.31201 2.39349 4.3439 2.40404 4.3758C2.41546 4.41028 2.426 4.44477 2.43655 4.48011C2.4383 4.48615 2.44182 4.49132 2.44358 4.49649C2.45412 4.52839 2.47609 4.53959 2.51035 4.53873C2.58592 4.53615 2.66148 4.53701 2.73704 4.53701C2.74495 4.53701 2.75286 4.53701 2.75989 4.53873C2.76692 4.53959 2.77307 4.5508 2.76779 4.55684C2.76077 4.56459 2.75462 4.57322 2.74583 4.58011C2.69575 4.61718 2.64391 4.65425 2.59382 4.69132C2.58064 4.70166 2.56746 4.71201 2.55516 4.72322C2.54198 4.73528 2.53759 4.75166 2.54286 4.7689C2.54989 4.7939 2.55604 4.8189 2.56395 4.84304C2.57625 4.88184 2.58855 4.92063 2.60085 4.96028C2.60612 4.97925 2.61052 4.99822 2.61315 5.01804C2.61315 5.02322 2.61052 5.03097 2.60612 5.0327C2.60173 5.03528 2.5947 5.03356 2.58855 5.0327C2.58592 5.0327 2.58328 5.03011 2.58064 5.02839C2.52177 4.98701 2.46291 4.94563 2.40404 4.90339C2.39789 4.89908 2.39174 4.8939 2.38558 4.88959C2.35747 4.87063 2.33726 4.87063 2.30914 4.89046C2.27312 4.91632 2.23709 4.94304 2.20107 4.96804C2.1712 4.98959 2.14044 5.00942 2.10969 5.03011C2.10618 5.0327 2.1009 5.03528 2.09651 5.03442C2.09124 5.0327 2.08421 5.02925 2.08333 5.02494C2.08157 5.01804 2.08333 5.00942 2.08509 5.00253C2.09915 4.95425 2.11321 4.90684 2.12726 4.85856C2.13693 4.82666 2.14659 4.79477 2.15626 4.76287C2.16065 4.74822 2.15626 4.73528 2.14572 4.7258C2.13078 4.71287 2.11584 4.69908 2.10003 4.68701C2.07191 4.66546 2.04379 4.64477 2.0148 4.62494C1.99722 4.61287 1.97965 4.6008 1.9612 4.58873C1.95241 4.5827 1.94363 4.57666 1.93484 4.56977C1.92781 4.56373 1.92078 4.55684 1.92342 4.54649C1.92693 4.53615 1.9366 4.53528 1.94626 4.53528C1.98053 4.53528 2.01392 4.53615 2.04819 4.53701C2.05785 4.53701 2.06664 4.53701 2.0763 4.53701L2.07806 4.53873Z" fill="white"/>
<path d="M1.26976 3.53541C1.30666 3.53541 1.34356 3.53541 1.38134 3.53541C1.41297 3.53541 1.43494 3.52593 1.44636 3.4949C1.449 3.48628 1.45515 3.47852 1.45691 3.4699C1.46833 3.41903 1.48678 3.37162 1.50611 3.32334C1.5105 3.31214 1.51138 3.30007 1.5149 3.288C1.51665 3.2811 1.51841 3.27248 1.52281 3.26731C1.5272 3.26214 1.53423 3.25697 1.54038 3.2561C1.54389 3.2561 1.5518 3.26128 1.55356 3.26645C1.56147 3.28283 1.56937 3.29921 1.57552 3.31645C1.59134 3.35955 1.6054 3.40179 1.62033 3.4449C1.62473 3.45783 1.62736 3.47162 1.63088 3.48455C1.64054 3.52076 1.65812 3.53541 1.69678 3.53541C1.77058 3.53541 1.84527 3.53541 1.91907 3.53541C1.92962 3.53541 1.94104 3.53541 1.95158 3.53714C1.96037 3.53886 1.96564 3.55266 1.95949 3.55955C1.95246 3.56731 1.94455 3.57507 1.93665 3.5811C1.88393 3.6199 1.83033 3.65869 1.77673 3.69748C1.76795 3.70352 1.76004 3.71041 1.75213 3.71731C1.7328 3.73455 1.72929 3.7561 1.73719 3.77938C1.74071 3.79059 1.74686 3.80179 1.75037 3.81386C1.76795 3.87335 1.78552 3.93283 1.80309 3.99317C1.80661 4.0061 1.81539 4.02162 1.80309 4.03197C1.78728 4.04403 1.77498 4.02852 1.76267 4.0199C1.71523 3.98628 1.66778 3.95266 1.62033 3.91903C1.61243 3.91386 1.6054 3.90869 1.59749 3.90352C1.54477 3.87076 1.53247 3.87162 1.48239 3.90783C1.42615 3.94835 1.36904 3.98714 1.31281 4.02679C1.30402 4.03283 1.29524 4.04145 1.28381 4.03455C1.27151 4.02679 1.27854 4.01559 1.28118 4.0061C1.30227 3.93197 1.32335 3.85783 1.34444 3.78283C1.3462 3.77593 1.34971 3.76817 1.35059 3.76128C1.35323 3.74834 1.35059 3.73714 1.3418 3.72766C1.33478 3.7199 1.32687 3.71214 1.31808 3.7061C1.25921 3.66214 1.19946 3.61903 1.1406 3.57507C1.13532 3.57162 1.13093 3.56731 1.12654 3.563C1.11863 3.55438 1.12214 3.53972 1.13444 3.538C1.14499 3.53628 1.15553 3.53541 1.16695 3.53541C1.2021 3.53541 1.23812 3.53541 1.27327 3.53541H1.26976Z" fill="white"/>
<path d="M4.49696 3.5355C4.53123 3.5355 4.56462 3.5355 4.59889 3.5355C4.60943 3.5355 4.62085 3.5355 4.6314 3.5355C4.65161 3.53464 4.66566 3.52515 4.67181 3.50446C4.68763 3.4536 4.7052 3.4036 4.7219 3.3536C4.73068 3.32774 4.73947 3.30188 4.74826 3.27602C4.74826 3.27429 4.74914 3.27257 4.75001 3.27171C4.75616 3.26739 4.76232 3.2605 4.76847 3.2605C4.77462 3.2605 4.78428 3.26567 4.78604 3.27171C4.80361 3.31739 4.81943 3.36308 4.83524 3.40877C4.84403 3.43464 4.85194 3.4605 4.85984 3.48722C4.87039 3.51998 4.89323 3.53722 4.92838 3.53808C4.93892 3.53808 4.95034 3.53808 4.96089 3.53808C5.02767 3.53808 5.09356 3.53722 5.16034 3.53636C5.16649 3.53636 5.17264 3.53636 5.17879 3.53808C5.18758 3.53981 5.19373 3.55274 5.18846 3.55964C5.18231 3.56739 5.1744 3.57515 5.16561 3.58205C5.11465 3.61912 5.06369 3.65619 5.01273 3.69239C5.00746 3.69584 5.00218 3.69929 4.99779 3.70274C4.95913 3.73291 4.95474 3.75102 4.96968 3.79757C4.98637 3.84929 5.00043 3.90188 5.01624 3.95446C5.01976 3.96739 5.02591 3.98033 5.0303 3.99326C5.03294 4.00188 5.03557 4.0105 5.03645 4.01912C5.03821 4.03205 5.02415 4.04153 5.01097 4.0355C5.00394 4.03205 4.99779 4.02774 4.99164 4.02343C4.92662 3.97774 4.8616 3.93119 4.79658 3.8855C4.78077 3.87429 4.76583 3.87257 4.74914 3.88291C4.74035 3.88808 4.72981 3.89326 4.7219 3.89929C4.66215 3.94153 4.60152 3.98377 4.54178 4.02688C4.53826 4.02946 4.53475 4.03377 4.53035 4.03464C4.52332 4.03636 4.51366 4.03808 4.50927 4.03464C4.50487 4.03119 4.50136 4.02084 4.50312 4.01481C4.52245 3.94843 4.54353 3.88205 4.56286 3.81481C4.5655 3.80446 4.56726 3.79412 4.57077 3.78377C4.58219 3.75015 4.57077 3.72515 4.54265 3.70446C4.52684 3.69326 4.51014 3.68119 4.49433 3.66912C4.44952 3.63636 4.40559 3.6036 4.36077 3.5717C4.35726 3.56912 4.35375 3.56567 4.35111 3.56222C4.34584 3.55533 4.34935 3.54153 4.35814 3.53895C4.36693 3.53722 4.37659 3.53636 4.38538 3.5355C4.42228 3.5355 4.45918 3.5355 4.49609 3.5355C4.49609 3.5355 4.49609 3.5355 4.49609 3.53636L4.49696 3.5355Z" fill="white"/>
<path d="M2.06738 2.5336C2.10253 2.5336 2.13855 2.5336 2.1737 2.5336C2.22642 2.53188 2.24839 2.51378 2.26332 2.46464C2.27474 2.42671 2.28968 2.3905 2.30198 2.35257C2.30901 2.33102 2.31428 2.3086 2.32219 2.28705C2.32658 2.27326 2.3301 2.25429 2.34943 2.25516C2.36612 2.25516 2.36876 2.27326 2.37315 2.28533C2.3916 2.33533 2.40918 2.38533 2.42587 2.43533C2.43026 2.44826 2.43114 2.46205 2.43466 2.47498C2.4452 2.51809 2.46893 2.53533 2.51461 2.53447C2.56909 2.5336 2.62269 2.5336 2.67716 2.53188C2.69737 2.53188 2.71758 2.53016 2.73691 2.52929C2.74921 2.52929 2.76327 2.52671 2.76854 2.54136C2.77294 2.55602 2.76063 2.56291 2.75097 2.57067C2.7167 2.59653 2.68156 2.62153 2.64729 2.6474C2.62093 2.66636 2.59545 2.68533 2.56997 2.70516C2.56118 2.71205 2.55327 2.71895 2.54625 2.72671C2.53658 2.73791 2.53482 2.74998 2.53922 2.76464C2.55503 2.8155 2.56997 2.86636 2.58491 2.91722C2.59281 2.94481 2.6016 2.9724 2.60951 2.99998C2.61127 3.00602 2.61302 3.01205 2.61302 3.01809C2.6139 3.02671 2.60248 3.03619 2.59457 3.03188C2.58315 3.02671 2.57348 3.01981 2.56294 3.01291C2.50671 2.97326 2.44959 2.9336 2.39336 2.89395C2.38985 2.89136 2.38545 2.88878 2.38194 2.88619C2.35822 2.86722 2.33449 2.86895 2.30989 2.88619C2.2519 2.92843 2.19215 2.96981 2.13328 3.01119C2.12538 3.01636 2.11922 3.02326 2.11044 3.02671C2.10429 3.02929 2.09374 3.03102 2.08935 3.02757C2.08496 3.02498 2.08144 3.01464 2.08232 3.0086C2.08584 2.98964 2.09199 2.97067 2.09726 2.95171C2.10956 2.90774 2.12274 2.86464 2.13504 2.82067C2.13943 2.80429 2.14295 2.78791 2.14998 2.77326C2.16052 2.74998 2.15525 2.73188 2.1368 2.71636C2.12625 2.70774 2.11571 2.69826 2.10517 2.68964C2.05333 2.65085 2.00149 2.61291 1.94965 2.57412C1.94086 2.56809 1.93295 2.56033 1.9268 2.55257C1.92065 2.54567 1.9268 2.53274 1.93559 2.53102C1.9435 2.53016 1.95053 2.52929 1.95843 2.52929C1.99358 2.52929 2.0296 2.52929 2.06475 2.52929V2.53102L2.06738 2.5336Z" fill="white"/>
<path d="M0.457415 0.531178C0.492561 0.531178 0.528585 0.531178 0.563731 0.531178C0.599755 0.531178 0.626115 0.516522 0.639294 0.482902C0.644566 0.469109 0.650717 0.455316 0.655989 0.44066C0.670047 0.401005 0.683227 0.360488 0.697285 0.319971C0.701678 0.305316 0.705193 0.29066 0.710465 0.276867C0.713101 0.269971 0.716615 0.263074 0.72013 0.25704C0.725401 0.249281 0.73946 0.249281 0.744732 0.25704C0.747368 0.260488 0.750004 0.264798 0.751761 0.269109C0.777242 0.342384 0.802722 0.414798 0.827324 0.488074C0.838747 0.522557 0.848412 0.53204 0.887072 0.532902C0.958242 0.532902 1.02941 0.532902 1.10058 0.532902C1.11288 0.532902 1.12518 0.532902 1.13749 0.533764C1.15154 0.535488 1.15682 0.551005 1.14803 0.56135C1.14364 0.56566 1.13924 0.569971 1.13397 0.573419C1.07862 0.613936 1.02326 0.655316 0.967029 0.695833C0.961757 0.699281 0.957363 0.702729 0.952092 0.70704C0.929247 0.725143 0.921339 0.748419 0.930126 0.776005C0.941548 0.813936 0.954728 0.851005 0.96615 0.888074C0.978451 0.926867 0.988995 0.966522 1.00042 1.00532C1.0013 1.00963 1.0013 1.01394 1.00042 1.01911C1.00042 1.02859 0.988995 1.03635 0.981087 1.03204C0.962635 1.02169 0.944184 1.01049 0.926611 0.998419C0.877407 0.963936 0.829082 0.929453 0.780756 0.894109C0.774606 0.889798 0.768455 0.885488 0.762305 0.881178C0.742096 0.867385 0.722766 0.867384 0.702557 0.88204C0.671804 0.904453 0.640173 0.926867 0.608542 0.948419C0.575153 0.972557 0.541765 0.996695 0.507498 1.02083C0.501347 1.02514 0.494318 1.02859 0.487289 1.03204C0.476745 1.03635 0.464444 1.02687 0.465323 1.01652C0.465323 1.0148 0.465323 1.01307 0.465323 1.01221C0.475867 0.976005 0.487289 0.939798 0.497833 0.903591C0.510134 0.859626 0.522435 0.816522 0.534736 0.772557C0.543522 0.742385 0.532979 0.719971 0.507498 0.701867C0.446871 0.657902 0.386245 0.613074 0.325619 0.569109C0.322104 0.566522 0.318589 0.563074 0.315954 0.559626C0.310682 0.552729 0.314196 0.538936 0.322983 0.537212C0.331769 0.535488 0.341434 0.533764 0.350221 0.533764C0.385366 0.533764 0.421391 0.533764 0.456537 0.533764L0.457415 0.531178Z" fill="white"/>
<path d="M0.463073 4.53879C0.49734 4.53879 0.530728 4.53879 0.564996 4.53879C0.577297 4.53879 0.589598 4.53879 0.601899 4.53707C0.615078 4.53535 0.624743 4.52931 0.630015 4.51638C0.640559 4.48793 0.651103 4.45948 0.660768 4.43104C0.670433 4.40259 0.680098 4.37328 0.689763 4.34483C0.697671 4.32155 0.7047 4.29914 0.712608 4.27586C0.714365 4.27069 0.71788 4.26466 0.721394 4.26035C0.726666 4.25345 0.740724 4.25345 0.745118 4.26207C0.748632 4.26897 0.752147 4.27586 0.754783 4.28276C0.778506 4.35 0.801351 4.41724 0.825074 4.48448C0.82771 4.4931 0.830346 4.50173 0.833861 4.51035C0.842647 4.52845 0.856705 4.53879 0.876914 4.53879C0.884822 4.53879 0.89273 4.53879 0.899759 4.53879C0.972686 4.53879 1.04474 4.53879 1.11766 4.53879C1.12996 4.53879 1.14314 4.53621 1.15105 4.54828C1.15632 4.55604 1.14842 4.5681 1.13084 4.57931C1.12293 4.58448 1.11415 4.58793 1.10712 4.59397C1.05791 4.63104 1.00959 4.6681 0.960385 4.70517C0.954235 4.70948 0.948084 4.71466 0.942812 4.71983C0.929633 4.7319 0.923482 4.74742 0.926118 4.76466C0.926997 4.77242 0.927876 4.78017 0.929633 4.78707C0.941055 4.825 0.953356 4.86207 0.964778 4.9C0.976201 4.93621 0.987623 4.97241 0.998167 5.00862C0.999046 5.01293 0.999924 5.01724 0.999924 5.02241C0.999924 5.03448 0.990259 5.0431 0.978837 5.03793C0.97005 5.03448 0.962143 5.03017 0.955113 5.02414C0.905031 4.98879 0.855827 4.95259 0.805744 4.91638C0.789928 4.90517 0.773234 4.89397 0.755661 4.88362C0.738088 4.87328 0.719637 4.87414 0.703821 4.88621C0.673947 4.90776 0.644074 4.92931 0.6142 4.95086C0.578175 4.97673 0.541272 5.00259 0.504369 5.02759C0.498219 5.0319 0.490311 5.03362 0.483282 5.03535C0.476253 5.03707 0.467466 5.02845 0.467466 5.02241C0.467466 5.01983 0.467466 5.01638 0.467466 5.01379C0.477131 4.97845 0.486796 4.94397 0.49734 4.90862C0.507884 4.87414 0.519306 4.83966 0.52985 4.80431C0.533364 4.79138 0.535122 4.77759 0.535122 4.76379C0.535122 4.73793 0.524578 4.7181 0.501733 4.70259C0.443743 4.66207 0.386631 4.62069 0.329519 4.57931C0.324247 4.57586 0.318975 4.57155 0.316339 4.56724C0.313703 4.56207 0.311068 4.55517 0.312825 4.55086C0.314582 4.54655 0.321611 4.54224 0.326883 4.54052C0.332155 4.53879 0.339184 4.53966 0.345335 4.53966C0.383995 4.53966 0.422655 4.53966 0.461316 4.53966V4.54138L0.463073 4.53879Z" fill="white"/>
<path d="M3.69034 2.53449C3.72549 2.53449 3.76151 2.53449 3.79666 2.53449C3.8072 2.53449 3.81863 2.53449 3.82917 2.53277C3.8485 2.52845 3.86168 2.51725 3.86783 2.49828C3.89155 2.42587 3.91615 2.35432 3.93988 2.28277C3.94164 2.27673 3.94339 2.27156 3.94691 2.26639C3.95306 2.25518 3.97151 2.25604 3.97854 2.26639C3.98205 2.27156 3.98381 2.27759 3.98645 2.28277C4.01105 2.35345 4.03477 2.42328 4.05937 2.49397C4.0708 2.52673 4.08134 2.53535 4.11649 2.53535C4.19381 2.53535 4.27113 2.53449 4.34845 2.53363C4.36163 2.53363 4.3792 2.52759 4.38359 2.5457C4.38711 2.55949 4.37393 2.56725 4.36426 2.57414C4.3133 2.61121 4.26234 2.64828 4.21138 2.68535C4.14724 2.7319 4.14724 2.73621 4.16833 2.81121C4.18414 2.86466 4.20347 2.91811 4.21489 2.97328C4.21753 2.98794 4.22544 3.00173 4.22983 3.01639C4.23071 3.0207 4.22807 3.02932 4.22456 3.0319C4.22104 3.03449 4.21314 3.03277 4.20699 3.03277C4.20523 3.03277 4.20435 3.0319 4.20259 3.03104C4.17975 3.01552 4.15602 3.00087 4.13406 2.98449C4.09276 2.95518 4.05234 2.92501 4.01105 2.8957C3.9759 2.8707 3.94954 2.87156 3.91352 2.89742C3.85377 2.94052 3.79314 2.98277 3.7334 3.02501C3.72725 3.02932 3.72022 3.0319 3.71319 3.03449C3.70616 3.03708 3.69649 3.02932 3.69649 3.02242C3.69649 3.0138 3.69825 3.00432 3.70089 2.9957C3.71582 2.94311 3.73076 2.89052 3.7457 2.8388C3.74921 2.82587 3.75448 2.81294 3.758 2.80001C3.76151 2.7888 3.76591 2.77673 3.76854 2.76552C3.77294 2.74483 3.76766 2.72673 3.74921 2.71294C3.74218 2.70777 3.73515 2.70087 3.72812 2.6957C3.67804 2.65949 3.62796 2.62414 3.57876 2.58794C3.56909 2.58104 3.55855 2.57328 3.55064 2.56466C3.54625 2.55949 3.54185 2.55001 3.54361 2.54483C3.54537 2.53966 3.55415 2.53449 3.56118 2.53363C3.57524 2.5319 3.5893 2.53363 3.60248 2.53363C3.63147 2.53363 3.66135 2.53363 3.69034 2.53363C3.69034 2.53363 3.69034 2.53449 3.69034 2.53535V2.53449Z" fill="white"/>
<path d="M2.88806 2.01395C2.88982 2.00619 2.8907 2.00016 2.89245 1.99412C2.91354 1.9243 2.93463 1.85533 2.95747 1.78636C2.96802 1.75533 2.96362 1.72947 2.93814 1.70878C2.92848 1.70102 2.91881 1.69326 2.90915 1.68636C2.85731 1.64843 2.80459 1.61136 2.75275 1.57343C2.74748 1.56999 2.74396 1.56481 2.73957 1.5605C2.73166 1.55102 2.73605 1.53723 2.74835 1.53636C2.76505 1.5355 2.78262 1.5355 2.79932 1.5355C2.85291 1.5355 2.90739 1.53636 2.96099 1.53723C2.97329 1.53723 2.98559 1.53723 2.99789 1.53723C3.03304 1.5355 3.05588 1.5174 3.06467 1.48464C3.08488 1.40964 3.11211 1.33723 3.13847 1.26481C3.14023 1.2605 3.14287 1.25705 3.1455 1.25274C3.14902 1.24757 3.1622 1.24671 3.16571 1.25274C3.17098 1.26136 3.17625 1.27085 3.17889 1.28119C3.20261 1.35188 3.22634 1.42171 3.25006 1.4924C3.2527 1.50102 3.25621 1.50964 3.2606 1.5174C3.26588 1.52774 3.27466 1.53378 3.28609 1.53464C3.29663 1.5355 3.30805 1.5355 3.31859 1.5355C3.39152 1.5355 3.46357 1.5355 3.5365 1.5355C3.54528 1.5355 3.55495 1.5355 3.56374 1.53723C3.57077 1.53723 3.57604 1.5493 3.57077 1.55533C3.56198 1.56568 3.55231 1.57602 3.54177 1.58378C3.52508 1.59671 3.50575 1.60792 3.48905 1.61999C3.45566 1.64412 3.42227 1.66912 3.38977 1.69412C3.38098 1.70016 3.37219 1.70705 3.36516 1.71481C3.35198 1.72861 3.34583 1.74585 3.35023 1.76481C3.3555 1.7855 3.35989 1.80619 3.36516 1.82688C3.37746 1.86912 3.39152 1.9105 3.40382 1.95274C3.40997 1.97171 3.41525 1.99067 3.41964 2.00964C3.4214 2.01567 3.41964 2.02602 3.41612 2.02947C3.41173 2.03292 3.40119 2.03205 3.39504 2.02947C3.38449 2.0243 3.37483 2.01567 3.36428 2.00878C3.30542 1.9674 3.24655 1.92602 3.1868 1.8855C3.16395 1.86912 3.14023 1.87171 3.11739 1.8855C3.10948 1.88981 3.10333 1.89671 3.09542 1.90188C3.03655 1.94326 2.97768 1.98464 2.91881 2.02602C2.91793 2.02688 2.91618 2.02774 2.91442 2.02774C2.90739 2.02774 2.89948 2.03033 2.89333 2.02774C2.88982 2.02602 2.88894 2.0174 2.88718 2.01395H2.88806Z" fill="white"/>
<path d="M3.69377 0.530984C3.72892 0.530984 3.76494 0.530984 3.80009 0.530984C3.84402 0.530984 3.85632 0.522364 3.87038 0.480984C3.89147 0.416329 3.91343 0.351674 3.93452 0.287019C3.93716 0.278398 3.93979 0.268915 3.94594 0.262019C3.95034 0.256846 3.95912 0.251674 3.96439 0.252536C3.97054 0.252536 3.97845 0.259433 3.98109 0.265467C3.99075 0.290467 3.99954 0.317191 4.00833 0.343053C4.02678 0.397364 4.04523 0.451674 4.0628 0.506846C4.06807 0.521502 4.07774 0.52926 4.09268 0.530984C4.10322 0.531846 4.11464 0.531846 4.12519 0.531846C4.19636 0.531846 4.26753 0.531846 4.3387 0.531846C4.34748 0.531846 4.35715 0.531846 4.36593 0.533571C4.37911 0.536157 4.38439 0.553398 4.37472 0.562019C4.36681 0.568915 4.35715 0.574088 4.34836 0.580122C4.29301 0.621502 4.23853 0.662881 4.18318 0.70426C4.16121 0.72064 4.15155 0.740467 4.1577 0.767191C4.15945 0.77495 4.16033 0.781846 4.16297 0.789605C4.17615 0.831846 4.18933 0.873226 4.20251 0.915467C4.21217 0.947364 4.22184 0.97926 4.22974 1.01116C4.2315 1.01633 4.22974 1.02323 4.22535 1.02754C4.22008 1.03443 4.21129 1.03271 4.20426 1.03012C4.19987 1.0284 4.19548 1.02581 4.19196 1.02323C4.15594 0.997364 4.11904 0.972364 4.08301 0.946502C4.05314 0.92495 4.02326 0.90426 3.99339 0.882708C3.97318 0.868053 3.95385 0.867191 3.93364 0.880122C3.92486 0.886157 3.91519 0.891329 3.9064 0.898226C3.85281 0.937019 3.80009 0.975812 3.74649 1.01374C3.73683 1.02064 3.7254 1.02667 3.71486 1.03185C3.70607 1.03529 3.69465 1.02754 3.69553 1.01892C3.69641 1.00857 3.69904 0.998226 3.70256 0.987881C3.70695 0.97064 3.71222 0.953398 3.7175 0.935295C3.7298 0.893053 3.74298 0.850812 3.75528 0.809433C3.75703 0.803398 3.76055 0.798226 3.76231 0.793053C3.77724 0.74995 3.77197 0.730984 3.73595 0.701674C3.71222 0.682709 3.68762 0.663743 3.66214 0.647364C3.62348 0.621502 3.59185 0.587881 3.55143 0.565467C3.54616 0.562881 3.54265 0.551674 3.5444 0.54564C3.54616 0.539605 3.55407 0.533571 3.56022 0.531846C3.5734 0.530122 3.58746 0.530984 3.60151 0.530984C3.63227 0.530984 3.66302 0.530984 3.69377 0.530984C3.69377 0.530984 3.69377 0.530984 3.69377 0.531846V0.530984Z" fill="white"/>
<path d="M1.11938 1.53722C1.13696 1.53722 1.15014 1.53549 1.1642 1.53549C1.23712 1.53549 1.30917 1.53549 1.3821 1.53635C1.39176 1.53635 1.40055 1.53635 1.41022 1.53635C1.42164 1.53549 1.43042 1.52859 1.43482 1.51825C1.44097 1.50446 1.44712 1.49066 1.45239 1.47601C1.47348 1.41135 1.49457 1.34584 1.51477 1.28118C1.51741 1.27428 1.52005 1.26739 1.52444 1.26049C1.53147 1.24842 1.54816 1.24928 1.55431 1.26222C1.56134 1.27687 1.56837 1.29239 1.57364 1.30877C1.59385 1.36911 1.61318 1.42946 1.63251 1.49066C1.64306 1.52428 1.65887 1.53635 1.69665 1.53722C1.76958 1.53722 1.84163 1.53722 1.91456 1.53722C1.92071 1.53722 1.92686 1.53635 1.93301 1.53722C1.94355 1.53722 1.95673 1.53549 1.96025 1.54842C1.96288 1.56049 1.95234 1.56739 1.94443 1.57342C1.89259 1.61135 1.83987 1.64842 1.78803 1.68635C1.77485 1.6967 1.76167 1.70704 1.74937 1.71825C1.7318 1.73463 1.72828 1.75359 1.73619 1.77601C1.74498 1.80187 1.75289 1.82773 1.76079 1.85446C1.77397 1.89756 1.78803 1.94153 1.80121 1.98463C1.80473 1.99584 1.80561 2.0079 1.80648 2.01997C1.80648 2.02946 1.79594 2.03549 1.78628 2.03118C1.78188 2.02946 1.77749 2.02773 1.77397 2.02515C1.71159 1.98032 1.64921 1.93635 1.58682 1.89153C1.55695 1.86997 1.53235 1.86825 1.50247 1.8898C1.44097 1.9329 1.38034 1.97687 1.31884 2.01997C1.31357 2.02342 1.30917 2.02773 1.30302 2.02946C1.29599 2.03118 1.28633 2.0329 1.28193 2.02946C1.27754 2.02687 1.2749 2.01566 1.27666 2.00963C1.29336 1.95015 1.31181 1.89066 1.32938 1.83118C1.33641 1.8079 1.34256 1.78463 1.34959 1.76135C1.35398 1.7467 1.34959 1.73377 1.33992 1.72342C1.3285 1.71135 1.31532 1.70101 1.30214 1.69066C1.27051 1.66653 1.23976 1.64153 1.20725 1.61825C1.18968 1.60532 1.17122 1.59497 1.15365 1.5829C1.14047 1.57342 1.12554 1.56394 1.12202 1.53808L1.11938 1.53722Z" fill="white"/>
<path d="M4.4917 1.53616C4.5286 1.53616 4.56551 1.5353 4.60329 1.53616C4.63931 1.53702 4.66304 1.52323 4.67446 1.49047C4.68149 1.47064 4.68852 1.45081 4.69555 1.43012C4.70697 1.39564 4.71839 1.36116 4.72981 1.32667C4.73509 1.31116 4.74036 1.29478 4.74563 1.27926C4.74739 1.27323 4.75002 1.26805 4.75266 1.26288C4.75881 1.25167 4.77814 1.25081 4.78341 1.26288C4.79395 1.28616 4.80362 1.3103 4.81153 1.3353C4.82559 1.38012 4.83877 1.42495 4.85195 1.47064C4.8537 1.47754 4.85634 1.4853 4.85985 1.49219C4.87391 1.52236 4.89588 1.53961 4.9319 1.53874C5.00483 1.53702 5.07688 1.53702 5.14981 1.53616C5.15771 1.53616 5.16562 1.53443 5.17265 1.53616C5.17792 1.53702 5.18495 1.54133 5.18671 1.54564C5.18847 1.54995 5.18671 1.55771 5.18319 1.56202C5.17792 1.56892 5.17001 1.57495 5.16298 1.58012C5.10587 1.62236 5.05052 1.66461 4.99253 1.70512C4.96353 1.72495 4.95738 1.74909 4.96705 1.78012C4.98023 1.82064 4.99429 1.8603 5.00571 1.90167C5.01537 1.93702 5.02152 1.97236 5.03558 2.00685C5.03734 2.01116 5.03558 2.01547 5.03558 2.02064C5.03558 2.0284 5.02592 2.0353 5.01977 2.03271C5.0101 2.0284 4.99956 2.02409 4.99077 2.01892C4.94157 1.98443 4.89324 1.94995 4.84404 1.91547C4.82998 1.90599 4.81592 1.8965 4.80186 1.88702C4.78078 1.87323 4.75881 1.87236 4.73684 1.88702C4.73157 1.89047 4.7263 1.89392 4.72191 1.89736C4.66655 1.93616 4.61208 1.97581 4.55672 2.01461C4.54706 2.0215 4.53651 2.0284 4.52509 2.03357C4.5207 2.03616 4.51103 2.03616 4.5084 2.03357C4.504 2.0284 4.50049 2.01978 4.50225 2.01374C4.51015 1.98271 4.5207 1.95254 4.52948 1.92236C4.54178 1.88357 4.55321 1.84392 4.56463 1.80512C4.56902 1.79047 4.57254 1.77581 4.57342 1.7603C4.57517 1.73961 4.56814 1.7215 4.55057 1.70857C4.51455 1.68271 4.47852 1.65685 4.44162 1.63099C4.41702 1.61288 4.39154 1.59478 4.36693 1.57668C4.36078 1.57236 4.35551 1.56633 4.35112 1.5603C4.34497 1.55254 4.35112 1.54047 4.3599 1.53961C4.3643 1.53961 4.36869 1.53874 4.37396 1.53874C4.41262 1.53874 4.45128 1.53874 4.48994 1.53874C4.48994 1.53874 4.48994 1.53961 4.48994 1.54047L4.4917 1.53616Z" fill="white"/>
<path d="M2.08513 1.02936C2.08074 1.00349 2.08865 0.981943 2.09568 0.961253C2.11501 0.894012 2.13522 0.827632 2.1563 0.761253C2.16157 0.74315 2.15894 0.728495 2.144 0.716426C2.13697 0.710391 2.13082 0.704357 2.12291 0.698322C2.06844 0.658667 2.01396 0.619012 1.95949 0.579357C1.9507 0.573322 1.94191 0.566426 1.93488 0.558667C1.93137 0.554357 1.92873 0.546598 1.93049 0.542288C1.93225 0.537977 1.9384 0.533667 1.94367 0.531943C1.9507 0.530219 1.95861 0.531081 1.96652 0.531081C2.03769 0.531081 2.10886 0.531081 2.17915 0.531943C2.23187 0.531943 2.24768 0.519012 2.26086 0.470736C2.27316 0.428495 2.2881 0.387115 2.30128 0.345736C2.30919 0.32246 2.31534 0.299184 2.32324 0.27677C2.32764 0.264701 2.33027 0.24746 2.34785 0.248322C2.36278 0.248322 2.36542 0.263839 2.36893 0.275046C2.39002 0.337977 2.41023 0.40177 2.43132 0.464701C2.43308 0.470736 2.43395 0.47677 2.43659 0.481943C2.45153 0.520736 2.46646 0.531081 2.50952 0.531943C2.58069 0.531943 2.65186 0.531943 2.72215 0.531943C2.73269 0.531943 2.74412 0.531943 2.75466 0.533667C2.76345 0.534529 2.7696 0.548322 2.76345 0.555219C2.75905 0.561253 2.75378 0.567288 2.74763 0.571598C2.68788 0.614701 2.62813 0.657805 2.56927 0.700908C2.56048 0.706943 2.55257 0.714701 2.54554 0.72246C2.53588 0.731943 2.53324 0.74315 2.53763 0.756081C2.54818 0.790564 2.5596 0.825046 2.57014 0.860391C2.5842 0.908667 2.59738 0.956943 2.61056 1.00436C2.61232 1.01039 2.6132 1.01729 2.61144 1.0216C2.60968 1.02591 2.60265 1.03108 2.59826 1.03108C2.58947 1.02936 2.58069 1.02505 2.57366 1.01987C2.51567 0.979357 2.45856 0.938839 2.40057 0.898322C2.35048 0.862977 2.34082 0.862977 2.28986 0.898322C2.23626 0.936253 2.18266 0.974184 2.12819 1.01212C2.1194 1.01815 2.11061 1.02418 2.10095 1.02936C2.09655 1.03194 2.08953 1.03022 2.0825 1.03108L2.08513 1.02936Z" fill="white"/>
<path d="M0.42071 2.53013C0.465521 2.53358 0.509453 2.53702 0.554264 2.54133C0.598196 2.54564 0.620162 2.53444 0.64125 2.49651C0.646521 2.48702 0.651793 2.47754 0.653551 2.4672C0.663216 2.41461 0.682546 2.36547 0.701876 2.31633C0.705391 2.30685 0.706269 2.29564 0.708905 2.2853C0.710662 2.2784 0.71242 2.26978 0.716813 2.26461C0.721206 2.25944 0.729114 2.25513 0.735264 2.25513C0.739658 2.25513 0.745808 2.26116 0.748444 2.26633C0.757231 2.28875 0.766017 2.31202 0.773925 2.33444C0.792376 2.38875 0.809949 2.44392 0.828401 2.49823C0.837187 2.52409 0.85476 2.53616 0.884634 2.53616C0.927687 2.53616 0.970741 2.53444 1.01467 2.53358C1.04982 2.53358 1.08584 2.53358 1.12099 2.53358C1.12714 2.53358 1.13329 2.53444 1.13944 2.53616C1.14735 2.53789 1.1535 2.55168 1.14823 2.55858C1.14208 2.5672 1.13417 2.57495 1.12626 2.58099C1.07618 2.61892 1.02522 2.65599 0.974256 2.69306C0.968984 2.69651 0.963712 2.69995 0.959319 2.7034C0.927687 2.72668 0.921537 2.74392 0.931202 2.78185C0.93911 2.80944 0.947896 2.83702 0.956683 2.86461C0.969862 2.90685 0.983042 2.94823 0.995343 2.99047C0.997979 3.00082 0.999736 3.01116 1.00061 3.02151C1.00061 3.03099 0.989193 3.03702 0.980406 3.03358C0.975134 3.03099 0.968984 3.0284 0.96459 3.02495C0.902207 2.98099 0.838944 2.93616 0.777439 2.89133C0.751959 2.87323 0.727357 2.86978 0.700119 2.88702C0.692211 2.8922 0.685182 2.89737 0.677274 2.90254C0.618405 2.94392 0.559536 2.9853 0.499788 3.02668C0.494516 3.03013 0.488366 3.03185 0.483094 3.03358C0.476065 3.0353 0.467278 3.02754 0.467278 3.02064C0.467278 3.01806 0.467278 3.01461 0.467278 3.01202C0.486608 2.94823 0.505938 2.88444 0.525269 2.82064C0.53054 2.80168 0.535812 2.78271 0.540206 2.76375C0.54372 2.74651 0.539327 2.73099 0.525269 2.71806C0.517361 2.71116 0.509453 2.7034 0.500667 2.69651C0.449705 2.65944 0.398744 2.62323 0.347783 2.58616C0.338117 2.57926 0.326695 2.57237 0.318787 2.56375C0.314394 2.55944 0.312637 2.54995 0.314394 2.54392C0.314394 2.53961 0.323181 2.5353 0.328452 2.53444C0.340753 2.53271 0.353054 2.53444 0.365355 2.53444C0.383807 2.53444 0.402258 2.53444 0.42071 2.53444C0.42071 2.53358 0.42071 2.53271 0.42071 2.53185V2.53013Z" fill="white"/>
</g>
<defs>
<clipPath id="clip0_2128_6950">
<rect width="17" height="10" fill="white"/>
</clipPath>
</defs>
</svg>
