<svg width="24" height="20" viewBox="0 0 24 20" fill="none" xmlns="http://www.w3.org/2000/svg">
<path d="M3.92329 14.9489C3.99478 14.8759 4.08003 14.8179 4.17411 14.7782C4.26818 14.7384 4.36921 14.7177 4.47134 14.7173H23.6146C23.7217 14.7233 23.8222 14.7712 23.8944 14.8506C23.9666 14.93 24.0047 15.0346 24.0005 15.1419C23.9939 15.2388 23.956 15.3309 23.8925 15.4044L20.1101 19.1796C20.0386 19.2525 19.9534 19.3106 19.8593 19.3503C19.7652 19.3901 19.6642 19.4108 19.5621 19.4112H0.418842C0.336036 19.4165 0.253671 19.3955 0.183508 19.3512C0.113345 19.3069 0.0589729 19.2416 0.0281563 19.1645C-0.00266022 19.0874 -0.00834501 19.0026 0.0119126 18.9221C0.0321701 18.8417 0.0773337 18.7696 0.140956 18.7164L3.92329 14.9489Z" fill="url(#paint0_linear_2136_3525)"/>
<path d="M3.92187 0.821452C3.99336 0.748505 4.07861 0.690472 4.17269 0.650715C4.26677 0.610958 4.3678 0.590268 4.46992 0.589844H23.6131C23.6652 0.589802 23.7166 0.600275 23.7645 0.620633C23.8124 0.64099 23.8556 0.670812 23.8917 0.708308C23.9277 0.745804 23.9558 0.790201 23.9743 0.838831C23.9927 0.887461 24.0012 0.939321 23.9991 0.991297C23.9981 1.09171 23.9596 1.18813 23.891 1.26151L20.1087 5.05215C20.0372 5.1251 19.952 5.18313 19.8579 5.22289C19.7638 5.26264 19.6628 5.28333 19.5607 5.28376H0.417427C0.310265 5.27776 0.209749 5.22989 0.137552 5.15046C0.0653541 5.07103 0.0272572 4.96641 0.0314748 4.85914C0.0380796 4.76224 0.076008 4.67011 0.139541 4.59665L3.92187 0.821452Z" fill="url(#paint1_linear_2136_3525)"/>
<path d="M20.1087 7.83854C20.0372 7.76559 19.952 7.70756 19.8579 7.6678C19.7638 7.62805 19.6628 7.60736 19.5606 7.60693H0.417427C0.310265 7.61293 0.209749 7.6608 0.137552 7.74023C0.0653541 7.81966 0.0272572 7.92428 0.0314748 8.03155C0.0380796 8.12845 0.076008 8.22058 0.139541 8.29404L3.92187 12.0615C3.99336 12.1345 4.07861 12.1925 4.17269 12.2323C4.26677 12.272 4.36779 12.2927 4.46992 12.2931H23.6131C23.6648 12.2921 23.7158 12.2809 23.7632 12.2602C23.8106 12.2395 23.8534 12.2096 23.8893 12.1724C23.9251 12.1351 23.9533 12.0911 23.9721 12.0429C23.991 11.9948 24.0001 11.9434 23.9991 11.8917C23.9981 11.7913 23.9596 11.6948 23.891 11.6215L20.1087 7.83854Z" fill="url(#paint2_linear_2136_3525)"/>
<defs>
<linearGradient id="paint0_linear_2136_3525" x1="22.8504" y1="1.16053" x2="8.14247" y2="22.721" gradientUnits="userSpaceOnUse">
<stop stop-color="#00FFA3"/>
<stop offset="1" stop-color="#DC1FFF"/>
</linearGradient>
<linearGradient id="paint1_linear_2136_3525" x1="16.2801" y1="-3.32432" x2="1.57215" y2="18.2362" gradientUnits="userSpaceOnUse">
<stop stop-color="#00FFA3"/>
<stop offset="1" stop-color="#DC1FFF"/>
</linearGradient>
<linearGradient id="paint2_linear_2136_3525" x1="19.5529" y1="-1.09379" x2="4.845" y2="20.4667" gradientUnits="userSpaceOnUse">
<stop stop-color="#00FFA3"/>
<stop offset="1" stop-color="#DC1FFF"/>
</linearGradient>
</defs>
</svg>
