<svg width="14" height="14" viewBox="0 0 14 14" fill="none" xmlns="http://www.w3.org/2000/svg">
<path d="M13.7814 8.69324C13.4478 10.0379 12.7228 11.2533 11.698 12.1856C10.6733 13.1179 9.39499 13.7251 8.02492 13.9305C6.65486 14.1358 5.25467 13.93 4.00163 13.3391C2.7486 12.7483 1.69908 11.7988 0.98595 10.6111C0.272823 9.42338 -0.0718377 8.05075 -0.00439274 6.66703C0.0630522 5.2833 0.539569 3.9507 1.36483 2.83796C2.19008 1.72521 3.32696 0.882365 4.63152 0.416131C5.93608 -0.050102 7.34965 -0.118754 8.69325 0.218869C10.4902 0.67042 12.0349 1.816 12.9887 3.40452C13.9424 4.99304 14.2275 6.8949 13.7814 8.69324Z" fill="#000101"/>
<path d="M12.5169 8.37573C12.245 9.46739 11.6554 10.4539 10.8227 11.2104C9.99008 11.967 8.95176 12.4596 7.83911 12.6259C6.72646 12.7923 5.58946 12.625 4.57193 12.1451C3.5544 11.6652 2.70205 10.8943 2.1227 9.9299C1.54334 8.96553 1.263 7.851 1.31714 6.72728C1.37128 5.60356 1.75746 4.52115 2.42684 3.61694C3.09623 2.71272 4.01874 2.02734 5.07769 1.64749C6.13664 1.26763 7.28446 1.21036 8.37596 1.48292C9.83889 1.84822 11.0969 2.77951 11.8734 4.07205C12.6499 5.36459 12.8814 6.91259 12.5169 8.37573Z" fill="#000101"/>
<path d="M4.71241 8.40254C4.73267 8.38187 4.75683 8.36543 4.78349 8.35416C4.81015 8.3429 4.83878 8.33703 4.86772 8.33691H10.2927C10.3231 8.33861 10.3516 8.35218 10.372 8.37468C10.3925 8.39719 10.4033 8.42683 10.4021 8.45723C10.4002 8.48468 10.3895 8.51079 10.3715 8.5316L9.29959 9.60129C9.27933 9.62196 9.25518 9.6384 9.22851 9.64967C9.20185 9.66093 9.17322 9.66679 9.14428 9.66691H3.71928C3.69582 9.66842 3.67247 9.66247 3.65259 9.64991C3.63271 9.63736 3.6173 9.61885 3.60857 9.59701C3.59983 9.57518 3.59822 9.55115 3.60396 9.52834C3.6097 9.50554 3.6225 9.48513 3.64053 9.47004L4.71241 8.40254Z" fill="url(#paint0_linear_2077_1369)"/>
<path d="M4.71196 4.39961C4.73222 4.37894 4.75638 4.3625 4.78304 4.35123C4.8097 4.33997 4.83833 4.3341 4.86728 4.33398H10.2923C10.307 4.33397 10.3216 4.33694 10.3352 4.34271C10.3487 4.34848 10.361 4.35693 10.3712 4.36755C10.3814 4.37818 10.3894 4.39075 10.3946 4.40453C10.3998 4.41831 10.4022 4.43301 10.4017 4.44773C10.4014 4.47619 10.3905 4.5035 10.371 4.5243L9.29915 5.59836C9.27889 5.61903 9.25473 5.63547 9.22807 5.64674C9.20141 5.658 9.17278 5.66386 9.14384 5.66398H3.71884C3.68847 5.66229 3.65999 5.64872 3.63953 5.62622C3.61907 5.60371 3.60827 5.57406 3.60946 5.54367C3.61134 5.51622 3.62208 5.49011 3.64009 5.4693L4.71196 4.39961Z" fill="url(#paint1_linear_2077_1369)"/>
<path d="M9.29915 6.38789C9.27889 6.36722 9.25473 6.35078 9.22807 6.33951C9.20141 6.32825 9.17278 6.32239 9.14384 6.32227H3.71884C3.68847 6.32396 3.65999 6.33753 3.63953 6.36003C3.61907 6.38254 3.60827 6.41219 3.60946 6.44258C3.61134 6.47004 3.62208 6.49614 3.64009 6.51695L4.71196 7.58445C4.73222 7.60512 4.75638 7.62157 4.78304 7.63283C4.8097 7.6441 4.83833 7.64996 4.86728 7.65008H10.2923C10.3069 7.64979 10.3214 7.64663 10.3348 7.64075C10.3482 7.63488 10.3604 7.62643 10.3705 7.61586C10.3807 7.6053 10.3887 7.59284 10.394 7.57919C10.3993 7.56554 10.4019 7.55098 10.4017 7.53633C10.4014 7.50788 10.3905 7.48056 10.371 7.45977L9.29915 6.38789Z" fill="url(#paint2_linear_2077_1369)"/>
<defs>
<linearGradient id="paint0_linear_2077_1369" x1="10.0762" y1="4.49567" x2="5.90897" y2="10.6054" gradientUnits="userSpaceOnUse">
<stop stop-color="#00FFA3"/>
<stop offset="1" stop-color="#DC1FFF"/>
</linearGradient>
<linearGradient id="paint1_linear_2077_1369" x1="8.21415" y1="3.22492" x2="4.04696" y2="9.33461" gradientUnits="userSpaceOnUse">
<stop stop-color="#00FFA3"/>
<stop offset="1" stop-color="#DC1FFF"/>
</linearGradient>
<linearGradient id="paint2_linear_2077_1369" x1="9.14165" y1="3.85695" x2="4.97446" y2="9.96664" gradientUnits="userSpaceOnUse">
<stop stop-color="#00FFA3"/>
<stop offset="1" stop-color="#DC1FFF"/>
</linearGradient>
</defs>
</svg>
