<svg width="50" height="50" viewBox="0 0 50 50" fill="none" xmlns="http://www.w3.org/2000/svg">
<g filter="url(#filter0_d_2077_1149)">
<path d="M15.75 19.5714C15.75 18.8282 15.7504 18.3101 15.7794 17.9051C15.8078 17.5073 15.8609 17.2763 15.9377 17.1002C16.1647 16.58 16.58 16.1647 17.1002 15.9377C17.2763 15.8609 17.5073 15.8078 17.9051 15.7794C18.3101 15.7504 18.8282 15.75 19.5714 15.75C20.3147 15.75 20.8327 15.7504 21.2377 15.7794C21.6356 15.8078 21.8666 15.8609 22.0426 15.9377C22.5629 16.1647 22.9781 16.58 23.2051 17.1002C23.2819 17.2763 23.3351 17.5073 23.3635 17.9051C23.3924 18.3101 23.3929 18.8282 23.3929 19.5714C23.3929 20.3147 23.3924 20.8327 23.3635 21.2377C23.3351 21.6356 23.2819 21.8666 23.2051 22.0426C22.9781 22.5629 22.5629 22.9781 22.0426 23.2051C21.8666 23.2819 21.6356 23.3351 21.2377 23.3635C20.8327 23.3924 20.3147 23.3929 19.5714 23.3929C18.8282 23.3929 18.3101 23.3924 17.9051 23.3635C17.5073 23.3351 17.2763 23.2819 17.1002 23.2051C16.58 22.9781 16.1647 22.5629 15.9377 22.0426C15.8609 21.8666 15.8078 21.6356 15.7794 21.2377C15.7504 20.8327 15.75 20.3147 15.75 19.5714Z" stroke="white" stroke-width="1.5"/>
<path d="M15.75 30.4289C15.75 29.6856 15.7504 29.1676 15.7794 28.7625C15.8078 28.3647 15.8609 28.1337 15.9377 27.9577C16.1647 27.4374 16.58 27.0221 17.1002 26.7952C17.2763 26.7183 17.5073 26.6652 17.9051 26.6368C18.3101 26.6079 18.8282 26.6074 19.5714 26.6074C20.3147 26.6074 20.8327 26.6079 21.2377 26.6368C21.6356 26.6652 21.8666 26.7183 22.0426 26.7952C22.5629 27.0221 22.9781 27.4374 23.2051 27.9577C23.2819 28.1337 23.3351 28.3647 23.3635 28.7625C23.3924 29.1676 23.3929 29.6856 23.3929 30.4289C23.3929 31.1721 23.3924 31.6901 23.3635 32.0952C23.3351 32.493 23.2819 32.724 23.2051 32.9C22.9781 33.4203 22.5629 33.8356 22.0426 34.0625C21.8666 34.1394 21.6356 34.1925 21.2377 34.2209C20.8327 34.2498 20.3147 34.2503 19.5714 34.2503C18.8282 34.2503 18.3101 34.2498 17.9051 34.2209C17.5073 34.1925 17.2763 34.1394 17.1002 34.0625C16.58 33.8356 16.1647 33.4203 15.9377 32.9C15.8609 32.724 15.8078 32.493 15.7794 32.0952C15.7504 31.6901 15.75 31.1721 15.75 30.4289Z" stroke="white" stroke-width="1.5"/>
<path d="M26.6074 19.5714C26.6074 18.8282 26.6079 18.3101 26.6368 17.9051C26.6652 17.5073 26.7183 17.2763 26.7952 17.1002C27.0221 16.58 27.4374 16.1647 27.9577 15.9377C28.1337 15.8609 28.3647 15.8078 28.7625 15.7794C29.1676 15.7504 29.6856 15.75 30.4289 15.75C31.1721 15.75 31.6901 15.7504 32.0952 15.7794C32.493 15.8078 32.724 15.8609 32.9 15.9377C33.4203 16.1647 33.8356 16.58 34.0625 17.1002C34.1394 17.2763 34.1925 17.5073 34.2209 17.9051C34.2498 18.3101 34.2503 18.8282 34.2503 19.5714C34.2503 20.3147 34.2498 20.8327 34.2209 21.2377C34.1925 21.6356 34.1394 21.8666 34.0625 22.0426C33.8356 22.5629 33.4203 22.9781 32.9 23.2051C32.724 23.2819 32.493 23.3351 32.0952 23.3635C31.6901 23.3924 31.1721 23.3929 30.4289 23.3929C29.6856 23.3929 29.1676 23.3924 28.7625 23.3635C28.3647 23.3351 28.1337 23.2819 27.9577 23.2051C27.4374 22.9781 27.0221 22.5629 26.7952 22.0426C26.7183 21.8666 26.6652 21.6356 26.6368 21.2377C26.6079 20.8327 26.6074 20.3147 26.6074 19.5714Z" stroke="white" stroke-width="1.5"/>
<path d="M26.6074 30.4289C26.6074 29.6856 26.6079 29.1676 26.6368 28.7625C26.6652 28.3647 26.7183 28.1337 26.7952 27.9577C27.0221 27.4374 27.4374 27.0221 27.9577 26.7952C28.1337 26.7183 28.3647 26.6652 28.7625 26.6368C29.1676 26.6079 29.6856 26.6074 30.4289 26.6074C31.1721 26.6074 31.6901 26.6079 32.0952 26.6368C32.493 26.6652 32.724 26.7183 32.9 26.7952C33.4203 27.0221 33.8356 27.4374 34.0625 27.9577C34.1394 28.1337 34.1925 28.3647 34.2209 28.7625C34.2498 29.1676 34.2503 29.6856 34.2503 30.4289C34.2503 31.1721 34.2498 31.6901 34.2209 32.0952C34.1925 32.493 34.1394 32.724 34.0625 32.9C33.8356 33.4203 33.4203 33.8356 32.9 34.0625C32.724 34.1394 32.493 34.1925 32.0952 34.2209C31.6901 34.2498 31.1721 34.2503 30.4289 34.2503C29.6856 34.2503 29.1676 34.2498 28.7625 34.2209C28.3647 34.1925 28.1337 34.1394 27.9577 34.0625C27.4374 33.8356 27.0221 33.4203 26.7952 32.9C26.7183 32.724 26.6652 32.493 26.6368 32.0952C26.6079 31.6901 26.6074 31.1721 26.6074 30.4289Z" stroke="white" stroke-width="1.5"/>
</g>
<defs>
<filter id="filter0_d_2077_1149" x="-3" y="-3" width="56" height="56" filterUnits="userSpaceOnUse" color-interpolation-filters="sRGB">
<feFlood flood-opacity="0" result="BackgroundImageFix"/>
<feColorMatrix in="SourceAlpha" type="matrix" values="0 0 0 0 0 0 0 0 0 0 0 0 0 0 0 0 0 0 127 0" result="hardAlpha"/>
<feOffset/>
<feGaussianBlur stdDeviation="8"/>
<feComposite in2="hardAlpha" operator="out"/>
<feColorMatrix type="matrix" values="0 0 0 0 1 0 0 0 0 1 0 0 0 0 1 0 0 0 1 0"/>
<feBlend mode="overlay" in2="BackgroundImageFix" result="effect1_dropShadow_2077_1149"/>
<feBlend mode="normal" in="SourceGraphic" in2="effect1_dropShadow_2077_1149" result="shape"/>
</filter>
</defs>
</svg>