<svg width="21" height="15" viewBox="0 0 21 15" fill="none" xmlns="http://www.w3.org/2000/svg">
<path fill-rule="evenodd" clip-rule="evenodd" d="M4.2761 10.1995C4.23969 10.0148 4.07987 9.88176 3.89423 9.88176C3.70859 9.88176 3.54877 10.0148 3.51236 10.1995L3.07317 12.4286L2.71432 10.9717C2.67234 10.8012 2.52451 10.6793 2.35149 10.6726C2.17847 10.6659 2.02185 10.7759 1.96709 10.9426L1.66642 11.8581H0.389423C0.174352 11.8581 0 12.0351 0 12.2534C0 12.4717 0.174352 12.6487 0.389423 12.6487H1.94712C2.08411 12.6487 2.20857 12.5759 2.2784 12.4612L2.73761 14.3256C2.78177 14.505 2.94256 14.6293 3.12465 14.6249C3.30675 14.6205 3.4615 14.4886 3.49725 14.3072L3.89423 12.2925L4.0965 13.3191C4.12964 13.4873 4.26593 13.6146 4.43382 13.6342C4.60173 13.6539 4.76296 13.5613 4.8329 13.4051L5.51653 11.8785L5.90673 12.4726C5.97897 12.5826 6.10055 12.6487 6.23077 12.6487H7.39904C7.61412 12.6487 7.78846 12.4717 7.78846 12.2534C7.78846 12.0351 7.61412 11.8581 7.39904 11.8581H6.43919L5.77596 10.8483C5.69749 10.7289 5.56147 10.662 5.42054 10.6736C5.2796 10.6851 5.15592 10.7734 5.09739 10.904L4.62346 11.9624L4.2761 10.1995ZM8.56731 12.2534C8.56731 12.4717 8.74165 12.6487 8.95673 12.6487H12.4615C13.5369 12.6487 14.4087 11.7638 14.4087 10.6723V9.48649C14.4087 9.26818 14.2343 9.09122 14.0192 9.09122C13.8042 9.09122 13.6298 9.26818 13.6298 9.48649V10.6723C13.6298 11.3272 13.1068 11.8581 12.4615 11.8581H8.95673C8.74165 11.8581 8.56731 12.0351 8.56731 12.2534ZM13.5157 5.64956L12.7369 4.85902C12.5848 4.70467 12.3382 4.70467 12.1862 4.85902L11.4073 5.64956C11.2553 5.80391 11.2553 6.0542 11.4073 6.20855C11.5594 6.36291 11.806 6.36291 11.9581 6.20855L12.4615 5.69751L12.965 6.20855C13.1171 6.36291 13.3637 6.36291 13.5157 6.20855C13.6678 6.0542 13.6678 5.80391 13.5157 5.64956ZM15.8523 4.85902C15.7002 4.70467 15.4536 4.70467 15.3016 4.85902L14.5227 5.64956C14.3706 5.80391 14.3706 6.0542 14.5227 6.20855C14.6748 6.36291 14.9214 6.36291 15.0734 6.20855L15.5769 5.69751L16.0804 6.20855C16.2325 6.36291 16.4791 6.36291 16.6311 6.20855C16.7832 6.0542 16.7832 5.80391 16.6311 5.64956L15.8523 4.85902ZM19.0817 0C18.4365 0 17.9135 0.530888 17.9135 1.18581C17.9135 1.70211 18.2386 2.14138 18.6923 2.30415V4.00251C18.5678 3.97002 18.4374 3.9527 18.3029 3.9527H18.2538C18.0809 3.27078 17.471 2.76689 16.7452 2.76689H11.2933C10.5675 2.76689 9.95759 3.27078 9.78464 3.9527H9.73558C8.8753 3.9527 8.17788 4.66059 8.17788 5.53379C8.17788 6.40698 8.8753 7.11487 9.73558 7.11487H9.78464C9.95759 7.79679 10.5675 8.30068 11.2933 8.30068H16.7452C17.471 8.30068 18.0809 7.79679 18.2538 7.11487H18.3029C19.1632 7.11487 19.8606 6.40698 19.8606 5.53379C19.8606 5.13282 19.7135 4.76668 19.4712 4.48798V2.30415C19.9249 2.14138 20.25 1.70211 20.25 1.18581C20.25 0.530888 19.727 0 19.0817 0Z" fill="white"/>
</svg>
