<svg width="24" height="24" viewBox="0 0 24 24" fill="none" xmlns="http://www.w3.org/2000/svg">
<path d="M13.5069 6.6713L14.5576 9.56564C14.9339 10.6026 15.4453 11.4171 16.2158 12.2066L20.2104 16.3001C20.8088 16.9132 20.8073 17.9003 20.2072 18.5005C19.5996 19.1081 18.611 19.1081 18.0035 18.5005L13.1529 13.6499C12.9808 13.4777 12.7564 13.4176 12.5213 13.4807L10.1474 14.1168C9.96877 14.1646 9.85336 14.315 9.85336 14.4999V17.85C9.85336 18.7092 9.15431 19.4082 8.2951 19.4082C7.43588 19.4082 6.73688 18.7091 6.73688 17.85V13.9022C6.73688 12.7243 6.79092 12.1734 8.07305 11.458L9.04121 10.9178C9.48357 10.671 9.46744 10.5584 9.39708 10.3645L8.58075 8.11552C8.40844 7.64077 7.9876 7.34583 7.48247 7.34583H3.97857C3.09342 7.34583 2.61582 6.6697 2.61582 6.03347C2.61582 5.38556 3.09685 4.72964 4.01625 4.72964H10.7365C11.9913 4.72964 13.0787 5.49178 13.5069 6.6713H13.5069ZM3.36586 6.03347C3.36586 6.31336 3.55533 6.59583 3.97861 6.59583H9.74138C9.94847 6.59583 10.1164 6.76373 10.1164 6.97083C10.1164 7.17792 9.94847 7.34583 9.74138 7.34583H9.00694C9.12267 7.49845 9.21727 7.67077 9.28585 7.85962L10.1022 10.1086C10.427 11.0034 9.68578 11.417 9.40674 11.5727L8.43858 12.1129C7.48697 12.6439 7.48697 12.8606 7.48697 13.9022V17.8499C7.48697 18.2955 7.84955 18.6581 8.29519 18.6581C8.74083 18.6581 9.10346 18.2955 9.10346 17.8499V14.4999C9.10346 13.9736 9.44503 13.5285 9.95335 13.3923L12.3272 12.7562C12.4542 12.7222 12.5808 12.7055 12.7051 12.7055C13.0684 12.7055 13.412 12.8482 13.6833 13.1196L18.534 17.9701C18.8491 18.2853 19.3619 18.2852 19.677 17.9701C19.9883 17.6588 19.9868 17.1447 19.6738 16.8239L15.6791 12.7304C14.8305 11.8607 14.2672 10.9636 13.8526 9.82148L12.802 6.92714C12.4779 6.03427 11.6865 5.47959 10.7366 5.47959H4.01639C3.53686 5.47959 3.36596 5.76567 3.36596 6.03342L3.36586 6.03347ZM9.38311 4.51327C8.17758 4.51327 7.19682 3.5325 7.19682 2.32697C7.19682 1.12144 8.17758 0.140625 9.38311 0.140625C10.5886 0.140625 11.5695 1.12139 11.5695 2.32697C11.5695 3.53255 10.5887 4.51327 9.38311 4.51327ZM9.38311 0.890625C8.59111 0.890625 7.94682 1.53497 7.94682 2.32697C7.94682 3.11897 8.59116 3.76327 9.38311 3.76327C10.1751 3.76327 10.8195 3.11892 10.8195 2.32697C10.8195 1.53502 10.1751 0.890625 9.38311 0.890625ZM0.425299 20.7772L3.22458 18.8723C3.42258 18.7376 3.67688 18.7233 3.88828 18.8352C4.09964 18.947 4.23099 19.1653 4.23099 19.4047V19.8877H15.4082C15.7399 19.8877 16.0097 20.1574 16.0097 20.4891V22.1304C16.0097 22.4621 15.7399 22.7318 15.4082 22.7318H4.23099V23.2147C4.23099 23.4542 4.09969 23.6725 3.88828 23.7843C3.7936 23.8344 3.69028 23.8592 3.5873 23.8592C3.46036 23.8592 3.33389 23.8215 3.22463 23.7472L0.425299 21.8422C0.249002 21.7222 0.143768 21.5232 0.143768 21.3098C0.143768 21.0964 0.249002 20.8973 0.425299 20.7773V20.7772ZM3.48099 23.0144V22.3568C3.48099 22.1497 3.64889 21.9818 3.85599 21.9818H15.2597V20.6377H3.85599C3.64889 20.6377 3.48099 20.4697 3.48099 20.2627V19.605L0.975986 21.3097L3.48099 23.0144ZM15.9643 8.99367C15.7572 8.99367 15.5893 9.16158 15.5893 9.36867C15.5893 9.57577 15.7572 9.74367 15.9643 9.74367H17.9013C18.1084 9.74367 18.2763 9.57577 18.2763 9.36867C18.2763 9.16158 18.1084 8.99367 17.9013 8.99367H15.9643ZM14.2411 5.41922H16.1782C16.3853 5.41922 16.5532 5.25131 16.5532 5.04422C16.5532 4.83712 16.3853 4.66922 16.1782 4.66922H14.2411C14.034 4.66922 13.8661 4.83712 13.8661 5.04422C13.8661 5.25131 14.034 5.41922 14.2411 5.41922ZM18.513 2.52164C18.513 2.31455 18.3451 2.14664 18.138 2.14664H12.9351C12.728 2.14664 12.5601 2.31455 12.5601 2.52164C12.5601 2.72873 12.728 2.89664 12.9351 2.89664H18.138C18.3451 2.89664 18.513 2.72873 18.513 2.52164ZM22.5991 14.6107C22.5991 14.4037 22.4312 14.2357 22.2241 14.2357H20.08C19.8729 14.2357 19.705 14.4037 19.705 14.6107C19.705 14.8178 19.8729 14.9857 20.08 14.9857H22.2241C22.4312 14.9857 22.5991 14.8178 22.5991 14.6107ZM21.5405 18.2973H23.481C23.6881 18.2973 23.856 18.1294 23.856 17.9223C23.856 17.7152 23.6881 17.5473 23.481 17.5473H21.5405C21.3334 17.5473 21.1655 17.7152 21.1655 17.9223C21.1655 18.1294 21.3334 18.2973 21.5405 18.2973ZM16.8492 21.3097C16.8492 21.5168 17.0171 21.6847 17.2242 21.6847H22.427C22.6341 21.6847 22.802 21.5168 22.802 21.3097C22.802 21.1026 22.6341 20.9347 22.427 20.9347H17.2242C17.0171 20.9347 16.8492 21.1026 16.8492 21.3097ZM20.475 6.76505C20.475 6.55795 20.3071 6.39005 20.1 6.39005H16.2936C16.0865 6.39005 15.9186 6.55795 15.9186 6.76505C15.9186 6.97214 16.0865 7.14005 16.2936 7.14005H20.1C20.3071 7.14005 20.475 6.97214 20.475 6.76505ZM21.0746 12.0264C21.0746 11.8193 20.9067 11.6514 20.6996 11.6514H17.9743C17.7672 11.6514 17.5993 11.8193 17.5993 12.0264C17.5993 12.2335 17.7672 12.4014 17.9743 12.4014H20.6996C20.9067 12.4014 21.0746 12.2335 21.0746 12.0264Z" fill="#14F195"/>
</svg>
