<svg width="24" height="24" viewBox="0 0 24 24" fill="none" xmlns="http://www.w3.org/2000/svg">
<path d="M21.9184 12.3109C21.8219 12.1133 21.8219 11.8867 21.9184 11.6892L22.8136 9.85802C23.3119 8.83845 22.9171 7.62323 21.9146 7.09135L20.1142 6.13605C19.9199 6.03302 19.7867 5.84965 19.7487 5.63313L19.3966 3.62555C19.2005 2.50778 18.1666 1.75666 17.0431 1.91561L15.025 2.20108C14.8072 2.23183 14.5918 2.1618 14.4338 2.00894L12.9689 0.591831C12.1533 -0.197254 10.8755 -0.1973 10.0599 0.591831L8.59495 2.00908C8.43689 2.16198 8.2215 2.23187 8.00372 2.20122L5.98563 1.91575C4.86182 1.75671 3.82824 2.50792 3.63216 3.62569L3.28004 5.63318C3.24203 5.84974 3.10886 6.03307 2.91465 6.13614L1.11421 7.09144C0.111749 7.62328 -0.283121 8.8386 0.215248 9.85816L1.11032 11.6893C1.20688 11.8868 1.20688 12.1134 1.11032 12.311L0.215201 14.1421C-0.283168 15.1616 0.111702 16.3769 1.11416 16.9087L2.91461 17.864C3.10886 17.9671 3.24203 18.1504 3.28004 18.367L3.63216 20.3745C3.81066 21.3921 4.68318 22.1057 5.68597 22.1056C5.78473 22.1056 5.88495 22.0987 5.98568 22.0844L8.00377 21.799C8.22141 21.7681 8.43693 21.8382 8.59499 21.9911L10.0599 23.4082C10.4678 23.8028 10.991 24 11.5144 24C12.0376 24 12.5612 23.8027 12.9689 23.4082L14.4338 21.9911C14.5919 21.8382 14.8073 21.7684 15.025 21.799L17.0431 22.0844C18.1671 22.2434 19.2005 21.4923 19.3966 20.3745L19.7488 18.367C19.7868 18.1504 19.92 17.9671 20.1142 17.864L21.9146 16.9087C22.9171 16.3769 23.3119 15.1616 22.8136 14.142L21.9184 12.3109ZM8.74593 5.77108C10.1452 5.77108 11.2837 6.90952 11.2837 8.30882C11.2837 9.70812 10.1452 10.8466 8.74593 10.8466C7.34663 10.8466 6.20819 9.70812 6.20819 8.30882C6.20819 6.90952 7.34663 5.77108 8.74593 5.77108ZM7.43607 17.057C7.30093 17.1922 7.12379 17.2598 6.9467 17.2598C6.76961 17.2598 6.59242 17.1922 6.45733 17.057C6.18705 16.7868 6.18705 16.3485 6.45733 16.0783L15.5926 6.94295C15.8629 6.67267 16.3012 6.67267 16.5714 6.94295C16.8417 7.21322 16.8417 7.65145 16.5714 7.92173L7.43607 17.057ZM14.2827 18.229C12.8834 18.229 11.745 17.0906 11.745 15.6913C11.745 14.292 12.8834 13.1535 14.2827 13.1535C15.682 13.1535 16.8205 14.292 16.8205 15.6913C16.8205 17.0906 15.682 18.229 14.2827 18.229Z" fill="white" fill-opacity="0.6"/>
<path d="M14.2832 14.5381C13.6472 14.5381 13.1297 15.0555 13.1297 15.6916C13.1297 16.3276 13.6471 16.8451 14.2832 16.8451C14.9193 16.8451 15.4367 16.3276 15.4367 15.6916C15.4367 15.0555 14.9193 14.5381 14.2832 14.5381Z" fill="white" fill-opacity="0.6"/>
<path d="M8.74583 7.15527C8.10979 7.15527 7.59235 7.67272 7.59235 8.30876C7.59235 8.9448 8.10979 9.46229 8.74583 9.46229C9.38187 9.46229 9.89937 8.94485 9.89937 8.30876C9.89932 7.67277 9.38187 7.15527 8.74583 7.15527Z" fill="white" fill-opacity="0.6"/>
</svg>
