<svg width="14" height="14" viewBox="0 0 14 14" fill="none" xmlns="http://www.w3.org/2000/svg">
<path d="M7.00033 12.8337C10.222 12.8337 12.8337 10.222 12.8337 7.00033C12.8337 3.77866 10.222 1.16699 7.00033 1.16699C3.77866 1.16699 1.16699 3.77866 1.16699 7.00033C1.16699 10.222 3.77866 12.8337 7.00033 12.8337Z" stroke="#00FFA3" stroke-width="1.16667" stroke-linecap="round" stroke-linejoin="round"/>
<path d="M6.52629 9C6.52545 9 6.52447 9 6.52363 9C6.48893 8.99935 6.45619 8.98555 6.43268 8.96185L4.03359 6.5343C3.99245 6.49263 3.98867 6.42987 4.02463 6.38417C4.06059 6.3386 4.12607 6.32297 4.1812 6.34693L6.37699 7.30368C6.39546 7.31175 6.41729 7.30785 6.43142 7.29418L9.78086 4.03656C9.8262 3.99242 9.90036 3.9876 9.95185 4.02562C10.0033 4.06364 10.0152 4.13187 9.97927 4.18304L6.64746 8.93268C6.6427 8.93958 6.63711 8.94583 6.63095 8.95169L6.61626 8.96537C6.59233 8.9875 6.55987 9 6.52629 9Z" fill="#14F195"/>
</svg>
