<svg width="34" height="32" viewBox="0 0 34 32" fill="none" xmlns="http://www.w3.org/2000/svg">
<path d="M14.2868 31.1627C14.2821 31.1627 14.2768 31.1627 14.2722 31.1627C14.0815 31.1587 13.9016 31.0744 13.7725 30.9298L0.591387 16.1104C0.365373 15.856 0.344616 15.4729 0.542186 15.1939C0.739757 14.9157 1.09953 14.8203 1.40242 14.9666L13.4665 20.8072C13.568 20.8565 13.6879 20.8327 13.7655 20.7492L32.168 0.862599C32.4171 0.593141 32.8245 0.563731 33.1074 0.795831C33.3903 1.02793 33.4557 1.44444 33.2581 1.75682L14.9525 30.7517C14.9264 30.7938 14.8956 30.832 14.8618 30.8678L14.7811 30.9512C14.6496 31.0864 14.4713 31.1627 14.2868 31.1627Z" fill="#14F195"/>
</svg>
