<svg width="14" height="15" viewBox="0 0 14 15" fill="none" xmlns="http://www.w3.org/2000/svg">
<path fill-rule="evenodd" clip-rule="evenodd" d="M7.00002 14.1797C8.85654 14.1797 10.6371 13.4422 11.9498 12.1295C13.2626 10.8167 14 9.03615 14 7.17968C14 5.32316 13.2626 3.54269 11.9498 2.22994C10.6371 0.917185 8.85654 0.179688 7.00002 0.179688C5.1435 0.179688 3.36302 0.917185 2.05026 2.22994C0.737501 3.54269 0 5.32316 0 7.17968C0 9.03615 0.737501 10.8167 2.05026 12.1295C3.36302 13.4422 5.1435 14.1797 7.00002 14.1797ZM10.2952 5.43756C10.3577 5.37804 10.4076 5.30682 10.4424 5.22797C10.4772 5.14913 10.4962 5.06419 10.4981 4.97803C10.5002 4.89186 10.4852 4.80615 10.454 4.72577C10.4229 4.64541 10.3762 4.57196 10.3167 4.50962C10.2572 4.44728 10.186 4.39728 10.1071 4.36246C10.0283 4.32766 9.94339 4.30871 9.85715 4.30672C9.77101 4.30473 9.68526 4.31973 9.60496 4.35086C9.52455 4.382 9.45115 4.42866 9.38873 4.48818C8.07302 5.74539 6.91847 7.16119 5.95177 8.70307L4.62002 7.37218C4.55993 7.3077 4.48748 7.25599 4.40698 7.22012C4.32648 7.18426 4.23958 7.16497 4.15147 7.16341C4.06336 7.16186 3.97583 7.17806 3.89411 7.21107C3.8124 7.24408 3.73817 7.2932 3.67585 7.35552C3.61354 7.41783 3.56441 7.49206 3.53141 7.57378C3.4984 7.65549 3.48219 7.74302 3.48375 7.83113C3.4853 7.91925 3.50458 8.00615 3.54046 8.08665C3.57632 8.16718 3.62803 8.23961 3.69251 8.2997L5.61752 10.2256C5.68879 10.2968 5.77555 10.3508 5.87104 10.3832C5.96653 10.4155 6.06819 10.4255 6.16815 10.4121C6.26809 10.3988 6.36363 10.3627 6.44735 10.3066C6.53107 10.2504 6.60072 10.1756 6.6509 10.0882C7.63649 8.37135 8.86383 6.80508 10.2952 5.43756Z" fill="#059669"/>
</svg>
