<svg width="24" height="24" viewBox="0 0 24 24" fill="none" xmlns="http://www.w3.org/2000/svg">
<path fill-rule="evenodd" clip-rule="evenodd" d="M19.8987 9.40456C21.3632 7.94011 21.3632 5.56574 19.8987 4.10128C18.4343 2.63681 16.0599 2.63681 14.5954 4.10128L10.4089 8.28781C10.116 8.58068 10.116 9.05558 10.4089 9.34846C10.7018 9.64141 11.1766 9.64141 11.4696 9.34846L15.6561 5.16194C16.5348 4.28326 17.9594 4.28326 18.8381 5.16194C19.7167 6.04062 19.7167 7.46524 18.8381 8.34391L14.6515 12.5305C14.3586 12.8234 14.3586 13.2983 14.6515 13.5911C14.9444 13.884 15.4193 13.884 15.7122 13.5911L19.8987 9.40456Z" fill="#9E9E9E"/>
<path fill-rule="evenodd" clip-rule="evenodd" d="M4.06396 14.6327C2.59951 16.0972 2.59951 18.4715 4.06396 19.936C5.52841 21.4005 7.90276 21.4005 9.36721 19.936L13.5908 15.7124C13.8838 15.4195 13.8838 14.9447 13.5908 14.6518C13.298 14.3588 12.8231 14.3588 12.5302 14.6518L8.30656 18.8753C7.42793 19.754 6.00331 19.754 5.12461 18.8753C4.24591 17.9967 4.24591 16.5721 5.12461 15.6934L9.34823 11.4698C9.64111 11.1769 9.64111 10.702 9.34823 10.4091C9.05528 10.1162 8.58046 10.1162 8.28758 10.4091L4.06396 14.6327Z" fill="#9E9E9E"/>
<path d="M15.712 8.28802C15.4191 7.99514 14.9442 7.99514 14.6513 8.28802L8.81768 14.1217C8.52481 14.4145 8.52481 14.8894 8.81768 15.1823C9.11063 15.4753 9.58546 15.4753 9.87833 15.1823L15.712 9.34874C16.0049 9.05579 16.0049 8.58097 15.712 8.28802Z" fill="#9E9E9E"/>
</svg>
