<svg width="16" height="16" viewBox="0 0 16 16" fill="none" xmlns="http://www.w3.org/2000/svg">
<g clip-path="url(#clip0_2077_1010)">
<path d="M10.7007 9.33845L8.58723 7.75338V4.52457C8.58723 4.19992 8.32481 3.9375 8.00016 3.9375C7.67551 3.9375 7.41309 4.19992 7.41309 4.52457V8.04695C7.41309 8.23186 7.49998 8.40624 7.64791 8.51661L9.99615 10.2778C10.1018 10.357 10.2251 10.3952 10.3478 10.3952C10.5268 10.3952 10.703 10.3148 10.818 10.1598C11.013 9.90086 10.9602 9.53278 10.7007 9.33845Z" fill="white"/>
<path d="M7.99985 0.420898C3.82056 0.420898 0.420898 3.82056 0.420898 7.99985C0.420898 12.1791 3.82056 15.5788 7.99985 15.5788C12.1791 15.5788 15.5788 12.1791 15.5788 7.99985C15.5788 3.82056 12.1791 0.420898 7.99985 0.420898ZM7.99985 14.4047C4.46868 14.4047 1.59501 11.531 1.59501 7.99985C1.59501 4.46868 4.46868 1.59501 7.99985 1.59501C11.5316 1.59501 14.4047 4.46868 14.4047 7.99985C14.4047 11.531 11.531 14.4047 7.99985 14.4047Z" fill="white"/>
</g>
<defs>
<clipPath id="clip0_2077_1010">
<rect width="15.1579" height="15.1579" fill="white" transform="translate(0.420898 0.420898)"/>
</clipPath>
</defs>
</svg>
