<svg width="10" height="10" viewBox="0 0 10 10" fill="none" xmlns="http://www.w3.org/2000/svg">
<path d="M9.41893 8.00481C9.80986 8.39592 9.80986 9.02892 9.41893 9.41893C9.22392 9.61394 8.96794 9.7119 8.71178 9.7119C8.4558 9.7119 8.19981 9.61394 8.00481 9.41893L4.99986 6.4138L1.99492 9.41893C1.79991 9.61394 1.54393 9.7119 1.28795 9.7119C1.03178 9.7119 0.775803 9.61394 0.580795 9.41893C0.189865 9.02892 0.189865 8.39592 0.580795 8.00481L3.58592 4.99986L0.580795 1.99492C0.189865 1.60381 0.189865 0.97081 0.580795 0.580795C0.971909 0.189865 1.60381 0.189865 1.99492 0.580795L4.99986 3.58592L8.00481 0.580795C8.39592 0.189865 9.02782 0.189865 9.41893 0.580795C9.80986 0.97081 9.80986 1.60381 9.41893 1.99492L6.4138 4.99986L9.41893 8.00481Z" fill="#FAFAFA"/>
</svg>
