<svg width="11" height="13" viewBox="0 0 11 13" fill="none" xmlns="http://www.w3.org/2000/svg">
<path d="M4.0001 10.6665C3.83998 10.6762 3.67961 10.6519 3.52961 10.595C3.37961 10.5381 3.24339 10.4501 3.12996 10.3366C3.01652 10.2232 2.92846 10.087 2.8716 9.93699C2.81474 9.78699 2.79037 9.62663 2.8001 9.4665V1.8665C2.8001 1.53317 2.93343 1.19984 3.2001 0.999837C3.4001 0.799837 3.73343 0.666504 4.06676 0.666504H9.6001C9.93343 0.666504 10.2668 0.799837 10.4668 0.999837C10.7334 1.2665 10.8001 1.53317 10.8001 1.8665V9.4665C10.8001 9.79984 10.7334 10.1332 10.4668 10.3332C10.2668 10.5332 9.93343 10.6665 9.6001 10.6665H4.06676H4.0001ZM1.8001 12.9998C1.46676 12.9998 1.13343 12.8665 0.933431 12.6665C0.666764 12.3998 0.600098 12.1332 0.600098 11.7998V3.6665C0.600098 3.4665 0.600098 3.39984 0.733431 3.2665L1.06676 3.13317C1.2001 3.13317 1.33343 3.13317 1.4001 3.2665C1.53343 3.39984 1.53343 3.4665 1.53343 3.6665V11.6665L1.6001 11.8665L1.8001 11.9332H7.8001C8.0001 11.9332 8.13343 11.9332 8.2001 12.0665C8.33343 12.1998 8.33343 12.2665 8.33343 12.4665C8.33343 12.5998 8.33343 12.6665 8.2001 12.7998L7.86676 12.9332H1.73343L1.8001 12.9998Z" fill="white"/>
</svg>
