<svg width="24" height="24" viewBox="0 0 24 24" fill="none" xmlns="http://www.w3.org/2000/svg">
<path d="M6.32812 11.3438C2.8388 11.3438 0 14.1825 0 17.6719C0 21.1612 2.8388 24 6.32812 24C9.81745 24 12.6562 21.1612 12.6562 17.6719C12.6562 14.1825 9.81745 11.3438 6.32812 11.3438ZM9.12216 16.9034L5.84091 20.1847C5.70366 20.322 5.5237 20.3906 5.34375 20.3906C5.1638 20.3906 4.98384 20.322 4.84659 20.1847L3.44034 18.7784C3.16575 18.5039 3.16575 18.0586 3.44034 17.784C3.71489 17.5095 4.16011 17.5095 4.4347 17.784L5.34375 18.6931L8.12784 15.909C8.40239 15.6345 8.84761 15.6345 9.1222 15.909C9.39675 16.1836 9.39675 16.6289 9.12216 16.9034Z" fill="white" fill-opacity="0.6"/>
<path d="M18.5156 6.09375C18.1273 6.09375 17.8125 5.77894 17.8125 5.39062V0H7.73438C6.57127 0 5.625 0.946266 5.625 2.10938V9.9698C5.85666 9.9488 6.09108 9.9375 6.32812 9.9375C8.72475 9.9375 10.8702 11.0332 12.29 12.75H19.9219C20.3102 12.75 20.625 13.0648 20.625 13.4531C20.625 13.8414 20.3102 14.1562 19.9219 14.1562H13.2163C13.6558 15.0139 13.9392 15.964 14.0302 16.9688H19.9219C20.3102 16.9688 20.625 17.2836 20.625 17.6719C20.625 18.0602 20.3102 18.375 19.9219 18.375H14.0302C13.8199 20.6971 12.5792 22.7262 10.7699 24H21.7969C22.96 24 23.9062 23.0537 23.9062 21.8906V6.09375H18.5156ZM19.9219 9.9375H9.60938C9.22106 9.9375 8.90625 9.62269 8.90625 9.23438C8.90625 8.84606 9.22106 8.53125 9.60938 8.53125H19.9219C20.3102 8.53125 20.625 8.84606 20.625 9.23438C20.625 9.62269 20.3102 9.9375 19.9219 9.9375Z" fill="white" fill-opacity="0.6"/>
<path d="M19.2188 0.411621V4.68742H23.4943L19.2188 0.411621Z" fill="white" fill-opacity="0.6"/>
</svg>
