<svg width="24" height="24" viewBox="0 0 24 24" fill="none" xmlns="http://www.w3.org/2000/svg">
<g clip-path="url(#clip0_2077_1182)">
<path d="M10.4931 6.6713L9.44245 9.56564C9.06609 10.6026 8.55468 11.4171 7.7842 12.2066L3.78956 16.3001C3.1912 16.9132 3.19265 17.9003 3.79279 18.5005C4.40039 19.1081 5.38898 19.1081 5.99648 18.5005L10.8471 13.6499C11.0192 13.4777 11.2436 13.4176 11.4787 13.4807L13.8526 14.1168C14.0312 14.1646 14.1466 14.315 14.1466 14.4999V17.85C14.1466 18.7092 14.8457 19.4082 15.7049 19.4082C16.5641 19.4082 17.2631 18.7091 17.2631 17.85V13.9022C17.2631 12.7243 17.2091 12.1734 15.927 11.458L14.9588 10.9178C14.5164 10.671 14.5326 10.5584 14.6029 10.3645L15.4192 8.11552C15.5916 7.64077 16.0124 7.34583 16.5175 7.34583H20.0214C20.9066 7.34583 21.3842 6.6697 21.3842 6.03347C21.3842 5.38556 20.9032 4.72964 19.9837 4.72964H13.2635C12.0087 4.72964 10.9213 5.49178 10.4931 6.6713H10.4931ZM20.6341 6.03347C20.6341 6.31336 20.4447 6.59583 20.0214 6.59583H14.2586C14.0515 6.59583 13.8836 6.76373 13.8836 6.97083C13.8836 7.17792 14.0515 7.34583 14.2586 7.34583H14.9931C14.8773 7.49845 14.7827 7.67077 14.7142 7.85962L13.8978 10.1086C13.573 11.0034 14.3142 11.417 14.5933 11.5727L15.5614 12.1129C16.513 12.6439 16.513 12.8606 16.513 13.9022V17.8499C16.513 18.2955 16.1504 18.6581 15.7048 18.6581C15.2592 18.6581 14.8965 18.2955 14.8965 17.8499V14.4999C14.8965 13.9736 14.555 13.5285 14.0467 13.3923L11.6728 12.7562C11.5458 12.7222 11.4192 12.7055 11.2949 12.7055C10.9316 12.7055 10.588 12.8482 10.3167 13.1196L5.46604 17.9701C5.1509 18.2853 4.63814 18.2852 4.323 17.9701C4.01175 17.6588 4.0132 17.1447 4.32623 16.8239L8.32087 12.7304C9.1695 11.8607 9.73279 10.9636 10.1474 9.82148L11.198 6.92714C11.5221 6.03427 12.3135 5.47959 13.2634 5.47959H19.9836C20.4631 5.47959 20.634 5.76567 20.634 6.03342L20.6341 6.03347ZM14.6169 4.51327C15.8224 4.51327 16.8032 3.5325 16.8032 2.32697C16.8032 1.12144 15.8224 0.140625 14.6169 0.140625C13.4114 0.140625 12.4305 1.12139 12.4305 2.32697C12.4305 3.53255 13.4113 4.51327 14.6169 4.51327ZM14.6169 0.890625C15.4089 0.890625 16.0532 1.53497 16.0532 2.32697C16.0532 3.11897 15.4088 3.76327 14.6169 3.76327C13.8249 3.76327 13.1805 3.11892 13.1805 2.32697C13.1805 1.53502 13.8249 0.890625 14.6169 0.890625ZM23.5747 20.7772L20.7754 18.8723C20.5774 18.7376 20.3231 18.7233 20.1117 18.8352C19.9004 18.947 19.769 19.1653 19.769 19.4047V19.8877H8.59176C8.26012 19.8877 7.99031 20.1574 7.99031 20.4891V22.1304C7.99031 22.4621 8.26012 22.7318 8.59176 22.7318H19.769V23.2147C19.769 23.4542 19.9003 23.6725 20.1117 23.7843C20.2064 23.8344 20.3097 23.8592 20.4127 23.8592C20.5396 23.8592 20.6661 23.8215 20.7754 23.7472L23.5747 21.8422C23.751 21.7222 23.8562 21.5232 23.8562 21.3098C23.8562 21.0964 23.751 20.8973 23.5747 20.7773V20.7772ZM20.519 23.0144V22.3568C20.519 22.1497 20.3511 21.9818 20.144 21.9818H8.74031V20.6377H20.144C20.3511 20.6377 20.519 20.4697 20.519 20.2627V19.605L23.024 21.3097L20.519 23.0144ZM8.03568 8.99367C8.24278 8.99367 8.41068 9.16158 8.41068 9.36867C8.41068 9.57577 8.24278 9.74367 8.03568 9.74367H6.09872C5.89162 9.74367 5.72372 9.57577 5.72372 9.36867C5.72372 9.16158 5.89162 8.99367 6.09872 8.99367H8.03568ZM9.75886 5.41922H7.82184C7.61475 5.41922 7.44684 5.25131 7.44684 5.04422C7.44684 4.83712 7.61475 4.66922 7.82184 4.66922H9.75886C9.96595 4.66922 10.1339 4.83712 10.1339 5.04422C10.1339 5.25131 9.96595 5.41922 9.75886 5.41922ZM5.48704 2.52164C5.48704 2.31455 5.65495 2.14664 5.86204 2.14664H11.0649C11.272 2.14664 11.4399 2.31455 11.4399 2.52164C11.4399 2.72873 11.272 2.89664 11.0649 2.89664H5.86204C5.65495 2.89664 5.48704 2.72873 5.48704 2.52164ZM1.40086 14.6107C1.40086 14.4037 1.56876 14.2357 1.77586 14.2357H3.91997C4.12706 14.2357 4.29497 14.4037 4.29497 14.6107C4.29497 14.8178 4.12706 14.9857 3.91997 14.9857H1.77586C1.56876 14.9857 1.40086 14.8178 1.40086 14.6107ZM2.45948 18.2973H0.519043C0.311949 18.2973 0.144043 18.1294 0.144043 17.9223C0.144043 17.7152 0.311949 17.5473 0.519043 17.5473H2.45948C2.66657 17.5473 2.83448 17.7152 2.83448 17.9223C2.83448 18.1294 2.66657 18.2973 2.45948 18.2973ZM7.15082 21.3097C7.15082 21.5168 6.98292 21.6847 6.77582 21.6847H1.57298C1.36589 21.6847 1.19798 21.5168 1.19798 21.3097C1.19798 21.1026 1.36589 20.9347 1.57298 20.9347H6.77582C6.98292 20.9347 7.15082 21.1026 7.15082 21.3097ZM3.525 6.76505C3.525 6.55795 3.6929 6.39005 3.9 6.39005H7.70643C7.91353 6.39005 8.08143 6.55795 8.08143 6.76505C8.08143 6.97214 7.91353 7.14005 7.70643 7.14005H3.9C3.6929 7.14005 3.525 6.97214 3.525 6.76505ZM2.92542 12.0264C2.92542 11.8193 3.09332 11.6514 3.30042 11.6514H6.02573C6.23282 11.6514 6.40073 11.8193 6.40073 12.0264C6.40073 12.2335 6.23282 12.4014 6.02573 12.4014H3.30042C3.09332 12.4014 2.92542 12.2335 2.92542 12.0264Z" fill="#58B9ED"/>
</g>
<defs>
<clipPath id="clip0_2077_1182">
<rect width="24" height="24" fill="white"/>
</clipPath>
</defs>
</svg>
