<svg width="12" height="13" viewBox="0 0 12 13" fill="none" xmlns="http://www.w3.org/2000/svg">
<path d="M5.99998 12.4824C9.20991 12.4824 11.8125 9.88077 11.8125 6.66991C11.8125 3.46093 9.20991 0.857422 5.99998 0.857422C2.79006 0.857422 0.1875 3.46093 0.1875 6.66991C0.1875 9.88077 2.79006 12.4824 5.99998 12.4824ZM5.99998 11.3574C3.40939 11.3574 1.3125 9.26137 1.3125 6.66991C1.3125 4.08019 3.40948 1.98242 5.99998 1.98242C8.58962 1.98242 10.6875 4.07939 10.6875 6.66991C10.6875 9.26046 8.59145 11.3574 5.99998 11.3574ZM5.99998 5.40429C6.54365 5.40429 6.98436 4.96358 6.98436 4.41991C6.98436 3.87625 6.54365 3.43554 5.99998 3.43554C5.45632 3.43554 5.01561 3.87625 5.01561 4.41991C5.01561 4.96358 5.45632 5.40429 5.99998 5.40429ZM7.03123 9.6699C7.18655 9.6699 7.31248 9.54397 7.31248 9.38865V8.82615C7.31248 8.67083 7.18655 8.54491 7.03123 8.54491H6.74998V6.20116C6.74998 6.04584 6.62405 5.91991 6.46873 5.91991H4.96874C4.81342 5.91991 4.68749 6.04584 4.68749 6.20116V6.76366C4.68749 6.91898 4.81342 7.04491 4.96874 7.04491H5.24998V8.54491H4.96874C4.81342 8.54491 4.68749 8.67083 4.68749 8.82615V9.38865C4.68749 9.54397 4.81342 9.6699 4.96874 9.6699H7.03123Z" fill="#14F195"/>
</svg>
