<svg width="7" height="10" viewBox="0 0 7 10" fill="none" xmlns="http://www.w3.org/2000/svg">
<path d="M7 9.4547V4.33925C7 4.03806 6.74366 3.79395 6.42738 3.79395H6.41455V2.77549C6.41455 1.2451 5.10707 0 3.5 0C1.89293 0 0.585446 1.2451 0.585446 2.77549V3.79395H0.572622C0.256487 3.79395 0 4.03806 0 4.33925V9.4547C0 9.75589 0.256487 10 0.572622 10H6.42738C6.74366 10 7 9.75589 7 9.4547ZM2.92738 6.81355C2.92738 6.51235 3.18372 6.26825 3.5 6.26825C3.81628 6.26825 4.07262 6.51235 4.07262 6.81355V7.49262C4.07262 7.79367 3.81628 8.03792 3.5 8.03792C3.18372 8.03792 2.92738 7.79367 2.92738 7.49262V6.81355ZM1.73069 2.77549C1.73069 1.84649 2.52446 1.0906 3.5 1.0906C4.47554 1.0906 5.26931 1.84649 5.26931 2.77549V3.79395H1.73069V2.77549Z" fill="#9E9E9E"/>
</svg>
