<svg width="31" height="17" viewBox="0 0 31 17" fill="none" xmlns="http://www.w3.org/2000/svg">
<rect x="0.5" y="0.5" width="30" height="16" rx="3.5" fill="url(#paint0_linear_2136_4206)"/>
<rect x="0.5" y="0.5" width="30" height="16" rx="3.5" stroke="url(#paint1_linear_2136_4206)"/>
<path d="M11.4239 12H10.5139L6.85387 6.43V12H5.94387V4.95H6.85387L10.5139 10.53V4.95H11.4239V12ZM17.9372 8.95C17.9372 9.14333 17.9239 9.31 17.8972 9.45H13.5072C13.5272 10.0767 13.7039 10.5467 14.0372 10.86C14.3772 11.1733 14.7906 11.33 15.2772 11.33C15.7172 11.33 16.0839 11.22 16.3772 11C16.6772 10.7733 16.8606 10.4733 16.9272 10.1H17.8972C17.8306 10.48 17.6806 10.82 17.4472 11.12C17.2206 11.42 16.9239 11.6533 16.5572 11.82C16.1906 11.9867 15.7772 12.07 15.3172 12.07C14.7906 12.07 14.3239 11.9567 13.9172 11.73C13.5106 11.5033 13.1906 11.18 12.9572 10.76C12.7306 10.3333 12.6172 9.83333 12.6172 9.26C12.6172 8.68667 12.7306 8.18667 12.9572 7.76C13.1906 7.33333 13.5106 7.00667 13.9172 6.78C14.3239 6.55333 14.7906 6.44 15.3172 6.44C15.8506 6.44 16.3139 6.55333 16.7072 6.78C17.1072 7.00667 17.4106 7.31 17.6172 7.69C17.8306 8.07 17.9372 8.49 17.9372 8.95ZM17.0172 9.01C17.0372 8.60333 16.9706 8.26333 16.8172 7.99C16.6639 7.71667 16.4539 7.51333 16.1872 7.38C15.9206 7.24667 15.6306 7.18 15.3172 7.18C14.8172 7.18 14.3972 7.33667 14.0572 7.65C13.7172 7.95667 13.5339 8.41 13.5072 9.01H17.0172ZM26.6675 6.51L25.0875 12H24.1075L22.5975 7.53L21.0775 12H20.0875L18.5275 6.51H19.4475L20.6175 11.13L22.1375 6.51H23.0875L24.6175 11.12L25.7975 6.51H26.6675Z" fill="white"/>
<defs>
<linearGradient id="paint0_linear_2136_4206" x1="31" y1="17" x2="16.6656" y2="-9.1392" gradientUnits="userSpaceOnUse">
<stop offset="0.151042" stop-color="#FF00DD"/>
<stop offset="0.84375" stop-color="#930093"/>
</linearGradient>
<linearGradient id="paint1_linear_2136_4206" x1="31" y1="15.9375" x2="14.8843" y2="-6.53529" gradientUnits="userSpaceOnUse">
<stop stop-color="#930093"/>
<stop offset="0.96875" stop-color="#FF00FF"/>
</linearGradient>
</defs>
</svg>
