<svg width="23" height="13" viewBox="0 0 23 13" fill="none" xmlns="http://www.w3.org/2000/svg">
<path d="M11.5133 0.00606186C13.1614 0.00606186 14.8108 0.0197757 16.4589 0.0019477C18.8265 -0.0241086 20.6502 0.946831 21.9888 2.8462C23.5588 5.07333 23.2534 8.42636 21.4004 10.4437C20.0772 11.8836 18.4612 12.4966 16.544 12.4966C13.1307 12.498 9.7174 12.5049 6.30272 12.4939C4.34231 12.487 2.70678 11.7835 1.4505 10.2613C-0.187819 8.27551 -0.476442 5.53822 0.779836 3.29601C1.98592 1.1402 3.86127 0.0444606 6.35849 0.0115474C8.07629 -0.0117661 9.79548 0.00743324 11.5133 0.00743324V0.00606186ZM21.2052 6.25957C21.1898 3.80342 19.2378 1.83823 16.8159 1.83686C14.3674 1.83686 12.4056 3.79794 12.3945 6.25409C12.3833 8.72395 14.3647 10.755 16.8312 10.7042C19.3563 10.6535 21.247 8.70886 21.2066 6.2582L21.2052 6.25957ZM12.322 1.8684C10.0604 1.65584 8.44997 2.49375 7.53251 4.35746C6.77958 5.88656 6.90507 7.48285 7.92013 8.89537C8.97423 10.36 10.5024 10.8331 12.3568 10.6878C10.0172 7.75438 10.0283 4.84156 12.322 1.8684ZM7.0194 1.86977C4.75503 1.65447 3.13623 2.49512 2.22016 4.35609C1.45469 5.91261 1.60248 7.54044 2.67471 8.9516C3.73579 10.349 5.2291 10.8469 7.0445 10.6809C4.7132 7.73518 4.72993 4.83882 7.0194 1.8684V1.86977Z" fill="white"/>
</svg>
