<svg width="24" height="21" viewBox="0 0 24 21" fill="none" xmlns="http://www.w3.org/2000/svg">
<path fill-rule="evenodd" clip-rule="evenodd" d="M0 4.28571H24V2.52398C24 1.8517 23.7271 1.20631 23.2383 0.730697C22.758 0.263863 22.1077 0 21.4286 0H2.57143C1.8923 0 1.24197 0.263863 0.761692 0.730697C0.272914 1.20631 0 1.8517 0 2.52398V4.28571Z" fill="white" fill-opacity="0.6"/>
<path fill-rule="evenodd" clip-rule="evenodd" d="M6.61029 16.7786C6.17829 15.9599 5.93993 15.0226 5.93993 14.0508V10.5254C5.93993 9.94862 6.15634 9.3984 6.52855 8.99054C6.58917 8.92416 6.92325 8.6677 7.48361 8.41591C8.69705 7.87035 11.5208 6.73591 11.5208 6.73591C11.8302 6.61166 12.1761 6.61248 12.4849 6.73838C12.7938 6.86427 15.2703 7.87282 16.4684 8.41838C17.0208 8.6699 17.3508 8.92416 17.4114 8.99054C17.7836 9.3984 18 9.94862 18 10.5254V14.033C18 15.0122 17.7581 15.9557 17.32 16.7786H21.4286C22.1077 16.7786 22.758 16.5147 23.2383 16.0479C23.7271 15.5726 24 14.9269 24 14.2546V6H0V14.2546C0 14.9269 0.272914 15.5726 0.761692 16.0479C1.24197 16.5147 1.8923 16.7786 2.57143 16.7786H6.61029Z" fill="white" fill-opacity="0.6"/>
<path fill-rule="evenodd" clip-rule="evenodd" d="M12.0184 7.58866L11.9997 7.58838C11.8988 7.58811 11.7979 7.60731 11.7027 7.64543C11.7027 7.64543 9.1052 8.68882 7.98913 9.19048C7.5522 9.38687 7.28449 9.57531 7.23732 9.62687C6.95837 9.9327 6.79709 10.3455 6.79709 10.7778V14.0333C6.79709 15.5503 7.47457 16.97 8.60107 17.8522C9.43928 18.5085 10.4264 19.2815 10.9915 19.7242C11.2743 19.9455 11.6059 20.0571 11.9375 20.0582H11.9531C12.2795 20.0558 12.6056 19.9466 12.8854 19.7307C13.4581 19.2883 14.4628 18.5124 15.3156 17.8538C16.4555 16.9736 17.1429 15.5451 17.1429 14.0168V10.7778C17.1429 10.3455 16.9816 9.9327 16.7026 9.62687C16.6555 9.57531 16.3911 9.38852 15.9602 9.19213C14.8583 8.69046 12.2962 7.64681 12.2962 7.64681C12.2071 7.6106 12.113 7.59112 12.0184 7.58866ZM9.66941 14.6403L11.3587 16.0808C11.54 16.2355 11.7778 16.3076 12.0146 16.2799C12.2513 16.2522 12.4658 16.1272 12.6065 15.9349L14.6658 13.1232C14.9453 12.7414 14.8622 12.2046 14.4807 11.9251C14.0988 11.6456 13.5621 11.7287 13.2826 12.1103L11.7688 14.1775L10.7816 13.336C10.4218 13.0288 9.88033 13.0719 9.57341 13.432C9.26648 13.7919 9.30955 14.3333 9.66941 14.6403Z" fill="white" fill-opacity="0.6"/>
</svg>
