<svg width="15" height="15" viewBox="0 0 15 15" fill="none" xmlns="http://www.w3.org/2000/svg">
<path d="M0.5 7.50002C0.5 3.64067 3.64064 0.500025 7.5 0.500025C11.3594 0.500025 14.5 3.64067 14.5 7.50002C14.5 11.3594 11.3594 14.5 7.5 14.5C3.64064 14.5 0.5 11.3594 0.5 7.50002Z" stroke="white"/>
<path d="M7.50012 11.25C7.08612 11.25 6.75012 10.914 6.75012 10.5C6.75012 10.086 7.08612 9.75 7.50012 9.75C7.91487 9.75 8.25012 10.086 8.25012 10.5C8.25012 10.914 7.91487 11.25 7.50012 11.25ZM8.52687 7.941C8.43762 7.99725 8.31687 8.07375 8.24112 8.13525C8.27037 8.50425 8.03112 8.868 7.66362 8.952C7.60287 8.96625 7.54137 8.97225 7.48212 8.97225C7.14687 8.97225 6.84762 8.75925 6.76887 8.4165C6.72462 8.22375 6.67362 7.854 6.82737 7.54275C7.04487 7.10175 7.42287 6.86325 7.72737 6.67125C8.15787 6.4005 8.25012 6.31275 8.25012 6C8.25012 5.58675 7.91337 5.25 7.50012 5.25C7.08687 5.25 6.75012 5.58675 6.75012 6C6.75012 6.414 6.41412 6.75 6.00012 6.75C5.58612 6.75 5.25012 6.414 5.25012 6C5.25012 4.7595 6.25962 3.75 7.50012 3.75C8.74062 3.75 9.75012 4.7595 9.75012 6C9.75012 7.17 8.98437 7.653 8.52687 7.941Z" fill="white"/>
</svg>
