<svg width="17" height="16" viewBox="0 0 17 16" fill="none" xmlns="http://www.w3.org/2000/svg">
<path d="M1 8.00003C1 3.86497 4.36494 0.500027 8.5 0.500027C12.6351 0.500027 16 3.86497 16 8.00003C16 12.1351 12.6351 15.5 8.5 15.5C4.36494 15.5 1 12.1351 1 8.00003Z" stroke="#14F195"/>
<path d="M8.5001 12C8.0585 12 7.7001 11.6416 7.7001 11.2C7.7001 10.7584 8.0585 10.4 8.5001 10.4C8.9425 10.4 9.3001 10.7584 9.3001 11.2C9.3001 11.6416 8.9425 12 8.5001 12ZM9.5953 8.4704C9.5001 8.5304 9.3713 8.612 9.2905 8.6776C9.3217 9.0712 9.0665 9.4592 8.6745 9.5488C8.6097 9.564 8.5441 9.5704 8.4809 9.5704C8.1233 9.5704 7.8041 9.3432 7.7201 8.9776C7.6729 8.772 7.6185 8.3776 7.7825 8.0456C8.0145 7.5752 8.4177 7.3208 8.7425 7.116C9.2017 6.8272 9.3001 6.7336 9.3001 6.4C9.3001 5.9592 8.9409 5.6 8.5001 5.6C8.0593 5.6 7.7001 5.9592 7.7001 6.4C7.7001 6.8416 7.3417 7.2 6.9001 7.2C6.4585 7.2 6.1001 6.8416 6.1001 6.4C6.1001 5.0768 7.1769 4 8.5001 4C9.8233 4 10.9001 5.0768 10.9001 6.4C10.9001 7.648 10.0833 8.1632 9.5953 8.4704Z" fill="#14F195"/>
</svg>
