<svg width="22" height="15" viewBox="0 0 22 15" fill="none" xmlns="http://www.w3.org/2000/svg">
<path fill-rule="evenodd" clip-rule="evenodd" d="M20.5641 5.97616C20.6814 5.90791 20.7527 5.78116 20.7501 5.64541C20.7474 5.50966 20.6717 5.38553 20.5517 5.32178L11.1471 0.294156C11.0364 0.235281 10.9041 0.235281 10.7934 0.294156L1.44845 5.29028C1.32882 5.35403 1.25307 5.47778 1.25007 5.61316C1.24745 5.74891 1.31795 5.87528 1.43495 5.94428C4.06745 7.49416 7.4012 8.42341 11.0271 8.42341C14.6267 8.42341 17.9394 7.50691 20.5641 5.97616ZM19.5906 5.65816L10.9704 1.05016L2.40657 5.62853C4.83395 6.91628 7.81182 7.67341 11.0271 7.67341C14.2168 7.67341 17.1729 6.92828 19.5906 5.65816Z" fill="#B056FF"/>
<path fill-rule="evenodd" clip-rule="evenodd" d="M1.8151 5.29782C1.72885 5.24682 1.62535 5.23294 1.5286 5.25882C1.43147 5.28432 1.34897 5.34807 1.2991 5.43544C0.649223 6.57582 0.413348 7.71582 1.33322 8.85657C1.36135 8.89144 1.39585 8.92107 1.43485 8.94432C4.06735 10.4942 7.4011 11.4234 11.027 11.4234C14.6266 11.4234 17.9393 10.5069 20.564 8.97619L20.6097 8.94507C21.1647 8.49957 21.3256 7.87369 21.2881 7.25644C21.2367 6.41382 20.8017 5.60194 20.6783 5.43169C20.5651 5.27607 20.3525 5.23144 20.186 5.32857C17.666 6.79857 14.4837 7.67344 11.027 7.67344C7.54547 7.67344 4.34297 6.78619 1.8151 5.29782ZM1.77572 6.13894C1.4236 6.87019 1.31785 7.60182 1.87585 8.33307C4.39435 9.80007 7.5736 10.6734 11.027 10.6734C14.4717 10.6734 17.6442 9.80419 20.1601 8.34357C20.4882 8.06794 20.5625 7.67832 20.5396 7.30219C20.513 6.86757 20.36 6.44232 20.231 6.16482C17.6618 7.58194 14.4762 8.42344 11.027 8.42344C7.55597 8.42344 4.35235 7.57182 1.77572 6.13894Z" fill="#B056FF"/>
<path fill-rule="evenodd" clip-rule="evenodd" d="M14.1227 12.2658C13.4518 13.1021 12.2837 13.2022 11.3901 12.8051C10.6633 12.4822 10.1353 11.8387 10.159 11.0373C10.1653 10.8307 10.3382 10.6676 10.5452 10.6736C10.7518 10.6799 10.915 10.8528 10.9086 11.0598C10.8943 11.5503 11.2495 11.9219 11.6946 12.1196C12.3988 12.4327 13.3716 12.3247 13.7406 11.4521C13.7968 11.3189 13.9251 11.2301 14.0695 11.2237C14.2138 11.2173 14.3492 11.2946 14.4171 11.4224C14.7047 11.9643 15.286 12.1214 15.8173 12.0183C16.36 11.9129 16.8685 11.5406 16.9825 10.9747C17.0102 10.8352 17.1148 10.7238 17.2521 10.6867C17.3893 10.6496 17.536 10.6931 17.6305 10.7996C17.9271 11.1337 18.4033 11.1378 18.811 10.9777C19.1957 10.8269 19.5362 10.5239 19.6281 10.1339C19.6866 9.8868 19.6341 9.6093 19.4395 9.3213C19.3232 9.14993 19.3682 8.91668 19.54 8.8008C19.7113 8.68455 19.9446 8.72993 20.0605 8.9013C20.3957 9.39668 20.4587 9.88043 20.3582 10.3064C20.2116 10.9267 19.6975 11.4356 19.0851 11.6759C18.5695 11.8784 17.9961 11.8886 17.5262 11.6504C17.2116 12.2321 16.6108 12.6281 15.9606 12.7544C15.3062 12.8816 14.6132 12.7383 14.1227 12.2658Z" fill="#B056FF"/>
<path fill-rule="evenodd" clip-rule="evenodd" d="M1.87585 11.3325C2.36972 11.6201 2.8891 11.8848 3.4306 12.1248C3.61997 12.2085 3.70547 12.4301 3.62185 12.6195C3.53785 12.8088 3.31622 12.8943 3.12722 12.8103C2.53622 12.549 1.9711 12.2591 1.43485 11.9433C1.39585 11.9205 1.36135 11.8905 1.33322 11.8556C0.413348 10.7152 0.649223 9.57484 1.2991 8.43447C1.34897 8.34709 1.43147 8.28372 1.5286 8.25784C1.62535 8.23197 1.72885 8.24584 1.8151 8.29684C4.34297 9.78522 7.54547 10.6725 11.027 10.6725C14.4837 10.6725 17.666 9.79759 20.186 8.32759C20.3525 8.23047 20.5651 8.27509 20.6783 8.43109C20.8017 8.60097 21.2367 9.41284 21.2881 10.2555C21.3256 10.8727 21.1647 11.4986 20.6097 11.9441L20.564 11.9756C17.9393 13.5063 14.6266 14.4225 11.027 14.4225C9.34435 14.4225 7.72472 14.2226 6.20897 13.8532C6.00797 13.8041 5.8846 13.6012 5.93335 13.4002C5.98247 13.1988 6.18535 13.0755 6.38672 13.1246C7.8466 13.4801 9.4066 13.6725 11.027 13.6725C14.4717 13.6725 17.6442 12.8036 20.1601 11.3426C20.4882 11.067 20.5625 10.6773 20.5396 10.3012C20.513 9.86659 20.36 9.44134 20.231 9.16422C17.6618 10.5813 14.4762 11.4225 11.027 11.4225C7.55597 11.4225 4.35235 10.5708 1.77572 9.13797C1.4236 9.86959 1.31785 10.6008 1.87585 11.3325Z" fill="#B056FF"/>
<path fill-rule="evenodd" clip-rule="evenodd" d="M2.22883 9.37627C2.27083 9.41827 2.30045 9.49401 2.3372 9.58664C2.39233 9.72802 2.44408 9.90314 2.49583 10.1004C2.6642 10.7439 2.8262 11.6079 3.0512 12.3778C3.21245 12.9301 3.40858 13.4353 3.6527 13.7968C3.8522 14.0919 4.08883 14.2985 4.35395 14.3983C4.60333 14.492 4.93445 14.4763 5.31808 14.3431C5.76583 14.1879 6.3092 13.8721 6.87583 13.4956C7.67908 12.9616 8.53483 12.305 9.22145 11.8629C9.47495 11.6994 9.70295 11.5666 9.89308 11.4868C9.97783 11.4511 10.0491 11.4245 10.1083 11.4234C10.3153 11.4196 10.4803 11.249 10.477 11.042C10.4732 10.835 10.3026 10.67 10.0956 10.6734C9.87208 10.6771 9.54395 10.7983 9.1592 11.021C8.42458 11.4463 7.40645 12.2424 6.4607 12.8709C5.95445 13.2076 5.4722 13.496 5.07208 13.6348C4.8902 13.6978 4.73645 13.7409 4.61795 13.6963C4.43945 13.6291 4.30708 13.4499 4.18183 13.226C4.0187 12.9339 3.8867 12.5638 3.7712 12.1674C3.50945 11.2715 3.3332 10.2474 3.1322 9.59489C3.02308 9.23901 2.89108 8.97802 2.75908 8.84602C2.61283 8.69977 2.37508 8.69977 2.22883 8.84602C2.08258 8.99227 2.08258 9.23002 2.22883 9.37627Z" fill="#B056FF"/>
<path fill-rule="evenodd" clip-rule="evenodd" d="M5.75 6.25H6.125C6.332 6.25 6.5 6.082 6.5 5.875C6.5 5.668 6.332 5.5 6.125 5.5H5.75C5.543 5.5 5.375 5.668 5.375 5.875C5.375 6.082 5.543 6.25 5.75 6.25Z" fill="#B056FF"/>
<path fill-rule="evenodd" clip-rule="evenodd" d="M8 4.75H8.375C8.582 4.75 8.75 4.582 8.75 4.375C8.75 4.168 8.582 4 8.375 4H8C7.793 4 7.625 4.168 7.625 4.375C7.625 4.582 7.793 4.75 8 4.75Z" fill="#B056FF"/>
<path fill-rule="evenodd" clip-rule="evenodd" d="M9.5 7H9.875C10.082 7 10.25 6.832 10.25 6.625C10.25 6.418 10.082 6.25 9.875 6.25H9.5C9.293 6.25 9.125 6.418 9.125 6.625C9.125 6.832 9.293 7 9.5 7Z" fill="#B056FF"/>
<path fill-rule="evenodd" clip-rule="evenodd" d="M11 3.625H11.375C11.582 3.625 11.75 3.457 11.75 3.25C11.75 3.043 11.582 2.875 11.375 2.875H11C10.793 2.875 10.625 3.043 10.625 3.25C10.625 3.457 10.793 3.625 11 3.625Z" fill="#B056FF"/>
<path fill-rule="evenodd" clip-rule="evenodd" d="M12.5 5.5H12.875C13.082 5.5 13.25 5.332 13.25 5.125C13.25 4.918 13.082 4.75 12.875 4.75H12.5C12.293 4.75 12.125 4.918 12.125 5.125C12.125 5.332 12.293 5.5 12.5 5.5Z" fill="#B056FF"/>
<path fill-rule="evenodd" clip-rule="evenodd" d="M15.875 5.875H16.25C16.457 5.875 16.625 5.707 16.625 5.5C16.625 5.293 16.457 5.125 16.25 5.125H15.875C15.668 5.125 15.5 5.293 15.5 5.5C15.5 5.707 15.668 5.875 15.875 5.875Z" fill="#B056FF"/>
</svg>
