<svg width="19" height="19" viewBox="0 0 19 19" fill="none" xmlns="http://www.w3.org/2000/svg">
<path d="M8.82018 17.6404C3.95833 17.6404 0 13.682 0 8.82018C0 3.95833 3.95833 0 8.82018 0C13.682 0 17.6404 3.95833 17.6404 8.82018C17.6404 13.682 13.682 17.6404 8.82018 17.6404ZM8.82018 1.29076C4.66394 1.29076 1.29076 4.67254 1.29076 8.82018C1.29076 12.9678 4.66394 16.3496 8.82018 16.3496C12.9764 16.3496 16.3496 12.9678 16.3496 8.82018C16.3496 4.67254 12.9764 1.29076 8.82018 1.29076Z" fill="#9E9E9E"/>
<path d="M17.8564 18.4999C17.6929 18.4999 17.5294 18.4396 17.4004 18.3105L15.6793 16.5895C15.4298 16.34 15.4298 15.9269 15.6793 15.6774C15.9289 15.4278 16.3419 15.4278 16.5915 15.6774L18.3125 17.3984C18.562 17.648 18.562 18.061 18.3125 18.3105C18.1834 18.4396 18.0199 18.4999 17.8564 18.4999Z" fill="#9E9E9E"/>
</svg>
