<svg width="30" height="34" viewBox="0 0 30 34" fill="none" xmlns="http://www.w3.org/2000/svg">
<path d="M28.356 21.1582V12.5658C29.3295 12.0794 30 11.0733 30 9.91301C30 8.27865 28.6703 6.94899 27.036 6.94899C26.4311 6.94899 25.8683 7.13144 25.3989 7.44372L17.9578 3.14753C17.9615 3.0868 17.964 3.02567 17.964 2.96402C17.964 1.32966 16.6344 0 15 0C13.3656 0 12.036 1.32966 12.036 2.96402C12.036 3.02574 12.0385 3.0868 12.0422 3.14753L4.60109 7.44372C4.13165 7.13144 3.56888 6.94899 2.96402 6.94899C1.32966 6.94899 0 8.27865 0 9.91301C0 11.0733 0.670462 12.0794 1.64404 12.5658V21.1582C0.670462 21.6446 0 22.6507 0 23.811C0 25.4453 1.32966 26.775 2.96402 26.775C3.56888 26.775 4.13165 26.5926 4.60109 26.2803L12.0422 30.5765C12.0384 30.6372 12.0359 30.6983 12.0359 30.76C12.0359 32.3943 13.3656 33.724 14.9999 33.724C16.6343 33.724 17.964 32.3943 17.964 30.76C17.964 30.6983 17.9615 30.6373 17.9577 30.5765L25.3988 26.2803C25.8683 26.5926 26.4311 26.775 27.0359 26.775C28.6703 26.775 29.9999 25.4453 29.9999 23.811C30 22.6507 29.3295 21.6446 28.356 21.1582ZM15 27.7959C14.1419 27.7959 13.3682 28.1628 12.8264 28.7475L5.79552 24.6882C5.88161 24.4109 5.92811 24.1163 5.92811 23.811C5.92811 22.4021 4.93971 21.2205 3.62013 20.9211V12.8029C4.93971 12.5035 5.92811 11.3218 5.92811 9.91301C5.92811 9.60772 5.88161 9.31316 5.79552 9.03579L12.8264 4.97646C13.3682 5.56117 14.1419 5.92805 15 5.92805C15.8581 5.92805 16.6318 5.56117 17.1735 4.97646L24.2045 9.03579C24.1185 9.31309 24.072 9.60772 24.072 9.91301C24.072 11.3219 25.0604 12.5035 26.3799 12.8029V20.921C25.0604 21.2204 24.072 22.4021 24.072 23.8109C24.072 24.1162 24.1185 24.4108 24.2045 24.6881L17.1735 28.7475C16.6318 28.1628 15.8581 27.7959 15 27.7959Z" fill="white"/>
<path d="M8.3562 21.5241H10.3322V18.8141H13.0255V21.5241H15.0015V12.2001H8.3562V21.5241ZM13.0255 14.1761V16.838H10.3322V14.1761H13.0255Z" fill="white"/>
<path d="M18.3297 12.2001H16.9907V14.1761H18.3297V19.5481H16.9907V21.5241H18.3297H20.3057H21.6445V19.5481H20.3057V14.1761H21.6445V12.2001H20.3057H18.3297Z" fill="white"/>
</svg>
