<svg width="24" height="24" viewBox="0 0 24 24" fill="none" xmlns="http://www.w3.org/2000/svg">
<rect opacity="0.01" width="24" height="24" fill="#FF00DD"/>
<path d="M11 11.8434L2 8V16.5617C2.00968 17.2907 2.43538 17.9477 3.09091 18.2453L10.9345 22H11V11.8434Z" fill="#FF00DD"/>
<path d="M12 10L21 6.19188C20.8485 6.02215 20.6652 5.88438 20.4606 5.78653L12.8461 2.19175C12.3105 1.93608 11.6895 1.93608 11.1539 2.19175L3.53937 5.78653C3.33479 5.88438 3.15147 6.02215 3 6.19188L12 10Z" fill="#FF00DD"/>
<path d="M13 11.8434V22H13.0545L20.9091 18.2453C21.5611 17.9493 21.9861 17.2977 22 16.5728V8L13 11.8434Z" fill="#FF00DD"/>
</svg>
