<svg width="12" height="12" viewBox="0 0 12 12" fill="none" xmlns="http://www.w3.org/2000/svg">
<path d="M10.7439 8.92178C10.5362 8.76726 10.2426 8.8104 10.0881 9.01808C10.0031 9.13232 9.91213 9.24437 9.81775 9.35113C9.64631 9.54508 9.66452 9.84133 9.85846 10.0128C9.94767 10.0916 10.0584 10.1304 10.1688 10.1304C10.2984 10.1304 10.4275 10.0769 10.5201 9.97206C10.6319 9.84564 10.7396 9.71294 10.8402 9.57763C10.9948 9.36995 10.9517 9.07628 10.7439 8.92178Z" fill="#9E9E9E"/>
<path d="M11.5275 6.72371C11.2747 6.66866 11.0248 6.82909 10.9698 7.08202C10.9394 7.22117 10.9028 7.36058 10.8609 7.49642C10.7844 7.74378 10.923 8.00624 11.1703 8.08267C11.2164 8.09689 11.263 8.10367 11.3089 8.10367C11.509 8.10367 11.6944 7.97443 11.7566 7.77315C11.8064 7.61195 11.8499 7.4465 11.8858 7.28143C11.9409 7.02849 11.7804 6.77879 11.5275 6.72371Z" fill="#9E9E9E"/>
<path d="M8.48801 10.4238C8.36356 10.4933 8.2347 10.5582 8.10504 10.6168C7.8691 10.7233 7.76421 11.001 7.87076 11.2369C7.94904 11.4102 8.11964 11.5128 8.29824 11.5128C8.36274 11.5128 8.42829 11.4994 8.49089 11.4712C8.64471 11.4017 8.79748 11.3247 8.94504 11.2423C9.17109 11.1161 9.25202 10.8306 9.12579 10.6046C8.99963 10.3785 8.71406 10.2976 8.48801 10.4238Z" fill="#9E9E9E"/>
<path d="M5.53097 2.25V5.80584L3.81209 7.5247C3.62904 7.70777 3.62904 8.00456 3.81209 8.18761C3.90364 8.27916 4.02357 8.32491 4.14357 8.32491C4.26352 8.32491 4.3835 8.27913 4.47504 8.18761L6.3312 6.33145C6.41909 6.24356 6.46847 6.12431 6.46847 6V2.25C6.46847 1.99111 6.25861 1.78125 5.99972 1.78125C5.74083 1.78125 5.53097 1.99111 5.53097 2.25Z" fill="#9E9E9E"/>
<path d="M11.5312 1.00781C11.2724 1.00781 11.0625 1.21767 11.0625 1.47656V2.77819C9.97144 1.06706 8.06604 0 6 0C4.39734 0 2.89062 0.624117 1.75734 1.75734C0.624117 2.89062 0 4.39734 0 6C0 7.60266 0.624117 9.10938 1.75734 10.2427C2.89062 11.3759 4.39734 12 6 12C6.00396 12 6.00778 11.9995 6.01172 11.9994C6.01566 11.9995 6.01948 12 6.02344 12C6.19238 12 6.36298 11.9929 6.53055 11.9789C6.78853 11.9572 6.98016 11.7306 6.95857 11.4726C6.93694 11.2147 6.7106 11.0229 6.45232 11.0446C6.31066 11.0565 6.16638 11.0625 6.02344 11.0625C6.01948 11.0625 6.01566 11.063 6.01172 11.0631C6.00778 11.063 6.00396 11.0625 6 11.0625C3.20852 11.0625 0.9375 8.79148 0.9375 6C0.9375 3.20852 3.20852 0.9375 6 0.9375C7.79902 0.9375 9.45368 1.8964 10.3579 3.42188H9.06898C8.81009 3.42188 8.60023 3.63173 8.60023 3.89062C8.60023 4.14952 8.81009 4.35938 9.06898 4.35938H10.5C10.7855 4.35938 11.0525 4.27915 11.2799 4.14016C11.2946 4.13182 11.3086 4.12284 11.322 4.11316C11.73 3.84478 12 3.38313 12 2.85938V1.47656C12 1.21767 11.7901 1.00781 11.5312 1.00781Z" fill="#9E9E9E"/>
</svg>
