<svg width="24" height="24" viewBox="0 0 24 24" fill="none" xmlns="http://www.w3.org/2000/svg">
<path fill-rule="evenodd" clip-rule="evenodd" d="M7.46674 23.1187C7.85604 23.4301 8.43274 23.1529 8.43274 22.6544V15.6154C8.43274 15.1169 7.85604 14.8397 7.46674 15.1512L3.06738 18.6707C2.76986 18.9086 2.76986 19.3612 3.06738 19.5992L7.46674 23.1187Z" fill="#14F195"/>
<path fill-rule="evenodd" clip-rule="evenodd" d="M16.5338 0.88153C16.1446 0.570082 15.5679 0.847259 15.5679 1.34581V8.38479C15.5679 8.88333 16.1446 9.16051 16.5338 8.84906L20.9333 5.32957C21.2308 5.09155 21.2308 4.63904 20.9333 4.40102L16.5338 0.88153Z" fill="#FF00DD"/>
<path fill-rule="evenodd" clip-rule="evenodd" d="M19.1351 4.86517C19.1351 4.20843 18.6028 3.67603 17.946 3.67603H7.24373C3.30326 3.67603 0.108887 6.8704 0.108887 10.8109C0.108887 11.8478 0.330816 12.836 0.730903 13.7281C0.999649 14.3273 1.7033 14.5952 2.30253 14.3264C2.90177 14.0577 3.16969 13.3541 2.90093 12.7549C2.63544 12.1628 2.48717 11.5058 2.48717 10.8109C2.48717 8.18389 4.61675 6.05431 7.24373 6.05431H17.946C18.6028 6.05431 19.1351 5.52191 19.1351 4.86517Z" fill="#FF00DD"/>
<path fill-rule="evenodd" clip-rule="evenodd" d="M4.86523 19.1348C4.86523 19.7916 5.39764 20.3239 6.05438 20.3239H16.7566C20.6971 20.3239 23.8915 17.1296 23.8915 13.1891C23.8915 12.1522 23.6696 11.164 23.2695 10.2719C23.0007 9.67269 22.2971 9.40475 21.6979 9.67352C21.0986 9.94226 20.8306 10.6459 21.0994 11.2451C21.3649 11.8372 21.5132 12.4942 21.5132 13.1891C21.5132 15.816 19.3836 17.9457 16.7566 17.9457H6.05438C5.39764 17.9457 4.86523 18.478 4.86523 19.1348Z" fill="#14F195"/>
</svg>
