<svg width="18" height="20" viewBox="0 0 18 20" fill="none" xmlns="http://www.w3.org/2000/svg">
<path fill-rule="evenodd" clip-rule="evenodd" d="M17.8949 13.6268C18.1441 13.3154 17.9223 12.854 17.5235 12.854L11.8923 12.854C11.4936 12.854 11.2718 13.3154 11.521 13.6268L14.3366 17.1463C14.5269 17.3843 14.889 17.3843 15.0793 17.1463L17.8949 13.6268Z" fill="#14F195"/>
<path fill-rule="evenodd" clip-rule="evenodd" d="M0.105126 6.37337C-0.144032 6.68473 0.0777095 7.14612 0.476547 7.14612L6.10773 7.14612C6.50657 7.14612 6.72831 6.68473 6.47915 6.37337L3.66356 2.8538C3.47314 2.61578 3.11113 2.61578 2.92072 2.8538L0.105126 6.37337Z" fill="#14F195"/>
<path fill-rule="evenodd" clip-rule="evenodd" d="M3.29219 4.29218C2.7668 4.29218 2.34088 4.71808 2.34088 5.24349L2.34088 13.8053C2.34088 16.9577 4.89638 19.5132 8.04876 19.5132C8.8783 19.5132 9.66884 19.3356 10.3825 19.0156C10.8619 18.8006 11.0762 18.2377 10.8612 17.7583C10.6462 17.2789 10.0833 17.0645 9.60396 17.2795C9.13031 17.4919 8.60471 17.6106 8.04876 17.6106C5.94717 17.6106 4.24351 15.9069 4.24351 13.8053L4.24351 5.24349C4.24351 4.71808 3.81759 4.29218 3.29219 4.29218Z" fill="#14F195"/>
<path fill-rule="evenodd" clip-rule="evenodd" d="M14.7079 15.7079C15.2333 15.7079 15.6592 15.282 15.6592 14.7566L15.6592 6.19476C15.6592 3.04239 13.1037 0.486881 9.9513 0.486881C9.12176 0.486881 8.33121 0.664396 7.61754 0.984513C7.13817 1.19951 6.92382 1.7624 7.13884 2.24177C7.35384 2.72123 7.91673 2.93556 8.39609 2.72056C8.86975 2.50813 9.39535 2.38951 9.9513 2.38951C12.0528 2.38951 13.7566 4.09321 13.7566 6.19476L13.7566 14.7566C13.7566 15.282 14.1825 15.7079 14.7079 15.7079Z" fill="#14F195"/>
</svg>
