<svg width="20" height="20" viewBox="0 0 20 20" fill="none" xmlns="http://www.w3.org/2000/svg">
<path d="M0.999933 2.00001C1.55264 2.00001 1.99994 2.44781 1.99994 3.00001V4.00351C3.85674 1.5331 6.80145 0 9.99996 0C14.7021 0 18.7129 3.19871 19.7529 7.77832C19.875 8.31692 19.5371 8.85302 18.999 8.97512C18.9238 8.99222 18.8496 9.00002 18.7764 9.00002C18.3203 9.00002 17.9073 8.68552 17.8018 8.22172C16.9707 4.55861 13.7617 2.00001 9.99996 2.00001C7.11535 2.00001 4.49834 3.56551 3.08564 6.00002H4.99994C5.55265 6.00002 5.99995 6.44782 5.99995 7.00002C5.99995 7.55222 5.55265 8.00002 4.99994 8.00002H0.999933C0.447233 8.00002 -6.86646e-05 7.55222 -6.86646e-05 7.00002V3.00001C-6.86646e-05 2.44781 0.447233 2.00001 0.999933 2.00001Z" fill="#14F195"/>
<path d="M19 18.0001C18.4473 18.0001 18 17.5523 18 17.0001V15.9749C16.1332 18.4851 13.2118 20.0001 9.99998 20.0001C5.29786 20.0001 1.28705 16.8014 0.247051 12.2218C0.12495 11.6832 0.462851 11.1471 1.00095 11.025C1.54485 10.8995 2.07615 11.2398 2.19826 11.7784C3.02926 15.4415 6.23827 18.0001 9.99998 18.0001C12.8856 18.0001 15.478 16.4726 16.9081 14.0001H15C14.4473 14.0001 14 13.5523 14 13.0001C14 12.4479 14.4473 12.0001 15 12.0001H19C19.5527 12.0001 20 12.4479 20 13.0001V17.0001C20 17.5523 19.5527 18.0001 19 18.0001Z" fill="#14F195"/>
</svg>
