<svg width="14" height="16" viewBox="0 0 14 16" fill="none" xmlns="http://www.w3.org/2000/svg">
<path d="M1.20284 8.20297C1.15423 8.072 1.15423 7.92793 1.20284 7.79697C1.67634 6.64888 2.48006 5.66724 3.51213 4.97649C4.54419 4.28574 5.75812 3.91699 7.00001 3.91699C8.2419 3.91699 9.45583 4.28574 10.4879 4.97649C11.52 5.66724 12.3237 6.64888 12.7972 7.79697C12.8458 7.92793 12.8458 8.072 12.7972 8.20297C12.3237 9.35105 11.52 10.3327 10.4879 11.0234C9.45583 11.7142 8.2419 12.0829 7.00001 12.0829C5.75812 12.0829 4.54419 11.7142 3.51213 11.0234C2.48006 10.3327 1.67634 9.35105 1.20284 8.20297Z" stroke="#9E9E9E" stroke-width="1.16667" stroke-linecap="round" stroke-linejoin="round"/>
<path d="M7 9.75C7.9665 9.75 8.75 8.9665 8.75 8C8.75 7.0335 7.9665 6.25 7 6.25C6.0335 6.25 5.25 7.0335 5.25 8C5.25 8.9665 6.0335 9.75 7 9.75Z" stroke="#9E9E9E" stroke-width="1.16667" stroke-linecap="round" stroke-linejoin="round"/>
</svg>
