<svg width="23" height="23" viewBox="0 0 23 23" fill="none" xmlns="http://www.w3.org/2000/svg">
<g clip-path="url(#clip0_2091_2632)">
<path d="M7.47186 12.2925C8.53679 12.2925 9.40008 11.4292 9.40008 10.3643C9.40008 9.29933 8.53679 8.43604 7.47186 8.43604C6.40693 8.43604 5.54364 9.29933 5.54364 10.3643C5.54364 11.4292 6.40693 12.2925 7.47186 12.2925Z" fill="white"/>
<path d="M15.1848 12.2925C16.2497 12.2925 17.113 11.4292 17.113 10.3643C17.113 9.29933 16.2497 8.43604 15.1848 8.43604C14.1198 8.43604 13.2565 9.29933 13.2565 10.3643C13.2565 11.4292 14.1198 12.2925 15.1848 12.2925Z" fill="white"/>
<path d="M11.0367 20.4874C4.95071 20.4874 0 15.5367 0 9.4507V6.73191C0 4.35055 1.94027 2.41269 4.32163 2.41028H10.3642V0.43385C10.3642 0.195233 10.5594 0 10.798 0H11.8586C12.0972 0 12.2924 0.195233 12.2924 0.43385V2.41028H18.335C20.7163 2.41028 22.6542 4.35055 22.6566 6.73191V9.64111C22.6566 10.5064 22.5457 11.3693 22.3312 12.2081C22.2637 12.4105 22.1022 12.531 21.9142 12.531C21.8685 12.531 21.8227 12.5238 21.7769 12.5093L20.7645 12.1791C20.55 12.1092 20.4247 11.8827 20.4801 11.6633C20.644 11.0029 20.726 10.3208 20.7284 9.64352V6.73432C20.7284 5.41349 19.6558 4.34091 18.335 4.34091H4.32163C3.0008 4.34091 1.92822 5.41349 1.92822 6.73432V9.45311C1.92822 14.4761 6.01364 18.5616 11.0367 18.5616H11.8586C12.0972 18.5616 12.2924 18.7568 12.2924 18.9954V20.0559C12.2924 20.2945 12.0972 20.4898 11.8586 20.4898H11.0367V20.4874Z" fill="white"/>
<path d="M17.4794 22.23C17.3926 22.23 17.3058 22.2083 17.2311 22.1649L14.4111 20.5621C14.2544 20.4729 14.1556 20.3042 14.1556 20.1258V16.5707C14.1556 16.3947 14.2496 16.2284 14.4014 16.1392C14.4786 16.0934 14.5677 16.0693 14.6593 16.0693C14.7437 16.0693 14.8256 16.091 14.8979 16.1296L17.718 17.6625C17.8795 17.7517 17.9807 17.9204 17.9807 18.1036V21.7287C17.9807 21.907 17.8843 22.0733 17.73 22.1625C17.6529 22.2059 17.5661 22.23 17.4769 22.23H17.4794ZM14.8787 19.9957L17.2576 21.3478V18.2314L14.8787 16.937V19.9933V19.9957Z" fill="white"/>
<path d="M18.3904 16.6767C18.3085 16.6767 18.2265 16.6574 18.1542 16.6188L15.1245 15.0136C14.9582 14.9268 14.8569 14.7557 14.8569 14.5677C14.8569 14.3797 14.9606 14.211 15.1245 14.1242L18.1542 12.531C18.2265 12.4924 18.306 12.4731 18.388 12.4731C18.4699 12.4731 18.5471 12.4924 18.6194 12.5286L21.6949 14.1242C21.8612 14.211 21.9648 14.3821 21.9673 14.5701C21.9673 14.7581 21.8636 14.9292 21.6973 15.016L18.6218 16.6212C18.5495 16.6574 18.4699 16.6791 18.388 16.6791L18.3904 16.6767ZM18.482 15.9729L18.5712 15.8331L20.9887 14.5725L18.3928 13.2252L15.8331 14.5725L18.3928 15.9271L18.5543 15.8427L18.482 15.9753V15.9729Z" fill="white"/>
<path d="M19.3979 22.23C19.3087 22.23 19.222 22.2059 19.1448 22.1625C18.9906 22.0733 18.8942 21.907 18.8942 21.7287V18.1036C18.8942 17.918 18.9954 17.7493 19.1569 17.6625L21.9769 16.1296C22.0492 16.091 22.1336 16.0693 22.2155 16.0693C22.3071 16.0693 22.3963 16.0934 22.4734 16.1392C22.6253 16.2284 22.7193 16.3947 22.7193 16.5707V20.1258C22.7193 20.3066 22.6229 20.4729 22.4662 20.5621L19.6462 22.1649C19.5715 22.2083 19.4847 22.23 19.3979 22.23ZM19.6197 18.2314V21.3478L21.9986 19.9957V16.9394L19.6197 18.2338V18.2314Z" fill="white"/>
</g>
<defs>
<clipPath id="clip0_2091_2632">
<rect width="22.7217" height="22.23" fill="white"/>
</clipPath>
</defs>
</svg>
