<svg width="24" height="26" viewBox="0 0 24 26" fill="none" xmlns="http://www.w3.org/2000/svg">
<path d="M22.6094 10.7808V15.2185C22.6094 15.4437 22.4269 15.6263 22.2017 15.6263C21.9562 15.6263 21.7854 15.435 21.7854 15.2185V10.7808C21.7854 10.5556 21.968 10.373 22.1931 10.373C22.4386 10.373 22.6094 10.5643 22.6094 10.7808Z" fill="white"/>
<path d="M2.2146 10.7808V15.2185C2.2146 15.4437 2.03202 15.6263 1.80686 15.6263C1.5614 15.6263 1.39056 15.435 1.39056 15.2185V10.7808C1.39056 10.5556 1.57314 10.373 1.79831 10.373C2.04376 10.373 2.2146 10.5643 2.2146 10.7808Z" fill="white"/>
<path d="M9.33343 4.29393L4.84868 6.62692C4.6352 6.73796 4.37224 6.64103 4.28278 6.41762C4.19651 6.20218 4.29179 5.98804 4.46921 5.89575L8.95396 3.56275C9.16744 3.45171 9.43041 3.54864 9.51987 3.77206C9.60613 3.98744 9.51086 4.20164 9.33343 4.29393Z" fill="white"/>
<path d="M9.52294 22.2204C9.42405 22.4644 9.15815 22.5437 8.95389 22.4375L4.46914 20.1045C4.2828 20.0075 4.20071 19.785 4.27956 19.5903C4.37844 19.3463 4.64435 19.267 4.84861 19.3733L9.33336 21.7063C9.51974 21.8032 9.60184 22.0257 9.52294 22.2204Z" fill="white"/>
<path d="M19.7204 6.40988C19.6215 6.6539 19.3556 6.73316 19.1513 6.62691L14.6666 4.29392C14.4803 4.19699 14.3982 3.97445 14.477 3.77977C14.5759 3.53575 14.8418 3.45649 15.0461 3.56274L19.5308 5.89573C19.7172 5.99266 19.7993 6.2152 19.7204 6.40988Z" fill="white"/>
<path d="M19.5308 20.1045L15.0461 22.4375C14.8326 22.5485 14.5696 22.4516 14.4802 22.2282C14.3939 22.0127 14.4892 21.7986 14.6666 21.7063L19.1514 19.3733C19.3648 19.2623 19.6278 19.3592 19.7173 19.5826C19.8035 19.798 19.7082 20.0122 19.5308 20.1045Z" fill="white"/>
<path d="M12.0041 5.06836C12.2294 5.06836 12.412 5.25099 12.412 5.47626V5.84089C12.412 6.38619 11.588 6.38604 11.588 5.84089V5.47626C11.588 5.26134 11.7571 5.06836 12.0041 5.06836Z" fill="white"/>
<path d="M12.412 20.1589V20.5236C12.412 20.7488 12.2294 20.9315 12.0041 20.9315C11.7575 20.9315 11.588 20.7388 11.588 20.5236V20.1589C11.588 19.6136 12.412 19.6138 12.412 20.1589Z" fill="white"/>
<path d="M5.37119 10.0688L4.46908 9.59637C4.28357 9.49919 4.20168 9.27731 4.28022 9.08315C4.37926 8.83836 4.64594 8.75884 4.85055 8.86597L5.75333 9.33855C6.23761 9.59179 5.85278 10.3219 5.37119 10.0688Z" fill="white"/>
<path d="M19.7198 9.08313C19.7983 9.27729 19.7165 9.49916 19.5309 9.59634L18.6288 10.0688C18.1496 10.3206 17.7592 9.59346 18.2467 9.33853L19.1494 8.86594C19.3538 8.75902 19.6206 8.83798 19.7198 9.08313Z" fill="white"/>
<path d="M5.75332 16.6617L4.85054 17.1343C4.63671 17.2463 4.37291 17.149 4.2833 16.9248C4.1975 16.7103 4.29205 16.4966 4.46907 16.4039L5.37118 15.9314C5.8538 15.6783 6.23698 16.4088 5.75332 16.6617Z" fill="white"/>
<path d="M19.7198 16.9172C19.6208 17.162 19.3541 17.2415 19.1495 17.1344L18.2467 16.6618C17.7642 16.4095 18.1454 15.6781 18.6288 15.9315L19.531 16.404C19.7165 16.5012 19.7984 16.723 19.7198 16.9172Z" fill="white"/>
<path d="M12.5665 21.7559H11.4334C10.7519 21.7559 10.1974 22.3104 10.1974 22.9919V24.125C10.1974 24.8065 10.7519 25.361 11.4334 25.361H12.5665C13.2481 25.361 13.8025 24.8065 13.8025 24.125V22.9919C13.8025 22.3104 13.2481 21.7559 12.5665 21.7559Z" fill="white"/>
<path d="M12.5665 0.639648H11.4334C10.7519 0.639648 10.1974 1.19417 10.1974 1.8757V3.00874C10.1974 3.69027 10.7519 4.24479 11.4334 4.24479H12.5665C13.2481 4.24479 13.8025 3.69027 13.8025 3.00874V1.8757C13.8025 1.19417 13.2481 0.639648 12.5665 0.639648Z" fill="white"/>
<path d="M2.3691 16.4512H1.23605C0.554471 16.4512 0 17.0057 0 17.6872V18.8203C0 19.5018 0.554471 20.0563 1.23605 20.0563H2.3691C3.05067 20.0563 3.60515 19.5018 3.60515 18.8203V17.6872C3.60515 17.0057 3.05067 16.4512 2.3691 16.4512Z" fill="white"/>
<path d="M22.7639 5.94434H21.6309C20.9493 5.94434 20.3948 6.49886 20.3948 7.18039V8.31343C20.3948 8.99496 20.9493 9.54948 21.6309 9.54948H22.7639C23.4455 9.54948 24 8.99496 24 8.31343V7.18039C24 6.49886 23.4455 5.94434 22.7639 5.94434Z" fill="white"/>
<path d="M22.7639 16.4512H21.6309C20.9493 16.4512 20.3948 17.0057 20.3948 17.6872V18.8203C20.3948 19.5018 20.9493 20.0563 21.6309 20.0563H22.7639C23.4455 20.0563 24 19.5018 24 18.8203V17.6872C24 17.0057 23.4455 16.4512 22.7639 16.4512Z" fill="white"/>
<path d="M2.3691 5.94434H1.23605C0.554471 5.94434 0 6.49886 0 7.18039V8.31343C0 8.99496 0.554471 9.54948 1.23605 9.54948H2.3691C3.05067 9.54948 3.60515 8.99496 3.60515 8.31343V7.18039C3.60515 6.49886 3.05067 5.94434 2.3691 5.94434Z" fill="white"/>
<path d="M11.4805 12.9809L7.25729 10.6816C7.12004 10.6069 6.95276 10.7062 6.95276 10.8625V15.7817C6.95276 15.9326 7.03527 16.0714 7.16778 16.1436L11.2835 18.3843C11.4207 18.459 11.588 18.3597 11.588 18.2034V13.1618C11.5879 13.0864 11.5467 13.0169 11.4805 12.9809Z" fill="white"/>
<path d="M12.0985 12.2714L16.3029 9.98239C16.4462 9.90436 16.4462 9.69856 16.3029 9.62053L12.1971 7.38514C12.0742 7.31824 11.9258 7.31824 11.8031 7.38514L7.69722 9.62053C7.55389 9.69856 7.55389 9.90436 7.69722 9.98239L11.9016 12.2714C11.9629 12.3049 12.0371 12.3049 12.0985 12.2714Z" fill="white"/>
<path d="M12.412 13.1618V18.2034C12.412 18.3597 12.5792 18.459 12.7165 18.3843L16.8322 16.1436C16.9647 16.0714 17.0472 15.9326 17.0472 15.7817V10.8625C17.0472 10.7062 16.8799 10.6069 16.7426 10.6816L12.5195 12.9809C12.4532 13.0169 12.412 13.0864 12.412 13.1618Z" fill="white"/>
</svg>
