<svg width="24" height="24" viewBox="0 0 24 24" fill="none" xmlns="http://www.w3.org/2000/svg">
<path fill-rule="evenodd" clip-rule="evenodd" d="M13.8904 4.80884L13.8491 4.78495L13.8491 4.78494C12.8123 4.18638 11.9765 3.70379 11.2667 3.39908C10.5321 3.0837 9.84366 2.91789 9.11264 3.04058C8.87696 3.08014 8.6456 3.14213 8.42172 3.22571C7.72729 3.48497 7.21401 3.97278 6.73549 4.61322C6.4436 5.00388 6.14364 5.48107 5.81152 6.04071C6.1914 5.94284 6.58967 5.89078 7.00011 5.89078H7.67039C7.76199 5.75332 7.85039 5.62711 7.93712 5.51105C8.32989 4.98536 8.63095 4.74873 8.94636 4.63097C9.08069 4.58082 9.21951 4.54362 9.36092 4.51989C9.69294 4.46417 10.072 4.51857 10.675 4.77744C11.2195 5.01119 11.8731 5.3778 12.764 5.89078H15.7644L13.8904 4.80884Z" fill="white"/>
<path fill-rule="evenodd" clip-rule="evenodd" d="M7 5.89062C4.37665 5.89062 2.25 8.01727 2.25 10.6406V16.6406C2.25 19.264 4.37665 21.3906 7 21.3906H17C19.5395 21.3906 21.6135 19.3978 21.7435 16.8906H21.7497V16.695C21.7499 16.6769 21.75 16.6588 21.75 16.6406V10.6406C21.75 10.6225 21.7499 10.6043 21.7497 10.5862V10.3906H21.7435C21.6135 7.88348 19.5395 5.89062 17 5.89062H7ZM20.2405 10.3906C20.1129 8.71251 18.7108 7.39062 17 7.39062H7C5.20507 7.39062 3.75 8.8457 3.75 10.6406V16.6406C3.75 18.4356 5.20507 19.8906 7 19.8906H17C18.7108 19.8906 20.1129 18.5687 20.2405 16.8906H16.5205C14.7256 16.8906 13.2705 15.4356 13.2705 13.6406C13.2705 11.8457 14.7256 10.3906 16.5205 10.3906H20.2405ZM14.7705 13.6406C14.7705 12.6741 15.554 11.8906 16.5205 11.8906H20.2497V15.3906H16.5205C15.554 15.3906 14.7705 14.6071 14.7705 13.6406Z" fill="white"/>
<circle cx="16.502" cy="13.6406" r="0.75" fill="white"/>
</svg>
