<svg width="41" height="129" viewBox="0 0 41 129" fill="none" xmlns="http://www.w3.org/2000/svg">
<path d="M33.9107 118.166H23.9023V119.833H33.9107V122.333L37.2357 118.999L33.9107 115.666V118.166Z" fill="white"/>
<path d="M30.569 61.9173C31.5357 61.9173 32.319 62.7007 32.319 63.6673C32.319 64.634 31.5357 65.4173 30.569 65.4173C29.6023 65.4173 28.819 64.634 28.819 63.6673C28.819 62.7007 29.6023 61.9173 30.569 61.9173ZM30.569 69.4173C33.044 69.4173 35.6523 70.634 35.6523 71.1673V72.084H25.4857V71.1673C25.4857 70.634 28.094 69.4173 30.569 69.4173ZM30.569 60.334C28.7273 60.334 27.2357 61.8257 27.2357 63.6673C27.2357 65.509 28.7273 67.0007 30.569 67.0007C32.4107 67.0007 33.9023 65.509 33.9023 63.6673C33.9023 61.8257 32.4107 60.334 30.569 60.334ZM30.569 67.834C28.344 67.834 23.9023 68.9507 23.9023 71.1673V73.6673H37.2357V71.1673C37.2357 68.9507 32.794 67.834 30.569 67.834Z" fill="white"/>
<path d="M33.9107 14.166H23.9023V15.8327H33.9107V18.3327L37.2357 14.9993L33.9107 11.666V14.166Z" fill="white"/>
<rect width="3" height="126" fill="#FF00DD"/>
</svg>
